<?xml version="1.0" encoding="UTF-8" standalone="no"?>
<!-- Created with Inkscape (http://www.inkscape.org/) -->

<svg
   xmlns:dc="http://purl.org/dc/elements/1.1/"
   xmlns:cc="http://creativecommons.org/ns#"
   xmlns:rdf="http://www.w3.org/1999/02/22-rdf-syntax-ns#"
   xmlns:svg="http://www.w3.org/2000/svg"
   xmlns="http://www.w3.org/2000/svg"
   xmlns:sodipodi="http://sodipodi.sourceforge.net/DTD/sodipodi-0.dtd"
   xmlns:inkscape="http://www.inkscape.org/namespaces/inkscape"
   width="791.94727"
   height="987.70312"
   viewBox="0 0 209.53604 261.32977"
   version="1.1"
   id="svg825"
   sodipodi:docname="st-blog.svg"
   inkscape:version="0.92.3 (2405546, 2018-03-11)">
  <defs
     id="defs819" />
  <sodipodi:namedview
     id="base"
     pagecolor="#ffffff"
     bordercolor="#666666"
     borderopacity="1.0"
     inkscape:pageopacity="0.0"
     inkscape:pageshadow="2"
     inkscape:zoom="0.98994949"
     inkscape:cx="227.73177"
     inkscape:cy="236.42563"
     inkscape:document-units="px"
     inkscape:current-layer="layer1"
     showgrid="false"
     units="px"
     width="805.71484px"
     inkscape:pagecheckerboard="true"
     showborder="true"
     inkscape:window-width="1280"
     inkscape:window-height="725"
     inkscape:window-x="0"
     inkscape:window-y="0"
     inkscape:window-maximized="1"
     borderlayer="false"
     fit-margin-top="0"
     fit-margin-left="0"
     fit-margin-right="0"
     fit-margin-bottom="0" />
  <metadata
     id="metadata822">
    <rdf:RDF>
      <cc:Work
         rdf:about="">
        <dc:format>image/svg+xml</dc:format>
        <dc:type
           rdf:resource="http://purl.org/dc/dcmitype/StillImage" />
        <dc:title />
      </cc:Work>
    </rdf:RDF>
  </metadata>
  <g
     inkscape:label="Layer 1"
     inkscape:groupmode="layer"
     id="layer1"
     transform="translate(6.9494465,-17.835087)">
    <path
       style="fill:#ff0000;fill-opacity:1;stroke:none;stroke-width:0.92304534"
       d="M 22.855469 0 C 10.192603 0 0 8.7154268 0 19.542969 L 0 494.42188 L 791.94727 494.42188 L 791.94727 19.542969 C 791.94727 8.7154268 781.7527 0 769.08984 0 L 22.855469 0 z M 231.30078 102.10156 C 276.71376 102.10156 311.29772 110.58542 335.05469 127.55469 C 358.97328 144.36233 373.19557 171.19151 377.7207 208.03906 L 274.20898 214.09961 C 271.46157 198.10002 265.64257 186.46395 256.75391 179.19141 C 248.02686 171.91887 235.90734 168.28125 220.39258 168.28125 C 207.62523 168.28125 198.0094 171.02863 191.54492 176.52344 C 185.08043 181.85664 181.84766 188.40277 181.84766 196.16016 C 181.84766 201.81656 184.51446 206.90651 189.84766 211.43164 C 195.01923 216.11839 207.30186 220.48314 226.69531 224.52344 C 274.69409 234.86661 309.0363 245.37072 329.72266 256.03711 C 350.5706 266.5419 365.68119 279.63222 375.05469 295.30859 C 384.5898 310.98496 389.35742 328.52063 389.35742 347.91406 C 389.35742 370.70133 383.05496 391.70958 370.44922 410.94141 C 357.84348 430.17323 340.22724 444.80037 317.60156 454.82031 C 294.97587 464.67864 266.45073 469.60742 232.02734 469.60742 C 171.58444 469.60742 129.72722 457.97136 106.45508 434.69922 C 83.182931 411.42708 70.012034 381.85249 66.941406 345.97461 L 171.42383 339.42969 C 173.6864 356.39897 178.29091 369.32615 185.24023 378.21484 C 196.55308 392.59829 212.71505 399.79102 233.72461 399.79102 C 249.40098 399.79102 261.44187 396.15534 269.8457 388.88281 C 278.41114 381.44867 282.69336 372.88227 282.69336 363.18555 C 282.69336 353.97363 278.65287 345.73151 270.57227 338.45898 C 262.49167 331.18642 243.74542 324.31798 214.33203 317.85352 C 166.17163 307.02544 131.82747 292.64208 111.30273 274.70312 C 90.616415 256.76419 80.273437 233.89689 80.273438 206.09961 C 80.273438 187.83745 85.526468 170.6241 96.03125 154.46289 C 106.69765 138.14008 122.61593 125.374 143.78711 116.16211 C 165.11991 106.78861 194.29162 102.10156 231.30078 102.10156 z M 557.35352 108.16211 L 557.35352 206.09961 L 611.6543 206.09961 L 611.6543 278.09766 L 557.35352 278.09766 L 557.35352 369.48828 C 557.35352 380.4779 558.40294 387.75116 560.50391 391.30664 C 563.73616 396.80143 569.39402 399.54883 577.47461 399.54883 C 584.74718 399.54883 594.92703 397.44802 608.01758 393.24609 L 615.29102 461.36523 C 590.88759 466.69845 568.10086 469.36523 546.92969 469.36523 C 522.36465 469.36523 504.26302 466.21293 492.62695 459.91016 C 480.99088 453.60723 472.34586 444.07208 466.68945 431.30469 C 461.19462 418.37575 458.44727 397.52865 458.44727 368.76172 L 458.44727 278.09766 L 422.08398 278.09766 L 422.08398 206.09961 L 458.44727 206.09961 L 458.44727 158.82812 L 557.35352 108.16211 z M 619.29102 381.36523 L 713.57617 381.36523 L 713.57617 461.36523 L 619.29102 461.36523 L 619.29102 381.36523 z M 0 517.2793 L 0 968.16016 C 0 978.98763 10.192603 987.70312 22.855469 987.70312 L 769.08984 987.70312 C 781.7527 987.70312 791.94727 978.98763 791.94727 968.16016 L 791.94727 517.2793 L 0 517.2793 z M 633.50781 539.13477 C 656.94629 539.13477 674.79525 543.41641 687.05664 551.97852 C 699.40145 560.45906 706.7426 573.99586 709.07812 592.58789 L 655.65234 595.64453 C 654.23434 587.57169 651.23212 581.70072 646.64453 578.03125 C 642.14035 574.36171 635.88441 572.52734 627.87695 572.52734 C 621.2875 572.52734 616.3247 573.91304 612.98828 576.68555 C 609.65183 579.3765 607.98242 582.67963 607.98242 586.59375 C 607.98242 589.44778 609.35877 592.01558 612.11133 594.29883 C 614.78047 596.66357 621.12157 598.8657 631.13086 600.9043 C 655.90393 606.12311 673.62809 611.42474 684.30469 616.80664 C 695.0647 622.10697 702.86334 628.71134 707.70117 636.62109 C 712.62242 644.53085 715.08203 653.37879 715.08203 663.16406 C 715.08203 674.66173 711.83026 685.26113 705.32422 694.96484 C 698.81814 704.66859 689.72636 712.04978 678.04883 717.10547 C 666.3713 722.07967 651.64935 724.56641 633.88281 724.56641 C 602.68712 724.56641 581.08345 718.69544 569.07227 706.95312 C 557.06112 695.21085 550.26253 680.28828 548.67773 662.18555 L 602.60352 658.88281 C 603.77128 667.44492 606.14768 673.96819 609.73438 678.45312 C 615.57314 685.71054 623.91439 689.33984 634.75781 689.33984 C 642.84869 689.33984 649.063 687.50349 653.40039 683.83398 C 657.82115 680.08299 660.03125 675.76178 660.03125 670.86914 C 660.03125 666.22115 657.94591 662.06205 653.77539 658.39258 C 649.60483 654.72311 639.92882 651.25783 624.74805 647.99609 C 599.89157 642.53264 582.1674 635.27601 571.57422 626.22461 C 560.89762 617.17328 555.56055 605.63494 555.56055 591.60938 C 555.56055 582.39492 558.26967 573.70906 563.69141 565.55469 C 569.19652 557.31872 577.413 550.87846 588.33984 546.23047 C 599.3501 541.50092 614.40672 539.13477 633.50781 539.13477 z M 76.865234 542.19336 L 133.66797 542.19336 L 133.66797 721.50781 L 76.865234 721.50781 L 76.865234 542.19336 z M 156.0625 542.19336 L 215.36719 542.19336 L 256.65625 671.23633 L 297.32031 542.19336 L 354.87305 542.19336 L 286.80859 721.50781 L 225.37695 721.50781 L 156.0625 542.19336 z M 373.26562 542.19336 L 525.15625 542.19336 L 525.15625 580.47852 L 430.06836 580.47852 L 430.06836 608.97852 L 518.27539 608.97852 L 518.27539 645.55078 L 430.06836 645.55078 L 430.06836 680.89844 L 527.9082 680.89844 L 527.9082 721.50781 L 373.26562 721.50781 L 373.26562 542.19336 z M 445.19141 743.57617 C 468.06641 743.57617 485.69141 749.73242 498.06641 762.04492 C 510.44141 774.29492 516.62891 791.48242 516.62891 813.60742 C 516.62891 829.66992 513.91016 842.85742 508.47266 853.16992 C 503.09766 863.41992 495.28516 871.41992 485.03516 877.16992 C 474.84766 882.85742 462.12891 885.70117 446.87891 885.70117 C 431.37891 885.70117 418.53516 883.23242 408.34766 878.29492 C 398.22266 873.35742 390.00391 865.54492 383.69141 854.85742 C 377.37891 844.16992 374.22266 830.79492 374.22266 814.73242 C 374.22266 792.29492 380.47266 774.82617 392.97266 762.32617 C 405.47266 749.82617 422.87891 743.57617 445.19141 743.57617 z M 608.69336 743.57617 C 623.88086 743.57617 635.22461 744.95117 642.72461 747.70117 C 650.28711 750.45117 656.53711 754.73242 661.47461 760.54492 C 666.47461 766.29492 670.22461 773.60742 672.72461 782.48242 L 631.75586 789.79492 C 630.06836 784.60742 627.19336 780.63867 623.13086 777.88867 C 619.13086 775.13867 614.00586 773.76367 607.75586 773.76367 C 598.44336 773.76367 591.00586 777.01367 585.44336 783.51367 C 579.94336 789.95117 577.19336 800.16992 577.19336 814.16992 C 577.19336 829.04492 579.97461 839.66992 585.53711 846.04492 C 591.16211 852.41992 598.97461 855.60742 608.97461 855.60742 C 613.72461 855.60742 618.25586 854.91992 622.56836 853.54492 C 626.88086 852.16992 631.81836 849.82617 637.38086 846.51367 L 637.38086 833.57617 L 608.97461 833.57617 L 608.97461 804.98242 L 674.59961 804.98242 L 674.59961 863.57617 C 662.03711 872.13867 650.91211 877.98242 641.22461 881.10742 C 631.59961 884.16992 620.16211 885.70117 606.91211 885.70117 C 590.59961 885.70117 577.28711 882.91992 566.97461 877.35742 C 556.72461 871.79492 548.75586 863.51367 543.06836 852.51367 C 537.44336 841.51367 534.63086 828.88867 534.63086 814.63867 C 534.63086 799.63867 537.72461 786.60742 543.91211 775.54492 C 550.09961 764.41992 559.16211 755.98242 571.09961 750.23242 C 580.41211 745.79492 592.94336 743.57617 608.69336 743.57617 z M 105.34766 745.91992 L 184.84766 745.91992 C 198.09766 745.91992 208.25391 749.20117 215.31641 755.76367 C 222.44141 762.32617 226.00391 770.45117 226.00391 780.13867 C 226.00391 788.26367 223.47266 795.23242 218.41016 801.04492 C 215.03516 804.91992 210.09766 807.98242 203.59766 810.23242 C 213.47266 812.60742 220.72266 816.70117 225.34766 822.51367 C 230.03516 828.26367 232.37891 835.51367 232.37891 844.26367 C 232.37891 851.38867 230.72266 857.79492 227.41016 863.48242 C 224.09766 869.16992 219.56641 873.66992 213.81641 876.98242 C 210.25391 879.04492 204.87891 880.54492 197.69141 881.48242 C 188.12891 882.73242 181.78516 883.35742 178.66016 883.35742 L 105.34766 883.35742 L 105.34766 745.91992 z M 254.50391 745.91992 L 296.97266 745.91992 L 296.97266 849.51367 L 363.25391 849.51367 L 363.25391 883.35742 L 254.50391 883.35742 L 254.50391 745.91992 z M 148.19141 773.76367 L 148.19141 799.82617 L 166.66016 799.82617 C 173.28516 799.82617 177.87891 798.70117 180.44141 796.45117 C 183.06641 794.13867 184.37891 790.82617 184.37891 786.51367 C 184.37891 782.51367 183.06641 779.38867 180.44141 777.13867 C 177.87891 774.88867 173.37891 773.76367 166.94141 773.76367 L 148.19141 773.76367 z M 445.09766 775.73242 C 436.53516 775.73242 429.66016 778.76367 424.47266 784.82617 C 419.28516 790.88867 416.69141 800.91992 416.69141 814.91992 C 416.69141 828.79492 419.25391 838.76367 424.37891 844.82617 C 429.56641 850.88867 436.59766 853.91992 445.47266 853.91992 C 454.59766 853.91992 461.66016 850.95117 466.66016 845.01367 C 471.66016 839.07617 474.16016 828.41992 474.16016 813.04492 C 474.16016 800.10742 471.53516 790.66992 466.28516 784.73242 C 461.09766 778.73242 454.03516 775.73242 445.09766 775.73242 z M 148.19141 825.98242 L 148.19141 853.82617 L 169.84766 853.82617 C 177.16016 853.82617 182.31641 852.54492 185.31641 849.98242 C 188.31641 847.35742 189.81641 843.85742 189.81641 839.48242 C 189.81641 835.41992 188.31641 832.16992 185.31641 829.73242 C 182.37891 827.23242 177.19141 825.98242 169.75391 825.98242 L 148.19141 825.98242 z "
       transform="matrix(0.26458332,0,0,0.26458332,-6.9494465,17.835087)"
       id="rect1442" />
  </g>
</svg>
