<?xml version="1.0" encoding="UTF-8" standalone="no"?>
<!-- Created with Inkscape (http://www.inkscape.org/) -->

<svg
   xmlns:dc="http://purl.org/dc/elements/1.1/"
   xmlns:cc="http://creativecommons.org/ns#"
   xmlns:rdf="http://www.w3.org/1999/02/22-rdf-syntax-ns#"
   xmlns:svg="http://www.w3.org/2000/svg"
   xmlns="http://www.w3.org/2000/svg"
   xmlns:sodipodi="http://sodipodi.sourceforge.net/DTD/sodipodi-0.dtd"
   xmlns:inkscape="http://www.inkscape.org/namespaces/inkscape"
   width="791.94727"
   height="987.70312"
   viewBox="0 0 209.53604 261.32977"
   version="1.1"
   id="svg825"
   sodipodi:docname="st-blood-bank.svg"
   inkscape:version="0.92.3 (2405546, 2018-03-11)">
  <defs
     id="defs819" />
  <sodipodi:namedview
     id="base"
     pagecolor="#ffffff"
     bordercolor="#666666"
     borderopacity="1.0"
     inkscape:pageopacity="0.0"
     inkscape:pageshadow="2"
     inkscape:zoom="0.35"
     inkscape:cx="-54.208027"
     inkscape:cy="414.69131"
     inkscape:document-units="px"
     inkscape:current-layer="layer1"
     showgrid="false"
     units="px"
     width="805.71484px"
     inkscape:pagecheckerboard="true"
     showborder="true"
     inkscape:window-width="1280"
     inkscape:window-height="725"
     inkscape:window-x="0"
     inkscape:window-y="0"
     inkscape:window-maximized="1"
     borderlayer="false"
     fit-margin-top="0"
     fit-margin-left="0"
     fit-margin-right="0"
     fit-margin-bottom="0" />
  <metadata
     id="metadata822">
    <rdf:RDF>
      <cc:Work
         rdf:about="">
        <dc:format>image/svg+xml</dc:format>
        <dc:type
           rdf:resource="http://purl.org/dc/dcmitype/StillImage" />
        <dc:title />
      </cc:Work>
    </rdf:RDF>
  </metadata>
  <g
     inkscape:label="Layer 1"
     inkscape:groupmode="layer"
     id="layer1"
     transform="translate(6.9494465,-17.835087)">
    <path
       style="fill:#ff0000;fill-opacity:1;stroke:none;stroke-width:0.92304534"
       d="M 22.855469 0 C 10.192604 0 -7.1054274e-15 8.7154268 0 19.542969 L 0 494.42188 L 791.94727 494.42188 L 791.94727 19.542969 C 791.94727 8.7154268 781.7527 0 769.08984 0 L 22.855469 0 z M 231.30078 102.10156 C 276.71376 102.10156 311.29772 110.58542 335.05469 127.55469 C 358.97328 144.36233 373.19557 171.19151 377.7207 208.03906 L 274.20898 214.09961 C 271.46157 198.10002 265.64257 186.46395 256.75391 179.19141 C 248.02686 171.91887 235.90734 168.28125 220.39258 168.28125 C 207.62523 168.28125 198.0094 171.02863 191.54492 176.52344 C 185.08043 181.85664 181.84766 188.40277 181.84766 196.16016 C 181.84766 201.81656 184.51446 206.90651 189.84766 211.43164 C 195.01923 216.11839 207.30186 220.48314 226.69531 224.52344 C 274.69409 234.86661 309.0363 245.37072 329.72266 256.03711 C 350.5706 266.5419 365.68119 279.63222 375.05469 295.30859 C 384.5898 310.98496 389.35742 328.52066 389.35742 347.91406 C 389.35742 370.70136 383.05496 391.70958 370.44922 410.94141 C 357.84348 430.17323 340.22724 444.80041 317.60156 454.82031 C 294.97587 464.67864 266.45073 469.60742 232.02734 469.60742 C 171.58444 469.60742 129.72722 457.97136 106.45508 434.69922 C 83.182931 411.42708 70.012034 381.85249 66.941406 345.97461 L 171.42383 339.42969 C 173.6864 356.39897 178.29091 369.32615 185.24023 378.21484 C 196.55309 392.59829 212.71505 399.79102 233.72461 399.79102 C 249.40098 399.79102 261.44187 396.15534 269.8457 388.88281 C 278.41114 381.44867 282.69336 372.88227 282.69336 363.18555 C 282.69336 353.97363 278.65287 345.73151 270.57227 338.45898 C 262.49167 331.18642 243.74542 324.31794 214.33203 317.85352 C 166.17163 307.02543 131.82747 292.64208 111.30273 274.70312 C 90.616412 256.76419 80.273437 233.89689 80.273438 206.09961 C 80.273438 187.83745 85.526468 170.6241 96.03125 154.46289 C 106.69765 138.14008 122.61593 125.374 143.78711 116.16211 C 165.11991 106.78861 194.29162 102.10156 231.30078 102.10156 z M 557.35352 108.16211 L 557.35352 206.09961 L 611.6543 206.09961 L 611.6543 278.09766 L 557.35352 278.09766 L 557.35352 369.48828 C 557.35352 380.4779 558.40294 387.75116 560.50391 391.30664 C 563.73616 396.80143 569.39402 399.54883 577.47461 399.54883 C 584.74718 399.54883 594.92703 397.44802 608.01758 393.24609 L 615.29102 461.36523 C 590.88759 466.69845 568.10083 469.36523 546.92969 469.36523 C 522.36465 469.36523 504.26302 466.21297 492.62695 459.91016 C 480.99088 453.60723 472.34586 444.07208 466.68945 431.30469 C 461.19462 418.37575 458.44727 397.52865 458.44727 368.76172 L 458.44727 278.09766 L 422.08398 278.09766 L 422.08398 206.09961 L 458.44727 206.09961 L 458.44727 158.82812 L 557.35352 108.16211 z M 619.29102 381.36523 L 713.57617 381.36523 L 713.57617 461.36523 L 619.29102 461.36523 L 619.29102 381.36523 z M 0 517.2793 L 0 968.16016 C 0 978.9876 10.192604 987.70312 22.855469 987.70312 L 769.08984 987.70312 C 781.7527 987.70312 791.94727 978.9876 791.94727 968.16016 L 791.94727 517.2793 L 0 517.2793 z M 633.50781 539.13477 C 656.94629 539.13477 674.79525 543.41637 687.05664 551.97852 C 699.40145 560.45906 706.7426 573.99586 709.07812 592.58789 L 655.65234 595.64453 C 654.23434 587.57172 651.23212 581.70072 646.64453 578.03125 C 642.14035 574.36174 635.88441 572.52734 627.87695 572.52734 C 621.2875 572.52734 616.3247 573.91304 612.98828 576.68555 C 609.65183 579.3765 607.98242 582.67963 607.98242 586.59375 C 607.98242 589.44778 609.35877 592.01558 612.11133 594.29883 C 614.78047 596.6636 621.12157 598.8657 631.13086 600.9043 C 655.90393 606.12311 673.62809 611.42471 684.30469 616.80664 C 695.0647 622.10694 702.86334 628.71134 707.70117 636.62109 C 712.62242 644.53085 715.08203 653.37879 715.08203 663.16406 C 715.08203 674.66173 711.83026 685.26113 705.32422 694.96484 C 698.81814 704.66859 689.72636 712.04978 678.04883 717.10547 C 666.3713 722.07967 651.64935 724.56641 633.88281 724.56641 C 602.68712 724.56641 581.08345 718.69544 569.07227 706.95312 C 557.06112 695.21081 550.26253 680.28828 548.67773 662.18555 L 602.60352 658.88281 C 603.77128 667.44492 606.14768 673.96819 609.73438 678.45312 C 615.57314 685.71054 623.91439 689.33984 634.75781 689.33984 C 642.84869 689.33984 649.063 687.50349 653.40039 683.83398 C 657.82115 680.08299 660.03125 675.76178 660.03125 670.86914 C 660.03125 666.22115 657.94591 662.06205 653.77539 658.39258 C 649.60483 654.72311 639.92882 651.25786 624.74805 647.99609 C 599.89157 642.53267 582.1674 635.27601 571.57422 626.22461 C 560.89762 617.17325 555.56055 605.63494 555.56055 591.60938 C 555.56055 582.39492 558.26967 573.70906 563.69141 565.55469 C 569.19652 557.31872 577.413 550.87846 588.33984 546.23047 C 599.3501 541.50092 614.40672 539.13477 633.50781 539.13477 z M 76.865234 542.19336 L 133.66797 542.19336 L 133.66797 721.50781 L 76.865234 721.50781 L 76.865234 542.19336 z M 156.0625 542.19336 L 215.36719 542.19336 L 256.65625 671.23633 L 297.32031 542.19336 L 354.87305 542.19336 L 286.80859 721.50781 L 225.37695 721.50781 L 156.0625 542.19336 z M 373.26562 542.19336 L 525.15625 542.19336 L 525.15625 580.47852 L 430.06836 580.47852 L 430.06836 608.97852 L 518.27539 608.97852 L 518.27539 645.55078 L 430.06836 645.55078 L 430.06836 680.89844 L 527.9082 680.89844 L 527.9082 721.50781 L 373.26562 721.50781 L 373.26562 542.19336 z M 242.97656 738.58594 C 252.56713 738.58594 259.95619 744.76399 265.14453 757.11914 C 270.33287 769.41157 272.92773 786.65774 272.92773 808.85938 C 272.92773 824.97751 271.78754 838.21233 269.50781 848.56055 C 267.25429 858.84605 263.97905 866.87266 259.68164 872.64258 C 255.41043 878.34978 250.07731 881.20313 243.68359 881.20312 C 237.18507 881.20312 231.80051 878.72609 227.5293 873.77148 C 223.28429 868.81688 219.83798 860.97842 217.19141 850.25391 C 214.54483 839.52939 213.22266 826.10642 213.22266 809.98828 C 213.22266 787.47306 215.84324 769.94564 221.08398 757.40234 C 226.32473 744.85905 233.62183 738.58594 242.97656 738.58594 z M 310.18945 738.58594 C 319.78002 738.58594 327.16908 744.76399 332.35742 757.11914 C 337.54576 769.41157 340.14062 786.65774 340.14062 808.85938 C 340.14062 824.97751 339.00043 838.21233 336.7207 848.56055 C 334.46718 858.84605 331.19195 866.87266 326.89453 872.64258 C 322.62332 878.34978 317.2902 881.20313 310.89648 881.20312 C 304.39796 881.20312 299.0134 878.72609 294.74219 873.77148 C 290.49718 868.81688 287.05087 860.97842 284.4043 850.25391 C 281.75772 839.52939 280.43555 826.10642 280.43555 809.98828 C 280.43555 787.47306 283.05613 769.94564 288.29688 757.40234 C 293.53762 744.85905 300.83472 738.58594 310.18945 738.58594 z M 100.49414 740.9375 L 133.82422 740.9375 C 139.37941 740.9375 143.63859 744.23118 146.59961 750.81641 C 149.58684 757.40164 151.08008 765.55434 151.08008 775.27539 C 151.08008 783.42853 150.01899 790.42127 147.89648 796.25391 C 146.48148 800.14233 144.41074 803.21682 141.68555 805.47461 C 145.82574 807.85784 148.86561 811.96424 150.80469 817.79688 C 152.76997 823.56679 153.75195 830.84274 153.75195 839.62305 C 153.75195 846.77273 153.05872 853.201 151.66992 858.9082 C 150.28112 864.6154 148.38145 869.1311 145.9707 872.45508 C 144.47709 874.52472 142.22241 876.02996 139.20898 876.9707 C 135.19981 878.22503 132.54066 878.85156 131.23047 878.85156 L 100.49414 878.85156 L 100.49414 740.9375 z M 163.0293 740.9375 L 180.83398 740.9375 L 180.83398 844.89062 L 208.62305 844.89062 L 208.62305 878.85156 L 163.0293 878.85156 L 163.0293 740.9375 z M 350.04492 740.9375 L 376.49805 740.9375 C 381.71259 740.9375 385.91838 742.63089 389.11523 746.01758 C 392.33829 749.40427 394.99745 754.26524 397.09375 760.59961 C 399.19005 766.93397 400.70901 774.30302 401.65234 782.70703 C 402.59568 791.11104 403.06836 800.01636 403.06836 809.42383 C 403.06836 824.1622 402.36031 835.60858 400.94531 843.76172 C 399.55651 851.85214 397.61826 858.65673 395.12891 864.17578 C 392.63955 869.63212 389.96558 873.27107 387.10938 875.08984 C 383.20502 877.5985 379.6687 878.85156 376.49805 878.85156 L 350.04492 878.85156 L 350.04492 740.9375 z M 439.30859 740.9375 L 472.63867 740.9375 C 478.19387 740.9375 482.45304 744.23118 485.41406 750.81641 C 488.40129 757.40164 489.89453 765.55434 489.89453 775.27539 C 489.89453 783.42853 488.83344 790.42127 486.71094 796.25391 C 485.29594 800.14233 483.22519 803.21682 480.5 805.47461 C 484.64019 807.85784 487.68006 811.96424 489.61914 817.79688 C 491.58442 823.56679 492.56641 830.84274 492.56641 839.62305 C 492.56641 846.77273 491.87317 853.201 490.48438 858.9082 C 489.09558 864.6154 487.1959 869.1311 484.78516 872.45508 C 483.29154 874.52472 481.03687 876.02996 478.02344 876.9707 C 474.01426 878.22503 471.35511 878.85156 470.04492 878.85156 L 439.30859 878.85156 L 439.30859 740.9375 z M 516.34766 740.9375 L 535.76367 740.9375 L 557.42188 878.85156 L 538.79102 878.85156 L 535.96094 856.08594 L 515.67969 856.08594 L 512.88867 878.85156 L 494.68945 878.85156 L 516.34766 740.9375 z M 563.27734 740.9375 L 579.9043 740.9375 L 601.60156 817.23242 L 601.60156 740.9375 L 618.38477 740.9375 L 618.38477 878.85156 L 601.60156 878.85156 L 580.02148 803.12109 L 580.02148 878.85156 L 563.27734 878.85156 L 563.27734 740.9375 z M 630.37305 740.9375 L 648.17773 740.9375 L 648.17773 793.05664 L 666.84766 740.9375 L 690.50977 740.9375 L 669.52148 792.96094 L 691.45312 878.85156 L 669.52148 878.85156 L 657.375 822.125 L 648.17773 845.17383 L 648.17773 878.85156 L 630.37305 878.85156 L 630.37305 740.9375 z M 118.45703 768.87891 L 118.45703 795.03125 L 126.19922 795.03125 C 128.97682 795.03125 130.90221 793.90232 131.97656 791.64453 C 133.07712 789.32402 133.62891 785.99931 133.62891 781.67188 C 133.62891 777.65802 133.07712 774.52342 131.97656 772.26562 C 130.90221 770.00783 129.01734 768.87891 126.31836 768.87891 L 118.45703 768.87891 z M 457.27148 768.87891 L 457.27148 795.03125 L 465.01367 795.03125 C 467.79127 795.03125 469.71666 793.90232 470.79102 791.64453 C 471.89157 789.32402 472.44336 785.99931 472.44336 781.67188 C 472.44336 777.65802 471.89157 774.52342 470.79102 772.26562 C 469.71666 770.00783 467.8318 768.87891 465.13281 768.87891 L 457.27148 768.87891 z M 242.9375 770.85352 C 239.34759 770.85352 236.46397 773.89502 234.28906 779.97852 C 232.11415 786.06201 231.02734 796.12924 231.02734 810.17773 C 231.02734 824.10079 232.10129 834.104 234.25 840.1875 C 236.42491 846.271 239.37282 849.3125 243.09375 849.3125 C 246.9195 849.3125 249.88026 846.33307 251.97656 840.375 C 254.07286 834.41693 255.12109 823.72318 255.12109 808.29492 C 255.12109 795.31261 254.02143 785.84283 251.82031 779.88477 C 249.6454 773.86398 246.68464 770.85352 242.9375 770.85352 z M 310.15039 770.85352 C 306.56048 770.85352 303.67686 773.89502 301.50195 779.97852 C 299.32704 786.06201 298.24023 796.12924 298.24023 810.17773 C 298.24023 824.10079 299.31418 834.104 301.46289 840.1875 C 303.6378 846.271 306.58571 849.3125 310.30664 849.3125 C 314.13239 849.3125 317.09315 846.33307 319.18945 840.375 C 321.28575 834.41693 322.33398 823.72318 322.33398 808.29492 C 322.33398 795.31261 321.23432 785.84283 319.0332 779.88477 C 316.85829 773.86398 313.89753 770.85352 310.15039 770.85352 z M 367.84961 772.17188 L 367.84961 847.52539 L 372.21289 847.52539 C 375.93382 847.52539 378.58012 846.55359 380.15234 844.60938 C 381.72457 842.60245 382.95673 839.15165 383.84766 834.25977 C 384.73858 829.30516 385.18359 821.30959 385.18359 810.27148 C 385.18359 795.65854 384.18875 785.65534 382.19727 780.26172 C 380.20578 774.8681 376.90483 772.17188 372.29297 772.17188 L 367.84961 772.17188 z M 525.85938 776.6875 L 519.53125 826.26367 L 532.22656 826.26367 L 525.85938 776.6875 z M 118.45703 821.27734 L 118.45703 849.21875 L 127.53516 849.21875 C 130.60099 849.21875 132.7637 847.9327 134.02148 845.36133 C 135.27926 842.72724 135.9082 839.21437 135.9082 834.82422 C 135.9082 830.74765 135.27926 827.48696 134.02148 825.04102 C 132.78991 822.53236 130.61434 821.27734 127.49609 821.27734 L 118.45703 821.27734 z M 457.27148 821.27734 L 457.27148 849.21875 L 466.34961 849.21875 C 469.41545 849.21875 471.57816 847.9327 472.83594 845.36133 C 474.09372 842.72724 474.72266 839.21437 474.72266 834.82422 C 474.72266 830.74765 474.09372 827.48696 472.83594 825.04102 C 471.60436 822.53236 469.42879 821.27734 466.31055 821.27734 L 457.27148 821.27734 z "
       transform="matrix(0.26458332,0,0,0.26458332,-6.9494465,17.835087)"
       id="rect1442" />
  </g>
</svg>
