<?xml version="1.0" encoding="UTF-8" standalone="no"?>
<!-- Created with Inkscape (http://www.inkscape.org/) -->

<svg
   xmlns:dc="http://purl.org/dc/elements/1.1/"
   xmlns:cc="http://creativecommons.org/ns#"
   xmlns:rdf="http://www.w3.org/1999/02/22-rdf-syntax-ns#"
   xmlns:svg="http://www.w3.org/2000/svg"
   xmlns="http://www.w3.org/2000/svg"
   xmlns:sodipodi="http://sodipodi.sourceforge.net/DTD/sodipodi-0.dtd"
   xmlns:inkscape="http://www.inkscape.org/namespaces/inkscape"
   width="791.94727"
   height="987.70312"
   viewBox="0 0 209.53604 261.32977"
   version="1.1"
   id="svg825"
   sodipodi:docname="st-family-clinic.svg"
   inkscape:version="0.92.3 (2405546, 2018-03-11)">
  <defs
     id="defs819" />
  <sodipodi:namedview
     id="base"
     pagecolor="#ffffff"
     bordercolor="#666666"
     borderopacity="1.0"
     inkscape:pageopacity="0.0"
     inkscape:pageshadow="2"
     inkscape:zoom="0.7"
     inkscape:cx="173.81835"
     inkscape:cy="313.46687"
     inkscape:document-units="px"
     inkscape:current-layer="layer1"
     showgrid="false"
     units="px"
     width="805.71484px"
     inkscape:pagecheckerboard="true"
     showborder="true"
     inkscape:window-width="1280"
     inkscape:window-height="725"
     inkscape:window-x="0"
     inkscape:window-y="0"
     inkscape:window-maximized="1"
     borderlayer="false"
     fit-margin-top="0"
     fit-margin-left="0"
     fit-margin-right="0"
     fit-margin-bottom="0" />
  <metadata
     id="metadata822">
    <rdf:RDF>
      <cc:Work
         rdf:about="">
        <dc:format>image/svg+xml</dc:format>
        <dc:type
           rdf:resource="http://purl.org/dc/dcmitype/StillImage" />
        <dc:title />
      </cc:Work>
    </rdf:RDF>
  </metadata>
  <g
     inkscape:label="Layer 1"
     inkscape:groupmode="layer"
     id="layer1"
     transform="translate(6.9494465,-17.835087)">
    <path
       style="fill:#ff0000;fill-opacity:1;stroke:none;stroke-width:0.92304534"
       d="M 22.855469 0 C 10.192603 0 2.3684758e-15 8.7154268 0 19.542969 L 0 494.42188 L 791.94727 494.42188 L 791.94727 19.542969 C 791.94727 8.7154268 781.7527 0 769.08984 0 L 22.855469 0 z M 231.30078 102.10156 C 276.71376 102.10156 311.29772 110.58542 335.05469 127.55469 C 358.97328 144.36233 373.19557 171.19151 377.7207 208.03906 L 274.20898 214.09961 C 271.46157 198.10002 265.64257 186.46395 256.75391 179.19141 C 248.02686 171.91887 235.90734 168.28125 220.39258 168.28125 C 207.62523 168.28125 198.0094 171.02863 191.54492 176.52344 C 185.08043 181.85664 181.84766 188.40277 181.84766 196.16016 C 181.84766 201.81656 184.51446 206.90651 189.84766 211.43164 C 195.01923 216.11839 207.30186 220.48314 226.69531 224.52344 C 274.69409 234.86661 309.0363 245.37072 329.72266 256.03711 C 350.5706 266.5419 365.68119 279.63222 375.05469 295.30859 C 384.5898 310.98496 389.35742 328.52066 389.35742 347.91406 C 389.35742 370.70136 383.05496 391.70958 370.44922 410.94141 C 357.84348 430.17323 340.22724 444.80041 317.60156 454.82031 C 294.97587 464.67864 266.45073 469.60742 232.02734 469.60742 C 171.58444 469.60742 129.72722 457.97136 106.45508 434.69922 C 83.182931 411.42708 70.012034 381.85249 66.941406 345.97461 L 171.42383 339.42969 C 173.6864 356.39897 178.29091 369.32615 185.24023 378.21484 C 196.55309 392.59829 212.71505 399.79102 233.72461 399.79102 C 249.40098 399.79102 261.44187 396.15534 269.8457 388.88281 C 278.41114 381.44867 282.69336 372.88227 282.69336 363.18555 C 282.69336 353.97363 278.65287 345.73151 270.57227 338.45898 C 262.49167 331.18642 243.74542 324.31794 214.33203 317.85352 C 166.17163 307.02543 131.82747 292.64208 111.30273 274.70312 C 90.616412 256.76419 80.273437 233.89689 80.273438 206.09961 C 80.273438 187.83745 85.526468 170.6241 96.03125 154.46289 C 106.69765 138.14008 122.61593 125.374 143.78711 116.16211 C 165.11991 106.78861 194.29162 102.10156 231.30078 102.10156 z M 557.35352 108.16211 L 557.35352 206.09961 L 611.6543 206.09961 L 611.6543 278.09766 L 557.35352 278.09766 L 557.35352 369.48828 C 557.35352 380.4779 558.40294 387.75116 560.50391 391.30664 C 563.73616 396.80143 569.39402 399.54883 577.47461 399.54883 C 584.74718 399.54883 594.92703 397.44802 608.01758 393.24609 L 615.29102 461.36523 C 590.88759 466.69845 568.10083 469.36523 546.92969 469.36523 C 522.36465 469.36523 504.26302 466.21297 492.62695 459.91016 C 480.99088 453.60723 472.34586 444.07208 466.68945 431.30469 C 461.19462 418.37575 458.44727 397.52865 458.44727 368.76172 L 458.44727 278.09766 L 422.08398 278.09766 L 422.08398 206.09961 L 458.44727 206.09961 L 458.44727 158.82812 L 557.35352 108.16211 z M 619.29102 381.36523 L 713.57617 381.36523 L 713.57617 461.36523 L 619.29102 461.36523 L 619.29102 381.36523 z M 0 517.2793 L 0 968.16016 C 0 978.9876 10.192603 987.70312 22.855469 987.70312 L 769.08984 987.70312 C 781.7527 987.70312 791.94727 978.9876 791.94727 968.16016 L 791.94727 517.2793 L 0 517.2793 z M 633.50781 539.13477 C 656.94629 539.13477 674.79525 543.41637 687.05664 551.97852 C 699.40145 560.45906 706.7426 573.99586 709.07812 592.58789 L 655.65234 595.64453 C 654.23434 587.57172 651.23212 581.70072 646.64453 578.03125 C 642.14035 574.36174 635.88441 572.52734 627.87695 572.52734 C 621.2875 572.52734 616.3247 573.91304 612.98828 576.68555 C 609.65183 579.3765 607.98242 582.67963 607.98242 586.59375 C 607.98242 589.44778 609.35877 592.01558 612.11133 594.29883 C 614.78047 596.6636 621.12157 598.8657 631.13086 600.9043 C 655.90393 606.12311 673.62809 611.42471 684.30469 616.80664 C 695.0647 622.10694 702.86334 628.71134 707.70117 636.62109 C 712.62242 644.53085 715.08203 653.37879 715.08203 663.16406 C 715.08203 674.66173 711.83026 685.26113 705.32422 694.96484 C 698.81814 704.66859 689.72636 712.04978 678.04883 717.10547 C 666.3713 722.07967 651.64935 724.56641 633.88281 724.56641 C 602.68712 724.56641 581.08345 718.69544 569.07227 706.95312 C 557.06112 695.21081 550.26253 680.28828 548.67773 662.18555 L 602.60352 658.88281 C 603.77128 667.44492 606.14768 673.96819 609.73438 678.45312 C 615.57314 685.71054 623.91439 689.33984 634.75781 689.33984 C 642.84869 689.33984 649.063 687.50349 653.40039 683.83398 C 657.82115 680.08299 660.03125 675.76178 660.03125 670.86914 C 660.03125 666.22115 657.94591 662.06205 653.77539 658.39258 C 649.60483 654.72311 639.92882 651.25786 624.74805 647.99609 C 599.89157 642.53267 582.1674 635.27601 571.57422 626.22461 C 560.89762 617.17325 555.56055 605.63494 555.56055 591.60938 C 555.56055 582.39492 558.26967 573.70906 563.69141 565.55469 C 569.19652 557.31872 577.413 550.87846 588.33984 546.23047 C 599.3501 541.50092 614.40672 539.13477 633.50781 539.13477 z M 76.865234 542.19336 L 133.66797 542.19336 L 133.66797 721.50781 L 76.865234 721.50781 L 76.865234 542.19336 z M 156.0625 542.19336 L 215.36719 542.19336 L 256.65625 671.23633 L 297.32031 542.19336 L 354.87305 542.19336 L 286.80859 721.50781 L 225.37695 721.50781 L 156.0625 542.19336 z M 373.26562 542.19336 L 525.15625 542.19336 L 525.15625 580.47852 L 430.06836 580.47852 L 430.06836 608.97852 L 518.27539 608.97852 L 518.27539 645.55078 L 430.06836 645.55078 L 430.06836 680.89844 L 527.9082 680.89844 L 527.9082 721.50781 L 373.26562 721.50781 L 373.26562 542.19336 z M 443.91406 739.0957 C 450.4022 739.0957 455.49645 742.66502 459.19727 749.80469 C 462.92151 756.94436 465.68667 767.9099 467.49023 782.69922 L 453.43555 791.20898 C 452.94367 786.93793 452.42935 783.81405 451.89062 781.83789 C 451.00055 778.52304 449.91131 775.97437 448.62305 774.18945 C 447.33479 772.40454 445.89354 771.51172 444.30078 771.51172 C 440.69366 771.51172 437.93044 775.46255 436.00977 783.36719 C 434.55755 789.23192 433.83008 798.44378 433.83008 811.00195 C 433.83008 826.55624 434.69835 837.23417 436.43164 843.03516 C 438.16493 848.77239 440.59961 851.64062 443.73828 851.64062 C 446.78326 851.64062 449.07909 849.31369 450.625 844.66016 C 452.19433 840.00662 453.33052 833.24952 454.0332 824.38867 L 467.98242 835.86328 C 467.04551 846.50904 465.56906 855.40134 463.55469 862.54102 C 461.54032 869.68069 459.03329 875.06759 456.03516 878.70117 C 453.06045 882.33476 449.26665 884.15234 444.65234 884.15234 C 439.05427 884.15234 434.47434 881.95324 430.91406 877.55469 C 427.37721 873.09239 424.32066 865.28269 421.74414 854.12695 C 419.16762 842.97121 417.88086 828.69201 417.88086 811.28906 C 417.88086 788.08513 420.13954 770.26857 424.66016 757.83789 C 429.2042 745.34346 435.62236 739.0957 443.91406 739.0957 z M 663.85547 739.0957 C 670.34361 739.0957 675.43785 742.66502 679.13867 749.80469 C 682.86291 756.94436 685.62612 767.9099 687.42969 782.69922 L 673.37695 791.20898 C 672.88507 786.93793 672.3688 783.81405 671.83008 781.83789 C 670.94001 778.52304 669.85076 775.97437 668.5625 774.18945 C 667.27424 772.40454 665.83494 771.51172 664.24219 771.51172 C 660.63506 771.51172 657.87185 775.46255 655.95117 783.36719 C 654.49895 789.23192 653.77148 798.44378 653.77148 811.00195 C 653.77148 826.55624 654.6378 837.23417 656.37109 843.03516 C 658.10439 848.77239 660.54102 851.64062 663.67969 851.64062 C 666.72466 851.64062 669.0205 849.31369 670.56641 844.66016 C 672.13574 840.00662 673.27192 833.24952 673.97461 824.38867 L 687.92188 835.86328 C 686.98496 846.50904 685.51046 855.40134 683.49609 862.54102 C 681.48172 869.68069 678.97469 875.06759 675.97656 878.70117 C 673.00185 882.33476 669.20806 884.15234 664.59375 884.15234 C 658.99568 884.15234 654.41575 881.95324 650.85547 877.55469 C 647.31861 873.09239 644.26207 865.28269 641.68555 854.12695 C 639.10903 842.97121 637.82031 828.69201 637.82031 811.28906 C 637.82031 788.08513 640.08094 770.26857 644.60156 757.83789 C 649.1456 745.34346 655.56376 739.0957 663.85547 739.0957 z M 104.02539 741.48633 L 143.375 741.48633 L 143.375 771.60742 L 120.01172 771.60742 L 120.01172 796.08594 L 139.9668 796.08594 L 139.9668 824.38867 L 120.01172 824.38867 L 120.01172 881.66602 L 104.02539 881.66602 L 104.02539 741.48633 z M 159.43164 741.48633 L 176.78711 741.48633 L 196.14648 881.66602 L 179.49414 881.66602 L 176.96289 858.52539 L 158.83398 858.52539 L 156.33984 881.66602 L 140.07227 881.66602 L 159.43164 741.48633 z M 201.03125 741.48633 L 221.9707 741.48633 L 230.05078 826.7793 L 238.09766 741.48633 L 258.9668 741.48633 L 258.9668 881.66602 L 245.9668 881.66602 L 245.9668 774.76172 L 235.88477 881.66602 L 224.11328 881.66602 L 214.06641 774.76172 L 214.06641 881.66602 L 201.03125 881.66602 L 201.03125 741.48633 z M 269.71875 741.48633 L 285.66992 741.48633 L 285.66992 881.66602 L 269.71875 881.66602 L 269.71875 741.48633 z M 297.05273 741.48633 L 312.96875 741.48633 L 312.96875 847.14648 L 337.80859 847.14648 L 337.80859 881.66602 L 297.05273 881.66602 L 297.05273 741.48633 z M 334.50586 741.48633 L 352.17773 741.48633 L 362.57812 788.81836 L 372.97852 741.48633 L 390.54492 741.48633 L 370.51953 822.95508 L 370.51953 881.66602 L 354.56836 881.66602 L 354.56836 822.95508 L 334.50586 741.48633 z M 475.67578 741.48633 L 491.5918 741.48633 L 491.5918 847.14648 L 516.43164 847.14648 L 516.43164 881.66602 L 475.67578 881.66602 L 475.67578 741.48633 z M 524.37305 741.48633 L 540.32227 741.48633 L 540.32227 881.66602 L 524.37305 881.66602 L 524.37305 741.48633 z M 551.8125 741.48633 L 566.67383 741.48633 L 586.06836 819.03516 L 586.06836 741.48633 L 601.07031 741.48633 L 601.07031 881.66602 L 586.06836 881.66602 L 566.7793 804.69141 L 566.7793 881.66602 L 551.8125 881.66602 L 551.8125 741.48633 z M 612.34766 741.48633 L 628.29883 741.48633 L 628.29883 881.66602 L 612.34766 881.66602 L 612.34766 741.48633 z M 167.93359 777.82227 L 162.27734 828.21484 L 173.625 828.21484 L 167.93359 777.82227 z "
       transform="matrix(0.26458332,0,0,0.26458332,-6.9494465,17.835087)"
       id="rect1442" />
  </g>
</svg>
