<?xml version="1.0" encoding="UTF-8" standalone="no"?>
<!-- Created with Inkscape (http://www.inkscape.org/) -->

<svg
   xmlns:dc="http://purl.org/dc/elements/1.1/"
   xmlns:cc="http://creativecommons.org/ns#"
   xmlns:rdf="http://www.w3.org/1999/02/22-rdf-syntax-ns#"
   xmlns:svg="http://www.w3.org/2000/svg"
   xmlns="http://www.w3.org/2000/svg"
   xmlns:sodipodi="http://sodipodi.sourceforge.net/DTD/sodipodi-0.dtd"
   xmlns:inkscape="http://www.inkscape.org/namespaces/inkscape"
   width="791.94727"
   height="987.70312"
   viewBox="0 0 209.53604 261.32977"
   version="1.1"
   id="svg825"
   sodipodi:docname="st-foundation.svg"
   inkscape:version="0.92.3 (2405546, 2018-03-11)">
  <defs
     id="defs819" />
  <sodipodi:namedview
     id="base"
     pagecolor="#ffffff"
     bordercolor="#666666"
     borderopacity="1.0"
     inkscape:pageopacity="0.0"
     inkscape:pageshadow="2"
     inkscape:zoom="0.175"
     inkscape:cx="-731.26724"
     inkscape:cy="-19.131697"
     inkscape:document-units="px"
     inkscape:current-layer="layer1"
     showgrid="false"
     units="px"
     width="805.71484px"
     inkscape:pagecheckerboard="true"
     showborder="true"
     inkscape:window-width="1280"
     inkscape:window-height="725"
     inkscape:window-x="0"
     inkscape:window-y="0"
     inkscape:window-maximized="1"
     borderlayer="false"
     fit-margin-top="0"
     fit-margin-left="0"
     fit-margin-right="0"
     fit-margin-bottom="0" />
  <metadata
     id="metadata822">
    <rdf:RDF>
      <cc:Work
         rdf:about="">
        <dc:format>image/svg+xml</dc:format>
        <dc:type
           rdf:resource="http://purl.org/dc/dcmitype/StillImage" />
        <dc:title />
      </cc:Work>
    </rdf:RDF>
  </metadata>
  <g
     inkscape:label="Layer 1"
     inkscape:groupmode="layer"
     id="layer1"
     transform="translate(6.9494465,-17.835087)">
    <path
       style="fill:#ff0000;fill-opacity:1;stroke:none;stroke-width:0.92304534"
       d="M 22.855469 0 C 10.192603 0 4.7369516e-15 8.7154268 0 19.542969 L 0 494.42188 L 791.94727 494.42188 L 791.94727 19.542969 C 791.94727 8.7154268 781.7527 0 769.08984 0 L 22.855469 0 z M 231.30078 102.10156 C 276.71376 102.10156 311.29772 110.58542 335.05469 127.55469 C 358.97328 144.36233 373.19557 171.19151 377.7207 208.03906 L 274.20898 214.09961 C 271.46157 198.10002 265.64257 186.46395 256.75391 179.19141 C 248.02686 171.91887 235.90734 168.28125 220.39258 168.28125 C 207.62523 168.28125 198.0094 171.02863 191.54492 176.52344 C 185.08043 181.85664 181.84766 188.40277 181.84766 196.16016 C 181.84766 201.81656 184.51446 206.90651 189.84766 211.43164 C 195.01923 216.11839 207.30186 220.48314 226.69531 224.52344 C 274.69409 234.86661 309.0363 245.37072 329.72266 256.03711 C 350.5706 266.5419 365.68119 279.63222 375.05469 295.30859 C 384.5898 310.98496 389.35742 328.52066 389.35742 347.91406 C 389.35742 370.70136 383.05496 391.70958 370.44922 410.94141 C 357.84348 430.17323 340.22724 444.80041 317.60156 454.82031 C 294.97587 464.67864 266.45073 469.60742 232.02734 469.60742 C 171.58444 469.60742 129.72722 457.97136 106.45508 434.69922 C 83.182931 411.42708 70.012034 381.85249 66.941406 345.97461 L 171.42383 339.42969 C 173.6864 356.39897 178.29091 369.32615 185.24023 378.21484 C 196.55309 392.59829 212.71505 399.79102 233.72461 399.79102 C 249.40098 399.79102 261.44187 396.15534 269.8457 388.88281 C 278.41114 381.44867 282.69336 372.88227 282.69336 363.18555 C 282.69336 353.97363 278.65287 345.73151 270.57227 338.45898 C 262.49167 331.18642 243.74542 324.31794 214.33203 317.85352 C 166.17163 307.02543 131.82747 292.64208 111.30273 274.70312 C 90.616412 256.76419 80.273437 233.89689 80.273438 206.09961 C 80.273438 187.83745 85.526468 170.6241 96.03125 154.46289 C 106.69765 138.14008 122.61593 125.374 143.78711 116.16211 C 165.11991 106.78861 194.29162 102.10156 231.30078 102.10156 z M 557.35352 108.16211 L 557.35352 206.09961 L 611.6543 206.09961 L 611.6543 278.09766 L 557.35352 278.09766 L 557.35352 369.48828 C 557.35352 380.4779 558.40294 387.75116 560.50391 391.30664 C 563.73616 396.80143 569.39402 399.54883 577.47461 399.54883 C 584.74718 399.54883 594.92703 397.44802 608.01758 393.24609 L 615.29102 461.36523 C 590.88759 466.69845 568.10083 469.36523 546.92969 469.36523 C 522.36465 469.36523 504.26302 466.21297 492.62695 459.91016 C 480.99088 453.60723 472.34586 444.07208 466.68945 431.30469 C 461.19462 418.37575 458.44727 397.52865 458.44727 368.76172 L 458.44727 278.09766 L 422.08398 278.09766 L 422.08398 206.09961 L 458.44727 206.09961 L 458.44727 158.82812 L 557.35352 108.16211 z M 619.29102 381.36523 L 713.57617 381.36523 L 713.57617 461.36523 L 619.29102 461.36523 L 619.29102 381.36523 z M 0 517.2793 L 0 968.16016 C 0 978.9876 10.192603 987.70312 22.855469 987.70312 L 769.08984 987.70312 C 781.7527 987.70312 791.94727 978.9876 791.94727 968.16016 L 791.94727 517.2793 L 0 517.2793 z M 633.50781 539.13477 C 656.94629 539.13477 674.79525 543.41637 687.05664 551.97852 C 699.40145 560.45906 706.7426 573.99586 709.07812 592.58789 L 655.65234 595.64453 C 654.23434 587.57172 651.23212 581.70072 646.64453 578.03125 C 642.14035 574.36174 635.88441 572.52734 627.87695 572.52734 C 621.2875 572.52734 616.3247 573.91304 612.98828 576.68555 C 609.65183 579.3765 607.98242 582.67963 607.98242 586.59375 C 607.98242 589.44778 609.35877 592.01558 612.11133 594.29883 C 614.78047 596.6636 621.12157 598.8657 631.13086 600.9043 C 655.90393 606.12311 673.62809 611.42471 684.30469 616.80664 C 695.0647 622.10694 702.86334 628.71134 707.70117 636.62109 C 712.62242 644.53085 715.08203 653.37879 715.08203 663.16406 C 715.08203 674.66173 711.83026 685.26113 705.32422 694.96484 C 698.81814 704.66859 689.72636 712.04978 678.04883 717.10547 C 666.3713 722.07967 651.64935 724.56641 633.88281 724.56641 C 602.68712 724.56641 581.08345 718.69544 569.07227 706.95312 C 557.06112 695.21081 550.26253 680.28828 548.67773 662.18555 L 602.60352 658.88281 C 603.77128 667.44492 606.14768 673.96819 609.73438 678.45312 C 615.57314 685.71054 623.91439 689.33984 634.75781 689.33984 C 642.84869 689.33984 649.063 687.50349 653.40039 683.83398 C 657.82115 680.08299 660.03125 675.76178 660.03125 670.86914 C 660.03125 666.22115 657.94591 662.06205 653.77539 658.39258 C 649.60483 654.72311 639.92882 651.25786 624.74805 647.99609 C 599.89157 642.53267 582.1674 635.27601 571.57422 626.22461 C 560.89762 617.17325 555.56055 605.63494 555.56055 591.60938 C 555.56055 582.39492 558.26967 573.70906 563.69141 565.55469 C 569.19652 557.31872 577.413 550.87846 588.33984 546.23047 C 599.3501 541.50092 614.40672 539.13477 633.50781 539.13477 z M 76.865234 542.19336 L 133.66797 542.19336 L 133.66797 721.50781 L 76.865234 721.50781 L 76.865234 542.19336 z M 156.0625 542.19336 L 215.36719 542.19336 L 256.65625 671.23633 L 297.32031 542.19336 L 354.87305 542.19336 L 286.80859 721.50781 L 225.37695 721.50781 L 156.0625 542.19336 z M 373.26562 542.19336 L 525.15625 542.19336 L 525.15625 580.47852 L 430.06836 580.47852 L 430.06836 608.97852 L 518.27539 608.97852 L 518.27539 645.55078 L 430.06836 645.55078 L 430.06836 680.89844 L 527.9082 680.89844 L 527.9082 721.50781 L 373.26562 721.50781 L 373.26562 542.19336 z M 177.17578 734.49414 C 186.49692 734.49414 193.68007 741.01965 198.72266 754.07422 C 203.76524 767.06252 206.28711 785.28763 206.28711 808.74609 C 206.28711 825.77667 205.17857 839.75738 202.96289 850.69141 C 200.77268 861.55917 197.5888 870.04212 193.41211 876.13867 C 189.26089 882.16895 184.07933 885.18359 177.86523 885.18359 C 171.54927 885.18359 166.31528 882.56711 162.16406 877.33203 C 158.03831 872.09695 154.68942 863.8121 152.11719 852.48047 C 149.54496 841.14884 148.25781 826.96808 148.25781 809.9375 C 148.25781 786.14771 150.80492 767.62641 155.89844 754.37305 C 160.99196 741.11968 168.08385 734.49414 177.17578 734.49414 z M 572.94336 734.49414 C 582.2645 734.49414 589.4457 741.01965 594.48828 754.07422 C 599.53087 767.06252 602.05273 785.28763 602.05273 808.74609 C 602.05273 825.77667 600.9442 839.75738 598.72852 850.69141 C 596.5383 861.55917 593.35637 870.04212 589.17969 876.13867 C 585.02847 882.16895 579.84495 885.18359 573.63086 885.18359 C 567.31489 885.18359 562.08091 882.56711 557.92969 877.33203 C 553.80394 872.09695 550.45504 863.8121 547.88281 852.48047 C 545.31058 841.14884 544.02539 826.96808 544.02539 809.9375 C 544.02539 786.14771 546.57249 767.62641 551.66602 754.37305 C 556.75954 741.11968 563.85142 734.49414 572.94336 734.49414 z M 98.251953 736.97852 L 141.03906 736.97852 L 141.03906 768.28906 L 115.63477 768.28906 L 115.63477 793.73633 L 137.33203 793.73633 L 137.33203 823.1582 L 115.63477 823.1582 L 115.63477 882.69922 L 98.251953 882.69922 L 98.251953 736.97852 z M 215.72266 736.97852 L 232.98828 736.97852 L 232.98828 825.94141 C 232.98828 833.89343 233.8289 840.12276 235.50977 844.62891 C 237.2161 849.06878 239.57295 851.28906 242.57812 851.28906 C 245.55783 851.28906 247.8875 849.10213 249.56836 844.72852 C 251.27469 840.28864 252.12695 834.02596 252.12695 825.94141 L 252.12695 736.97852 L 269.39453 736.97852 L 269.39453 823.85352 C 269.39453 832.4682 268.8723 840.61969 267.82812 848.30664 C 266.80942 855.92733 265.19224 862.61955 262.97656 868.38477 C 260.78635 874.08371 258.48192 878.09277 256.0625 880.41211 C 252.70078 883.65918 248.66463 885.2832 243.95312 885.2832 C 241.22809 885.2832 238.24806 884.78697 235.01367 883.79297 C 231.80475 882.79897 229.11787 880.84348 226.95312 877.92773 C 224.78838 874.94573 222.80234 870.73857 220.99414 865.30469 C 219.21141 859.87081 217.98833 854.27107 217.32617 848.50586 C 216.25653 839.2285 215.72266 831.01033 215.72266 823.85352 L 215.72266 736.97852 z M 281.04688 736.97852 L 297.20508 736.97852 L 318.29297 817.5918 L 318.29297 736.97852 L 334.60547 736.97852 L 334.60547 882.69922 L 318.29297 882.69922 L 297.32031 802.68164 L 297.32031 882.69922 L 281.04688 882.69922 L 281.04688 736.97852 z M 346.4082 736.97852 L 372.11914 736.97852 C 377.18719 736.97852 381.27381 738.76729 384.38086 742.3457 C 387.51337 745.92411 390.09931 751.059 392.13672 757.75195 C 394.17413 764.4449 395.65153 772.23157 396.56836 781.11133 C 397.48519 789.99108 397.94336 799.40177 397.94336 809.3418 C 397.94336 824.9145 397.25416 837.00836 395.87891 845.62305 C 394.52912 854.17147 392.64598 861.36188 390.22656 867.19336 C 387.80714 872.95857 385.20956 876.80092 382.43359 878.72266 C 378.63892 881.37333 375.20072 882.69922 372.11914 882.69922 L 346.4082 882.69922 L 346.4082 736.97852 z M 419.0293 736.97852 L 437.90039 736.97852 L 458.95117 882.69922 L 440.84375 882.69922 L 438.0918 858.64453 L 418.38086 858.64453 L 415.66797 882.69922 L 397.98047 882.69922 L 419.0293 736.97852 z M 455.24414 736.97852 L 507.84766 736.97852 L 507.84766 772.96094 L 490.19922 772.96094 L 490.19922 882.69922 L 472.89453 882.69922 L 472.89453 772.96094 L 455.24414 772.96094 L 455.24414 736.97852 z M 516.48242 736.97852 L 533.82422 736.97852 L 533.82422 882.69922 L 516.48242 882.69922 L 516.48242 736.97852 z M 611.56445 736.97852 L 627.72461 736.97852 L 648.81055 817.5918 L 648.81055 736.97852 L 665.12305 736.97852 L 665.12305 882.69922 L 648.81055 882.69922 L 627.83789 802.68164 L 627.83789 882.69922 L 611.56445 882.69922 L 611.56445 736.97852 z M 177.13867 768.58789 C 173.64961 768.58789 170.84819 771.80063 168.73438 778.22852 C 166.62056 784.6564 165.56445 795.29295 165.56445 810.13672 C 165.56445 824.84796 166.60697 835.41782 168.69531 841.8457 C 170.80912 848.27359 173.67462 851.48828 177.29102 851.48828 C 181.00929 851.48828 183.88837 848.34027 185.92578 842.04492 C 187.96319 835.74957 188.98047 824.45008 188.98047 808.14844 C 188.98047 794.4312 187.91076 784.42621 185.77148 778.13086 C 183.65767 771.76924 180.78054 768.58789 177.13867 768.58789 z M 572.9043 768.58789 C 569.41524 768.58789 566.61381 771.80063 564.5 778.22852 C 562.38619 784.6564 561.33008 795.29295 561.33008 810.13672 C 561.33008 824.84796 562.37455 835.41782 564.46289 841.8457 C 566.5767 848.27359 569.44219 851.48828 573.05859 851.48828 C 576.77686 851.48828 579.654 848.34027 581.69141 842.04492 C 583.72881 835.74957 584.74805 824.45008 584.74805 808.14844 C 584.74805 794.4312 583.67834 784.42621 581.53906 778.13086 C 579.42525 771.76924 576.54616 768.58789 572.9043 768.58789 z M 363.71484 769.97852 L 363.71484 849.59961 L 367.95508 849.59961 C 371.57148 849.59961 374.14382 848.57185 375.67188 846.51758 C 377.19993 844.39704 378.39582 840.7528 379.26172 835.58398 C 380.12762 830.3489 380.56055 821.89929 380.56055 810.23633 C 380.56055 794.79616 379.59374 784.22629 377.6582 778.52734 C 375.72267 772.8284 372.51355 769.97852 368.03125 769.97852 L 363.71484 769.97852 z M 428.27539 774.75 L 422.125 827.13477 L 434.46289 827.13477 L 428.27539 774.75 z "
       transform="matrix(0.26458332,0,0,0.26458332,-6.9494465,17.835087)"
       id="rect1442" />
  </g>
</svg>
