<?xml version="1.0" encoding="UTF-8" standalone="no"?>
<!-- Created with Inkscape (http://www.inkscape.org/) -->

<svg
   xmlns:dc="http://purl.org/dc/elements/1.1/"
   xmlns:cc="http://creativecommons.org/ns#"
   xmlns:rdf="http://www.w3.org/1999/02/22-rdf-syntax-ns#"
   xmlns:svg="http://www.w3.org/2000/svg"
   xmlns="http://www.w3.org/2000/svg"
   xmlns:sodipodi="http://sodipodi.sourceforge.net/DTD/sodipodi-0.dtd"
   xmlns:inkscape="http://www.inkscape.org/namespaces/inkscape"
   width="791.94727"
   height="987.70312"
   viewBox="0 0 209.53604 261.32977"
   version="1.1"
   id="svg825"
   sodipodi:docname="st-fertility.svg"
   inkscape:version="0.92.3 (2405546, 2018-03-11)">
  <defs
     id="defs819" />
  <sodipodi:namedview
     id="base"
     pagecolor="#ffffff"
     bordercolor="#666666"
     borderopacity="1.0"
     inkscape:pageopacity="0.0"
     inkscape:pageshadow="2"
     inkscape:zoom="0.24748737"
     inkscape:cx="-619.52207"
     inkscape:cy="73.283019"
     inkscape:document-units="px"
     inkscape:current-layer="layer1"
     showgrid="false"
     units="px"
     width="805.71484px"
     inkscape:pagecheckerboard="true"
     showborder="true"
     inkscape:window-width="1280"
     inkscape:window-height="725"
     inkscape:window-x="0"
     inkscape:window-y="0"
     inkscape:window-maximized="1"
     borderlayer="false"
     fit-margin-top="0"
     fit-margin-left="0"
     fit-margin-right="0"
     fit-margin-bottom="0" />
  <metadata
     id="metadata822">
    <rdf:RDF>
      <cc:Work
         rdf:about="">
        <dc:format>image/svg+xml</dc:format>
        <dc:type
           rdf:resource="http://purl.org/dc/dcmitype/StillImage" />
        <dc:title />
      </cc:Work>
    </rdf:RDF>
  </metadata>
  <g
     inkscape:label="Layer 1"
     inkscape:groupmode="layer"
     id="layer1"
     transform="translate(6.9494465,-17.835087)">
    <path
       style="fill:#ff0000;fill-opacity:1;stroke:none;stroke-width:0.92304534"
       d="M 22.855469 0 C 10.192603 0 -4.7369516e-15 8.7154268 0 19.542969 L 0 494.42188 L 791.94727 494.42188 L 791.94727 19.542969 C 791.94727 8.7154268 781.7527 0 769.08984 0 L 22.855469 0 z M 231.30078 102.10156 C 276.71376 102.10156 311.29772 110.58542 335.05469 127.55469 C 358.97328 144.36233 373.19557 171.19151 377.7207 208.03906 L 274.20898 214.09961 C 271.46157 198.10002 265.64257 186.46395 256.75391 179.19141 C 248.02686 171.91887 235.90734 168.28125 220.39258 168.28125 C 207.62523 168.28125 198.0094 171.02863 191.54492 176.52344 C 185.08043 181.85664 181.84766 188.40277 181.84766 196.16016 C 181.84766 201.81656 184.51446 206.90651 189.84766 211.43164 C 195.01923 216.11839 207.30186 220.48314 226.69531 224.52344 C 274.69409 234.86661 309.0363 245.37072 329.72266 256.03711 C 350.5706 266.5419 365.68119 279.63222 375.05469 295.30859 C 384.5898 310.98496 389.35742 328.52066 389.35742 347.91406 C 389.35742 370.70136 383.05496 391.70958 370.44922 410.94141 C 357.84348 430.17323 340.22724 444.80041 317.60156 454.82031 C 294.97587 464.67864 266.45073 469.60742 232.02734 469.60742 C 171.58444 469.60742 129.72722 457.97136 106.45508 434.69922 C 83.182931 411.42708 70.012034 381.85249 66.941406 345.97461 L 171.42383 339.42969 C 173.6864 356.39897 178.29091 369.32615 185.24023 378.21484 C 196.55309 392.59829 212.71505 399.79102 233.72461 399.79102 C 249.40098 399.79102 261.44187 396.15534 269.8457 388.88281 C 278.41114 381.44867 282.69336 372.88227 282.69336 363.18555 C 282.69336 353.97363 278.65287 345.73151 270.57227 338.45898 C 262.49167 331.18642 243.74542 324.31794 214.33203 317.85352 C 166.17163 307.02543 131.82747 292.64208 111.30273 274.70312 C 90.616412 256.76419 80.273437 233.89689 80.273438 206.09961 C 80.273438 187.83745 85.526468 170.6241 96.03125 154.46289 C 106.69765 138.14008 122.61593 125.374 143.78711 116.16211 C 165.11991 106.78861 194.29162 102.10156 231.30078 102.10156 z M 557.35352 108.16211 L 557.35352 206.09961 L 611.6543 206.09961 L 611.6543 278.09766 L 557.35352 278.09766 L 557.35352 369.48828 C 557.35352 380.4779 558.40294 387.75116 560.50391 391.30664 C 563.73616 396.80143 569.39402 399.54883 577.47461 399.54883 C 584.74718 399.54883 594.92703 397.44802 608.01758 393.24609 L 615.29102 461.36523 C 590.88759 466.69845 568.10083 469.36523 546.92969 469.36523 C 522.36465 469.36523 504.26302 466.21297 492.62695 459.91016 C 480.99088 453.60723 472.34586 444.07208 466.68945 431.30469 C 461.19462 418.37575 458.44727 397.52865 458.44727 368.76172 L 458.44727 278.09766 L 422.08398 278.09766 L 422.08398 206.09961 L 458.44727 206.09961 L 458.44727 158.82812 L 557.35352 108.16211 z M 619.29102 381.36523 L 713.57617 381.36523 L 713.57617 461.36523 L 619.29102 461.36523 L 619.29102 381.36523 z M 0 517.2793 L 0 968.16016 C 0 978.9876 10.192603 987.70312 22.855469 987.70312 L 769.08984 987.70312 C 781.7527 987.70312 791.94727 978.9876 791.94727 968.16016 L 791.94727 517.2793 L 0 517.2793 z M 633.50781 539.13477 C 656.94629 539.13477 674.79525 543.41637 687.05664 551.97852 C 699.40145 560.45906 706.7426 573.99586 709.07812 592.58789 L 655.65234 595.64453 C 654.23434 587.57172 651.23212 581.70072 646.64453 578.03125 C 642.14035 574.36174 635.88441 572.52734 627.87695 572.52734 C 621.2875 572.52734 616.3247 573.91304 612.98828 576.68555 C 609.65183 579.3765 607.98242 582.67963 607.98242 586.59375 C 607.98242 589.44778 609.35877 592.01558 612.11133 594.29883 C 614.78047 596.6636 621.12157 598.8657 631.13086 600.9043 C 655.90393 606.12311 673.62809 611.42471 684.30469 616.80664 C 695.0647 622.10694 702.86334 628.71134 707.70117 636.62109 C 712.62242 644.53085 715.08203 653.37879 715.08203 663.16406 C 715.08203 674.66173 711.83026 685.26113 705.32422 694.96484 C 698.81814 704.66859 689.72636 712.04978 678.04883 717.10547 C 666.3713 722.07967 651.64935 724.56641 633.88281 724.56641 C 602.68712 724.56641 581.08345 718.69544 569.07227 706.95312 C 557.06112 695.21081 550.26253 680.28828 548.67773 662.18555 L 602.60352 658.88281 C 603.77128 667.44492 606.14768 673.96819 609.73438 678.45312 C 615.57314 685.71054 623.91439 689.33984 634.75781 689.33984 C 642.84869 689.33984 649.063 687.50349 653.40039 683.83398 C 657.82115 680.08299 660.03125 675.76178 660.03125 670.86914 C 660.03125 666.22115 657.94591 662.06205 653.77539 658.39258 C 649.60483 654.72311 639.92882 651.25786 624.74805 647.99609 C 599.89157 642.53267 582.1674 635.27601 571.57422 626.22461 C 560.89762 617.17325 555.56055 605.63494 555.56055 591.60938 C 555.56055 582.39492 558.26967 573.70906 563.69141 565.55469 C 569.19652 557.31872 577.413 550.87846 588.33984 546.23047 C 599.3501 541.50092 614.40672 539.13477 633.50781 539.13477 z M 76.865234 542.19336 L 133.66797 542.19336 L 133.66797 721.50781 L 76.865234 721.50781 L 76.865234 542.19336 z M 156.0625 542.19336 L 215.36719 542.19336 L 256.65625 671.23633 L 297.32031 542.19336 L 354.87305 542.19336 L 286.80859 721.50781 L 225.37695 721.50781 L 156.0625 542.19336 z M 373.26562 542.19336 L 525.15625 542.19336 L 525.15625 580.47852 L 430.06836 580.47852 L 430.06836 608.97852 L 518.27539 608.97852 L 518.27539 645.55078 L 430.06836 645.55078 L 430.06836 680.89844 L 527.9082 680.89844 L 527.9082 721.50781 L 373.26562 721.50781 L 373.26562 542.19336 z M 101.7793 738.2207 L 137.29492 738.2207 L 137.29492 770.46484 L 116.20703 770.46484 L 116.20703 796.67188 L 134.21875 796.67188 L 134.21875 826.97266 L 116.20703 826.97266 L 116.20703 888.29102 L 101.7793 888.29102 L 101.7793 738.2207 z M 145.06445 738.2207 L 183.5625 738.2207 L 183.5625 770.26172 L 159.46094 770.26172 L 159.46094 794.11328 L 181.81836 794.11328 L 181.81836 824.7207 L 159.46094 824.7207 L 159.46094 854.30469 L 184.25977 854.30469 L 184.25977 888.29102 L 145.06445 888.29102 L 145.06445 738.2207 z M 192.2207 738.2207 L 216.16211 738.2207 C 220.60171 738.2207 223.99515 739.44748 226.3418 741.9043 C 228.68844 744.36111 230.57999 748.93504 232.01758 755.62305 C 233.45516 762.2428 234.17383 770.32852 234.17383 779.88281 C 234.17383 788.20869 233.62472 795.40862 232.52539 801.48242 C 231.42606 807.48798 229.91406 812.36762 227.99023 816.12109 C 226.76406 818.50967 225.0825 820.48896 222.94727 822.05859 C 224.65968 823.90121 225.90724 825.74332 226.68945 827.58594 C 227.21798 828.81435 227.97903 831.4423 228.97266 835.46875 C 229.98742 839.4952 230.6637 842.60132 231.00195 844.78516 L 237.94727 888.29102 L 221.71094 888.29102 L 214.03711 842.42969 C 213.06462 836.49238 212.19857 832.63765 211.4375 830.86328 C 210.40159 828.54295 209.22676 827.38086 207.91602 827.38086 L 206.64844 827.38086 L 206.64844 888.29102 L 192.2207 888.29102 L 192.2207 738.2207 z M 238.74023 738.2207 L 282.40625 738.2207 L 282.40625 775.27734 L 267.75586 775.27734 L 267.75586 888.29102 L 253.39062 888.29102 L 253.39062 775.27734 L 238.74023 775.27734 L 238.74023 738.2207 z M 289.50977 738.2207 L 303.9082 738.2207 L 303.9082 888.29102 L 289.50977 888.29102 L 289.50977 738.2207 z M 314.18164 738.2207 L 328.54688 738.2207 L 328.54688 851.33594 L 350.9668 851.33594 L 350.9668 888.29102 L 314.18164 888.29102 L 314.18164 738.2207 z M 358.13477 738.2207 L 372.53125 738.2207 L 372.53125 888.29102 L 358.13477 888.29102 L 358.13477 738.2207 z M 379.53906 738.2207 L 423.20508 738.2207 L 423.20508 775.27734 L 408.55469 775.27734 L 408.55469 888.29102 L 394.18945 888.29102 L 394.18945 775.27734 L 379.53906 775.27734 L 379.53906 738.2207 z M 425.04492 738.2207 L 440.99609 738.2207 L 450.38281 788.89258 L 459.76953 738.2207 L 475.625 738.2207 L 457.54883 825.4375 L 457.54883 888.29102 L 443.15234 888.29102 L 443.15234 825.4375 L 425.04492 738.2207 z M 501.94531 738.2207 L 516.2793 738.2207 L 516.2793 829.83789 C 516.2793 838.02728 516.97579 844.44333 518.37109 849.08398 C 519.78754 853.65639 521.74365 855.94141 524.23828 855.94141 C 526.71177 855.94141 528.64571 853.68971 530.04102 849.18555 C 531.45746 844.61314 532.16602 838.16377 532.16602 829.83789 L 532.16602 738.2207 L 546.5 738.2207 L 546.5 827.68945 C 546.5 836.56129 546.066 844.95468 545.19922 852.87109 C 544.35358 860.71926 543.01114 867.61152 541.17188 873.54883 C 539.35375 879.41789 537.44199 883.54697 535.43359 885.93555 C 532.64299 889.27955 529.29194 890.95117 525.38086 890.95117 C 523.11878 890.95117 520.64389 890.43969 517.95898 889.41602 C 515.29522 888.39234 513.06651 886.37973 511.26953 883.37695 C 509.47255 880.30593 507.82327 875.97304 506.32227 870.37695 C 504.8424 864.78087 503.82701 859.01348 503.27734 853.07617 C 502.38942 843.52188 501.94531 835.05991 501.94531 827.68945 L 501.94531 738.2207 z M 556.17188 738.2207 L 569.58594 738.2207 L 587.08984 821.24023 L 587.08984 738.2207 L 600.63086 738.2207 L 600.63086 888.29102 L 587.08984 888.29102 L 569.68164 805.88477 L 569.68164 888.29102 L 556.17188 888.29102 L 556.17188 738.2207 z M 610.81055 738.2207 L 625.20703 738.2207 L 625.20703 888.29102 L 610.81055 888.29102 L 610.81055 738.2207 z M 632.2168 738.2207 L 675.88281 738.2207 L 675.88281 775.27734 L 661.23242 775.27734 L 661.23242 888.29102 L 646.86719 888.29102 L 646.86719 775.27734 L 632.2168 775.27734 L 632.2168 738.2207 z M 206.64844 768.52148 L 206.64844 799.02539 L 212.70508 799.02539 C 213.36045 799.02539 214.63017 798.34341 216.51172 796.97852 C 217.46306 796.36431 218.23422 794.79459 218.82617 792.26953 C 219.43926 789.74447 219.74609 786.84412 219.74609 783.56836 C 219.74609 778.72297 219.2697 775.00346 218.31836 772.41016 C 217.36702 769.81685 215.58046 768.52148 212.95898 768.52148 L 206.64844 768.52148 z "
       transform="matrix(0.26458332,0,0,0.26458332,-6.9494465,17.835087)"
       id="rect1442" />
  </g>
</svg>
