<?xml version="1.0" encoding="UTF-8" standalone="no"?>
<!-- Created with Inkscape (http://www.inkscape.org/) -->

<svg
   xmlns:dc="http://purl.org/dc/elements/1.1/"
   xmlns:cc="http://creativecommons.org/ns#"
   xmlns:rdf="http://www.w3.org/1999/02/22-rdf-syntax-ns#"
   xmlns:svg="http://www.w3.org/2000/svg"
   xmlns="http://www.w3.org/2000/svg"
   xmlns:sodipodi="http://sodipodi.sourceforge.net/DTD/sodipodi-0.dtd"
   xmlns:inkscape="http://www.inkscape.org/namespaces/inkscape"
   width="791.94727"
   height="987.70312"
   viewBox="0 0 209.53604 261.32977"
   version="1.1"
   id="svg825"
   sodipodi:docname="st-healthcare.svg"
   inkscape:version="0.92.3 (2405546, 2018-03-11)">
  <defs
     id="defs819" />
  <sodipodi:namedview
     id="base"
     pagecolor="#ffffff"
     bordercolor="#666666"
     borderopacity="1.0"
     inkscape:pageopacity="0.0"
     inkscape:pageshadow="2"
     inkscape:zoom="0.7"
     inkscape:cx="252.01717"
     inkscape:cy="352.56519"
     inkscape:document-units="px"
     inkscape:current-layer="layer1"
     showgrid="false"
     units="px"
     width="805.71484px"
     inkscape:pagecheckerboard="true"
     showborder="true"
     inkscape:window-width="1280"
     inkscape:window-height="725"
     inkscape:window-x="0"
     inkscape:window-y="0"
     inkscape:window-maximized="1"
     borderlayer="false"
     fit-margin-top="0"
     fit-margin-left="0"
     fit-margin-right="0"
     fit-margin-bottom="0" />
  <metadata
     id="metadata822">
    <rdf:RDF>
      <cc:Work
         rdf:about="">
        <dc:format>image/svg+xml</dc:format>
        <dc:type
           rdf:resource="http://purl.org/dc/dcmitype/StillImage" />
        <dc:title />
      </cc:Work>
    </rdf:RDF>
  </metadata>
  <g
     inkscape:label="Layer 1"
     inkscape:groupmode="layer"
     id="layer1"
     transform="translate(6.9494465,-17.835087)">
    <path
       style="fill:#ff0000;fill-opacity:1;stroke:none;stroke-width:0.92304534"
       d="M 22.855469 0 C 10.192603 0 4.7369516e-15 8.7154268 0 19.542969 L 0 494.42188 L 791.94727 494.42188 L 791.94727 19.542969 C 791.94727 8.7154268 781.7527 0 769.08984 0 L 22.855469 0 z M 231.30078 102.10156 C 276.71376 102.10156 311.29772 110.58542 335.05469 127.55469 C 358.97328 144.36233 373.19557 171.19151 377.7207 208.03906 L 274.20898 214.09961 C 271.46157 198.10002 265.64257 186.46395 256.75391 179.19141 C 248.02686 171.91887 235.90734 168.28125 220.39258 168.28125 C 207.62523 168.28125 198.0094 171.02863 191.54492 176.52344 C 185.08043 181.85664 181.84766 188.40277 181.84766 196.16016 C 181.84766 201.81656 184.51446 206.90651 189.84766 211.43164 C 195.01923 216.11839 207.30186 220.48314 226.69531 224.52344 C 274.69409 234.86661 309.0363 245.37072 329.72266 256.03711 C 350.5706 266.5419 365.68119 279.63222 375.05469 295.30859 C 384.5898 310.98496 389.35742 328.52066 389.35742 347.91406 C 389.35742 370.70136 383.05496 391.70958 370.44922 410.94141 C 357.84348 430.17323 340.22724 444.80041 317.60156 454.82031 C 294.97587 464.67864 266.45073 469.60742 232.02734 469.60742 C 171.58444 469.60742 129.72722 457.97136 106.45508 434.69922 C 83.182931 411.42708 70.012034 381.85249 66.941406 345.97461 L 171.42383 339.42969 C 173.6864 356.39897 178.29091 369.32615 185.24023 378.21484 C 196.55309 392.59829 212.71505 399.79102 233.72461 399.79102 C 249.40098 399.79102 261.44187 396.15534 269.8457 388.88281 C 278.41114 381.44867 282.69336 372.88227 282.69336 363.18555 C 282.69336 353.97363 278.65287 345.73151 270.57227 338.45898 C 262.49167 331.18642 243.74542 324.31794 214.33203 317.85352 C 166.17163 307.02543 131.82747 292.64208 111.30273 274.70312 C 90.616412 256.76419 80.273437 233.89689 80.273438 206.09961 C 80.273438 187.83745 85.526468 170.6241 96.03125 154.46289 C 106.69765 138.14008 122.61593 125.374 143.78711 116.16211 C 165.11991 106.78861 194.29162 102.10156 231.30078 102.10156 z M 557.35352 108.16211 L 557.35352 206.09961 L 611.6543 206.09961 L 611.6543 278.09766 L 557.35352 278.09766 L 557.35352 369.48828 C 557.35352 380.4779 558.40294 387.75116 560.50391 391.30664 C 563.73616 396.80143 569.39402 399.54883 577.47461 399.54883 C 584.74718 399.54883 594.92703 397.44802 608.01758 393.24609 L 615.29102 461.36523 C 590.88759 466.69845 568.10083 469.36523 546.92969 469.36523 C 522.36465 469.36523 504.26302 466.21297 492.62695 459.91016 C 480.99088 453.60723 472.34586 444.07208 466.68945 431.30469 C 461.19462 418.37575 458.44727 397.52865 458.44727 368.76172 L 458.44727 278.09766 L 422.08398 278.09766 L 422.08398 206.09961 L 458.44727 206.09961 L 458.44727 158.82812 L 557.35352 108.16211 z M 619.29102 381.36523 L 713.57617 381.36523 L 713.57617 461.36523 L 619.29102 461.36523 L 619.29102 381.36523 z M 0 517.2793 L 0 968.16016 C 0 978.9876 10.192603 987.70312 22.855469 987.70312 L 769.08984 987.70312 C 781.7527 987.70312 791.94727 978.9876 791.94727 968.16016 L 791.94727 517.2793 L 0 517.2793 z M 633.50781 539.13477 C 656.94629 539.13477 674.79525 543.41637 687.05664 551.97852 C 699.40145 560.45906 706.7426 573.99586 709.07812 592.58789 L 655.65234 595.64453 C 654.23434 587.57172 651.23212 581.70072 646.64453 578.03125 C 642.14035 574.36174 635.88441 572.52734 627.87695 572.52734 C 621.2875 572.52734 616.3247 573.91304 612.98828 576.68555 C 609.65183 579.3765 607.98242 582.67963 607.98242 586.59375 C 607.98242 589.44778 609.35877 592.01558 612.11133 594.29883 C 614.78047 596.6636 621.12157 598.8657 631.13086 600.9043 C 655.90393 606.12311 673.62809 611.42471 684.30469 616.80664 C 695.0647 622.10694 702.86334 628.71134 707.70117 636.62109 C 712.62242 644.53085 715.08203 653.37879 715.08203 663.16406 C 715.08203 674.66173 711.83026 685.26113 705.32422 694.96484 C 698.81814 704.66859 689.72636 712.04978 678.04883 717.10547 C 666.3713 722.07967 651.64935 724.56641 633.88281 724.56641 C 602.68712 724.56641 581.08345 718.69544 569.07227 706.95312 C 557.06112 695.21081 550.26253 680.28828 548.67773 662.18555 L 602.60352 658.88281 C 603.77128 667.44492 606.14768 673.96819 609.73438 678.45312 C 615.57314 685.71054 623.91439 689.33984 634.75781 689.33984 C 642.84869 689.33984 649.063 687.50349 653.40039 683.83398 C 657.82115 680.08299 660.03125 675.76178 660.03125 670.86914 C 660.03125 666.22115 657.94591 662.06205 653.77539 658.39258 C 649.60483 654.72311 639.92882 651.25786 624.74805 647.99609 C 599.89157 642.53267 582.1674 635.27601 571.57422 626.22461 C 560.89762 617.17325 555.56055 605.63494 555.56055 591.60938 C 555.56055 582.39492 558.26967 573.70906 563.69141 565.55469 C 569.19652 557.31872 577.413 550.87846 588.33984 546.23047 C 599.3501 541.50092 614.40672 539.13477 633.50781 539.13477 z M 76.865234 542.19336 L 133.66797 542.19336 L 133.66797 721.50781 L 76.865234 721.50781 L 76.865234 542.19336 z M 156.0625 542.19336 L 215.36719 542.19336 L 256.65625 671.23633 L 297.32031 542.19336 L 354.87305 542.19336 L 286.80859 721.50781 L 225.37695 721.50781 L 156.0625 542.19336 z M 373.26562 542.19336 L 525.15625 542.19336 L 525.15625 580.47852 L 430.06836 580.47852 L 430.06836 608.97852 L 518.27539 608.97852 L 518.27539 645.55078 L 430.06836 645.55078 L 430.06836 680.89844 L 527.9082 680.89844 L 527.9082 721.50781 L 373.26562 721.50781 L 373.26562 542.19336 z M 480.30859 733.20703 C 487.40867 733.20703 492.98334 736.91796 497.0332 744.33984 C 501.1087 751.76173 504.13376 763.1593 506.10742 778.5332 L 490.72656 787.38086 C 490.18829 782.94098 489.62469 779.69294 489.03516 777.63867 C 488.06114 774.1928 486.8707 771.54297 485.46094 769.6875 C 484.05118 767.83203 482.47345 766.9043 480.73047 766.9043 C 476.78314 766.9043 473.75808 771.01338 471.65625 779.23047 C 470.06706 785.32702 469.27344 794.90247 469.27344 807.95703 C 469.27344 824.12614 470.22237 835.22558 472.11914 841.25586 C 474.01591 847.21987 476.68054 850.20117 480.11523 850.20117 C 483.4474 850.20117 485.96063 847.78279 487.65234 842.94531 C 489.36969 838.10783 490.6119 831.08414 491.38086 821.87305 L 506.64453 833.80078 C 505.61925 844.86734 504.00514 854.11132 501.80078 861.5332 C 499.59643 868.95509 496.85317 874.55482 493.57227 878.33203 C 490.317 882.10924 486.16474 883.99805 481.11523 883.99805 C 474.98918 883.99805 469.9781 881.71108 466.08203 877.13867 C 462.2116 872.49999 458.8664 864.3838 456.04688 852.78711 C 453.22735 841.19041 451.81836 826.34475 451.81836 808.25391 C 451.81836 784.13278 454.2913 765.61149 459.23828 752.68945 C 464.21089 739.70115 471.23486 733.20703 480.30859 733.20703 z M 98.980469 735.69336 L 116.39648 735.69336 L 116.39648 786.68555 L 135.42969 786.68555 L 135.42969 735.69336 L 152.92383 735.69336 L 152.92383 881.41406 L 135.42969 881.41406 L 135.42969 822.46875 L 116.39648 822.46875 L 116.39648 881.41406 L 98.980469 881.41406 L 98.980469 735.69336 z M 164.53516 735.69336 L 211.21094 735.69336 L 211.21094 766.80469 L 181.99023 766.80469 L 181.99023 789.96484 L 209.0957 789.96484 L 209.0957 819.68555 L 181.99023 819.68555 L 181.99023 848.41211 L 212.05664 848.41211 L 212.05664 881.41406 L 164.53516 881.41406 L 164.53516 735.69336 z M 236.9707 735.69336 L 255.96289 735.69336 L 277.14844 881.41406 L 258.92383 881.41406 L 256.15625 857.35938 L 236.31641 857.35938 L 233.58789 881.41406 L 215.78516 881.41406 L 236.9707 735.69336 z M 282.68555 735.69336 L 300.10156 735.69336 L 300.10156 845.5293 L 327.28516 845.5293 L 327.28516 881.41406 L 282.68555 881.41406 L 282.68555 735.69336 z M 327.32422 735.69336 L 380.26562 735.69336 L 380.26562 771.67578 L 362.50391 771.67578 L 362.50391 881.41406 L 345.08594 881.41406 L 345.08594 771.67578 L 327.32422 771.67578 L 327.32422 735.69336 z M 388.26367 735.69336 L 405.67969 735.69336 L 405.67969 786.68555 L 424.71289 786.68555 L 424.71289 735.69336 L 442.20508 735.69336 L 442.20508 881.41406 L 424.71289 881.41406 L 424.71289 822.46875 L 405.67969 822.46875 L 405.67969 881.41406 L 388.26367 881.41406 L 388.26367 735.69336 z M 530.56055 735.69336 L 549.55273 735.69336 L 570.73828 881.41406 L 552.51367 881.41406 L 549.74609 857.35938 L 529.90625 857.35938 L 527.17578 881.41406 L 509.375 881.41406 L 530.56055 735.69336 z M 576.50586 735.69336 L 605.5332 735.69336 C 610.91593 735.69336 615.02985 736.88588 617.875 739.27148 C 620.72015 741.65709 623.01483 746.09569 624.75781 752.58984 C 626.50079 759.01773 627.37109 766.87108 627.37109 776.14844 C 627.37109 784.23299 626.70591 791.22335 625.37305 797.12109 C 624.04018 802.95257 622.20751 807.69126 619.875 811.33594 C 618.38834 813.65528 616.35055 815.57743 613.76172 817.10156 C 615.83791 818.89077 617.35044 820.67955 618.29883 822.46875 C 618.93963 823.66155 619.8617 826.2133 621.06641 830.12305 C 622.29674 834.03279 623.11723 837.04743 623.52734 839.16797 L 631.94727 881.41406 L 612.26172 881.41406 L 602.95703 836.88281 C 601.77796 831.1176 600.72744 827.37333 599.80469 825.65039 C 598.54872 823.39732 597.1263 822.26953 595.53711 822.26953 L 593.99805 822.26953 L 593.99805 881.41406 L 576.50586 881.41406 L 576.50586 735.69336 z M 637.44531 735.69336 L 684.12109 735.69336 L 684.12109 766.80469 L 654.90039 766.80469 L 654.90039 789.96484 L 682.00586 789.96484 L 682.00586 819.68555 L 654.90039 819.68555 L 654.90039 848.41211 L 684.9668 848.41211 L 684.9668 881.41406 L 637.44531 881.41406 L 637.44531 735.69336 z M 593.99805 765.11523 L 593.99805 794.73633 L 601.3418 794.73633 C 602.13639 794.73633 603.67578 794.07338 605.95703 792.74805 C 607.11047 792.15165 608.04598 790.62765 608.76367 788.17578 C 609.507 785.72391 609.87695 782.90737 609.87695 779.72656 C 609.87695 775.02162 609.30188 771.41072 608.14844 768.89258 C 606.995 766.37444 604.82876 765.11523 601.65039 765.11523 L 593.99805 765.11523 z M 246.27539 773.46484 L 240.08398 825.84961 L 252.50391 825.84961 L 246.27539 773.46484 z M 539.86328 773.46484 L 533.67383 825.84961 L 546.0918 825.84961 L 539.86328 773.46484 z "
       transform="matrix(0.26458332,0,0,0.26458332,-6.9494465,17.835087)"
       id="rect1442" />
  </g>
</svg>
