<?xml version="1.0" encoding="UTF-8" standalone="no"?>
<!-- Created with Inkscape (http://www.inkscape.org/) -->

<svg
   xmlns:dc="http://purl.org/dc/elements/1.1/"
   xmlns:cc="http://creativecommons.org/ns#"
   xmlns:rdf="http://www.w3.org/1999/02/22-rdf-syntax-ns#"
   xmlns:svg="http://www.w3.org/2000/svg"
   xmlns="http://www.w3.org/2000/svg"
   xmlns:sodipodi="http://sodipodi.sourceforge.net/DTD/sodipodi-0.dtd"
   xmlns:inkscape="http://www.inkscape.org/namespaces/inkscape"
   width="791.94727"
   height="987.70312"
   viewBox="0 0 209.53604 261.32977"
   version="1.1"
   id="svg825"
   sodipodi:docname="st-pharmacy.svg"
   inkscape:version="0.92.3 (2405546, 2018-03-11)">
  <defs
     id="defs819" />
  <sodipodi:namedview
     id="base"
     pagecolor="#ffffff"
     bordercolor="#666666"
     borderopacity="1.0"
     inkscape:pageopacity="0.0"
     inkscape:pageshadow="2"
     inkscape:zoom="0.7"
     inkscape:cx="491.05947"
     inkscape:cy="353.0365"
     inkscape:document-units="px"
     inkscape:current-layer="layer1"
     showgrid="false"
     units="px"
     width="805.71484px"
     inkscape:pagecheckerboard="true"
     showborder="true"
     inkscape:window-width="1280"
     inkscape:window-height="725"
     inkscape:window-x="0"
     inkscape:window-y="0"
     inkscape:window-maximized="1"
     borderlayer="false"
     fit-margin-top="0"
     fit-margin-left="0"
     fit-margin-right="0"
     fit-margin-bottom="0" />
  <metadata
     id="metadata822">
    <rdf:RDF>
      <cc:Work
         rdf:about="">
        <dc:format>image/svg+xml</dc:format>
        <dc:type
           rdf:resource="http://purl.org/dc/dcmitype/StillImage" />
        <dc:title />
      </cc:Work>
    </rdf:RDF>
  </metadata>
  <g
     inkscape:label="Layer 1"
     inkscape:groupmode="layer"
     id="layer1"
     transform="translate(6.9494465,-17.835087)">
    <path
       style="fill:#ff0000;fill-opacity:1;stroke:none;stroke-width:0.92304534"
       d="M 22.855469 0 C 10.192603 0 -4.7369516e-15 8.7154268 0 19.542969 L 0 494.42188 L 791.94727 494.42188 L 791.94727 19.542969 C 791.94727 8.7154268 781.7527 0 769.08984 0 L 22.855469 0 z M 231.30078 102.10156 C 276.71376 102.10156 311.29772 110.58542 335.05469 127.55469 C 358.97328 144.36233 373.19557 171.19151 377.7207 208.03906 L 274.20898 214.09961 C 271.46157 198.10002 265.64257 186.46395 256.75391 179.19141 C 248.02686 171.91887 235.90734 168.28125 220.39258 168.28125 C 207.62523 168.28125 198.0094 171.02863 191.54492 176.52344 C 185.08043 181.85664 181.84766 188.40277 181.84766 196.16016 C 181.84766 201.81656 184.51446 206.90651 189.84766 211.43164 C 195.01923 216.11839 207.30186 220.48314 226.69531 224.52344 C 274.69409 234.86661 309.0363 245.37072 329.72266 256.03711 C 350.5706 266.5419 365.68119 279.63222 375.05469 295.30859 C 384.5898 310.98496 389.35742 328.52066 389.35742 347.91406 C 389.35742 370.70136 383.05496 391.70958 370.44922 410.94141 C 357.84348 430.17323 340.22724 444.80041 317.60156 454.82031 C 294.97587 464.67864 266.45073 469.60742 232.02734 469.60742 C 171.58444 469.60742 129.72722 457.97136 106.45508 434.69922 C 83.182931 411.42708 70.012034 381.85249 66.941406 345.97461 L 171.42383 339.42969 C 173.6864 356.39897 178.29091 369.32615 185.24023 378.21484 C 196.55309 392.59829 212.71505 399.79102 233.72461 399.79102 C 249.40098 399.79102 261.44187 396.15534 269.8457 388.88281 C 278.41114 381.44867 282.69336 372.88227 282.69336 363.18555 C 282.69336 353.97363 278.65287 345.73151 270.57227 338.45898 C 262.49167 331.18642 243.74542 324.31794 214.33203 317.85352 C 166.17163 307.02543 131.82747 292.64208 111.30273 274.70312 C 90.616412 256.76419 80.273437 233.89689 80.273438 206.09961 C 80.273438 187.83745 85.526468 170.6241 96.03125 154.46289 C 106.69765 138.14008 122.61593 125.374 143.78711 116.16211 C 165.11991 106.78861 194.29162 102.10156 231.30078 102.10156 z M 557.35352 108.16211 L 557.35352 206.09961 L 611.6543 206.09961 L 611.6543 278.09766 L 557.35352 278.09766 L 557.35352 369.48828 C 557.35352 380.4779 558.40294 387.75116 560.50391 391.30664 C 563.73616 396.80143 569.39402 399.54883 577.47461 399.54883 C 584.74718 399.54883 594.92703 397.44802 608.01758 393.24609 L 615.29102 461.36523 C 590.88759 466.69845 568.10083 469.36523 546.92969 469.36523 C 522.36465 469.36523 504.26302 466.21297 492.62695 459.91016 C 480.99088 453.60723 472.34586 444.07208 466.68945 431.30469 C 461.19462 418.37575 458.44727 397.52865 458.44727 368.76172 L 458.44727 278.09766 L 422.08398 278.09766 L 422.08398 206.09961 L 458.44727 206.09961 L 458.44727 158.82812 L 557.35352 108.16211 z M 619.29102 381.36523 L 713.57617 381.36523 L 713.57617 461.36523 L 619.29102 461.36523 L 619.29102 381.36523 z M 0 517.2793 L 0 968.16016 C 0 978.9876 10.192603 987.70312 22.855469 987.70312 L 769.08984 987.70312 C 781.7527 987.70312 791.94727 978.9876 791.94727 968.16016 L 791.94727 517.2793 L 0 517.2793 z M 633.50781 539.13477 C 656.94629 539.13477 674.79525 543.41637 687.05664 551.97852 C 699.40145 560.45906 706.7426 573.99586 709.07812 592.58789 L 655.65234 595.64453 C 654.23434 587.57172 651.23212 581.70072 646.64453 578.03125 C 642.14035 574.36174 635.88441 572.52734 627.87695 572.52734 C 621.2875 572.52734 616.3247 573.91304 612.98828 576.68555 C 609.65183 579.3765 607.98242 582.67963 607.98242 586.59375 C 607.98242 589.44778 609.35877 592.01558 612.11133 594.29883 C 614.78047 596.6636 621.12157 598.8657 631.13086 600.9043 C 655.90393 606.12311 673.62809 611.42471 684.30469 616.80664 C 695.0647 622.10694 702.86334 628.71134 707.70117 636.62109 C 712.62242 644.53085 715.08203 653.37879 715.08203 663.16406 C 715.08203 674.66173 711.83026 685.26113 705.32422 694.96484 C 698.81814 704.66859 689.72636 712.04978 678.04883 717.10547 C 666.3713 722.07967 651.64935 724.56641 633.88281 724.56641 C 602.68712 724.56641 581.08345 718.69544 569.07227 706.95312 C 557.06112 695.21081 550.26253 680.28828 548.67773 662.18555 L 602.60352 658.88281 C 603.77128 667.44492 606.14768 673.96819 609.73438 678.45312 C 615.57314 685.71054 623.91439 689.33984 634.75781 689.33984 C 642.84869 689.33984 649.063 687.50349 653.40039 683.83398 C 657.82115 680.08299 660.03125 675.76178 660.03125 670.86914 C 660.03125 666.22115 657.94591 662.06205 653.77539 658.39258 C 649.60483 654.72311 639.92882 651.25786 624.74805 647.99609 C 599.89157 642.53267 582.1674 635.27601 571.57422 626.22461 C 560.89762 617.17325 555.56055 605.63494 555.56055 591.60938 C 555.56055 582.39492 558.26967 573.70906 563.69141 565.55469 C 569.19652 557.31872 577.413 550.87846 588.33984 546.23047 C 599.3501 541.50092 614.40672 539.13477 633.50781 539.13477 z M 76.865234 542.19336 L 133.66797 542.19336 L 133.66797 721.50781 L 76.865234 721.50781 L 76.865234 542.19336 z M 156.0625 542.19336 L 215.36719 542.19336 L 256.65625 671.23633 L 297.32031 542.19336 L 354.87305 542.19336 L 286.80859 721.50781 L 225.37695 721.50781 L 156.0625 542.19336 z M 373.26562 542.19336 L 525.15625 542.19336 L 525.15625 580.47852 L 430.06836 580.47852 L 430.06836 608.97852 L 518.27539 608.97852 L 518.27539 645.55078 L 430.06836 645.55078 L 430.06836 680.89844 L 527.9082 680.89844 L 527.9082 721.50781 L 373.26562 721.50781 L 373.26562 542.19336 z M 572.81055 733.06445 C 581.04661 733.06445 587.51311 736.916 592.21094 744.61914 C 596.9385 752.32228 600.44688 764.15287 602.73633 780.10938 L 584.89648 789.29102 C 584.27209 784.68289 583.61745 781.31181 582.93359 779.17969 C 581.80374 775.60323 580.42048 772.85352 578.78516 770.92773 C 577.14984 769.00195 575.32263 768.03906 573.30078 768.03906 C 568.72189 768.03906 565.2135 772.30355 562.77539 780.83203 C 560.93194 787.15961 560.00977 797.09721 560.00977 810.64648 C 560.00977 827.42833 561.1103 838.94823 563.31055 845.20703 C 565.51079 851.39706 568.6017 854.49219 572.58594 854.49219 C 576.45124 854.49219 579.36574 851.98174 581.32812 846.96094 C 583.32024 841.94014 584.7623 834.64999 585.6543 825.08984 L 603.36133 837.4707 C 602.172 848.95664 600.29728 858.55076 597.74023 866.25391 C 595.18319 873.95705 592.0031 879.7691 588.19727 883.68945 C 584.42116 887.6098 579.60351 889.56836 573.74609 889.56836 C 566.63989 889.56836 560.82802 887.19686 556.30859 882.45117 C 551.8189 877.63671 547.93861 869.21194 544.66797 857.17578 C 541.39733 845.13962 539.76172 829.73149 539.76172 810.95508 C 539.76172 785.91987 542.63066 766.69688 548.36914 753.28516 C 554.13736 739.80466 562.28504 733.06445 572.81055 733.06445 z M 102.19531 735.64453 L 135.77734 735.64453 C 143.09168 735.64453 148.56397 739.66781 152.19141 747.71484 C 155.84857 755.76188 157.67578 767.2123 157.67578 782.06836 C 157.67578 797.33709 155.68345 809.27188 151.69922 817.86914 C 147.74472 826.4664 141.69569 830.76367 133.54883 830.76367 L 122.48828 830.76367 L 122.48828 886.88672 L 102.19531 886.88672 L 102.19531 735.64453 z M 168.38086 735.64453 L 188.58398 735.64453 L 188.58398 788.56836 L 210.66016 788.56836 L 210.66016 735.64453 L 230.95312 735.64453 L 230.95312 886.88672 L 210.66016 886.88672 L 210.66016 825.70898 L 188.58398 825.70898 L 188.58398 886.88672 L 168.38086 886.88672 L 168.38086 735.64453 z M 262.44141 735.64453 L 284.47266 735.64453 L 309.04688 886.88672 L 287.9082 886.88672 L 284.69531 861.91992 L 261.68359 861.91992 L 258.51562 886.88672 L 237.86719 886.88672 L 262.44141 735.64453 z M 315.73828 735.64453 L 349.41016 735.64453 C 355.6541 735.64453 360.42619 736.88141 363.72656 739.35742 C 367.02693 741.83343 369.68909 746.44139 371.71094 753.18164 C 373.73279 759.85311 374.74219 768.00388 374.74219 777.63281 C 374.74219 786.02374 373.96995 793.27914 372.42383 799.40039 C 370.87771 805.45286 368.75259 810.3715 366.04688 814.1543 C 364.32236 816.56153 361.95812 818.55678 358.95508 820.13867 C 361.36346 821.99568 363.11667 823.85198 364.2168 825.70898 C 364.96012 826.94699 366.03028 829.59444 367.42773 833.65234 C 368.85492 837.71025 369.80747 840.84012 370.2832 843.04102 L 380.05078 886.88672 L 357.21484 886.88672 L 346.42188 840.66797 C 345.05415 834.68428 343.83602 830.798 342.76562 829.00977 C 341.3087 826.67131 339.6579 825.50195 337.81445 825.50195 L 336.03125 825.50195 L 336.03125 886.88672 L 315.73828 886.88672 L 315.73828 735.64453 z M 386.25 735.64453 L 412.83008 735.64453 L 423.08789 827.66992 L 433.30273 735.64453 L 459.79492 735.64453 L 459.79492 886.88672 L 443.29297 886.88672 L 443.29297 771.54688 L 430.49219 886.88672 L 415.55078 886.88672 L 402.79688 771.54688 L 402.79688 886.88672 L 386.25 886.88672 L 386.25 735.64453 z M 490.61328 735.64453 L 512.64453 735.64453 L 537.21875 886.88672 L 516.07812 886.88672 L 512.86719 861.91992 L 489.85547 861.91992 L 486.6875 886.88672 L 466.03906 886.88672 L 490.61328 735.64453 z M 606.61719 735.64453 L 629.05078 735.64453 L 642.25195 786.71094 L 655.45312 735.64453 L 677.75195 735.64453 L 652.33008 823.54297 L 652.33008 886.88672 L 632.08203 886.88672 L 632.08203 823.54297 L 606.61719 735.64453 z M 336.03125 766.18164 L 336.03125 796.92578 L 344.54883 796.92578 C 345.47055 796.92578 347.25415 796.23689 349.90039 794.86133 C 351.23838 794.24233 352.32372 792.66198 353.15625 790.11719 C 354.01851 787.5724 354.44922 784.649 354.44922 781.34766 C 354.44922 776.46441 353.78135 772.71513 352.44336 770.10156 C 351.10537 767.488 348.59315 766.18164 344.90625 766.18164 L 336.03125 766.18164 z M 122.48828 766.38867 L 122.48828 800.12305 L 127.4375 800.12305 C 131.33253 800.12305 134.06868 798.57548 135.64453 795.48047 C 137.22038 792.31668 138.00781 788.2934 138.00781 783.41016 C 138.00781 778.66447 137.32475 774.64119 135.95703 771.33984 C 134.58931 768.0385 132.01634 766.38867 128.24023 766.38867 L 122.48828 766.38867 z M 273.23438 774.84766 L 266.05273 829.2168 L 280.45898 829.2168 L 273.23438 774.84766 z M 501.40625 774.84766 L 494.22461 829.2168 L 508.63086 829.2168 L 501.40625 774.84766 z "
       transform="matrix(0.26458332,0,0,0.26458332,-6.9494465,17.835087)"
       id="rect1442" />
  </g>
</svg>
