<?xml version="1.0" encoding="UTF-8" standalone="no"?>
<!-- Created with Inkscape (http://www.inkscape.org/) -->

<svg
   xmlns:dc="http://purl.org/dc/elements/1.1/"
   xmlns:cc="http://creativecommons.org/ns#"
   xmlns:rdf="http://www.w3.org/1999/02/22-rdf-syntax-ns#"
   xmlns:svg="http://www.w3.org/2000/svg"
   xmlns="http://www.w3.org/2000/svg"
   xmlns:sodipodi="http://sodipodi.sourceforge.net/DTD/sodipodi-0.dtd"
   xmlns:inkscape="http://www.inkscape.org/namespaces/inkscape"
   width="791.94727"
   height="987.70312"
   viewBox="0 0 209.53604 261.32977"
   version="1.1"
   id="svg825"
   sodipodi:docname="st-specialist-hospital.svg"
   inkscape:version="0.92.3 (2405546, 2018-03-11)">
  <defs
     id="defs819" />
  <sodipodi:namedview
     id="base"
     pagecolor="#ffffff"
     bordercolor="#666666"
     borderopacity="1.0"
     inkscape:pageopacity="0.0"
     inkscape:pageshadow="2"
     inkscape:zoom="0.49497475"
     inkscape:cx="38.157794"
     inkscape:cy="193.09482"
     inkscape:document-units="px"
     inkscape:current-layer="layer1"
     showgrid="false"
     units="px"
     width="805.71484px"
     inkscape:pagecheckerboard="true"
     showborder="true"
     inkscape:window-width="1280"
     inkscape:window-height="725"
     inkscape:window-x="0"
     inkscape:window-y="0"
     inkscape:window-maximized="1"
     borderlayer="false"
     fit-margin-top="0"
     fit-margin-left="0"
     fit-margin-right="0"
     fit-margin-bottom="0" />
  <metadata
     id="metadata822">
    <rdf:RDF>
      <cc:Work
         rdf:about="">
        <dc:format>image/svg+xml</dc:format>
        <dc:type
           rdf:resource="http://purl.org/dc/dcmitype/StillImage" />
        <dc:title />
      </cc:Work>
    </rdf:RDF>
  </metadata>
  <g
     inkscape:label="Layer 1"
     inkscape:groupmode="layer"
     id="layer1"
     transform="translate(6.9494465,-17.835087)">
    <path
       style="fill:#ff0000;fill-opacity:1;stroke:none;stroke-width:0.92304534"
       d="M 22.855469 0 C 10.192604 0 -7.1054274e-15 8.7154268 0 19.542969 L 0 494.42188 L 791.94727 494.42188 L 791.94727 19.542969 C 791.94727 8.7154268 781.7527 0 769.08984 0 L 22.855469 0 z M 231.30078 102.10156 C 276.71376 102.10156 311.29772 110.58542 335.05469 127.55469 C 358.97328 144.36233 373.19557 171.19151 377.7207 208.03906 L 274.20898 214.09961 C 271.46157 198.10002 265.64257 186.46395 256.75391 179.19141 C 248.02686 171.91887 235.90734 168.28125 220.39258 168.28125 C 207.62523 168.28125 198.0094 171.02863 191.54492 176.52344 C 185.08043 181.85664 181.84766 188.40277 181.84766 196.16016 C 181.84766 201.81656 184.51446 206.90651 189.84766 211.43164 C 195.01923 216.11839 207.30186 220.48314 226.69531 224.52344 C 274.69409 234.86661 309.0363 245.37072 329.72266 256.03711 C 350.5706 266.5419 365.68119 279.63222 375.05469 295.30859 C 384.5898 310.98496 389.35742 328.52066 389.35742 347.91406 C 389.35742 370.70136 383.05496 391.70958 370.44922 410.94141 C 357.84348 430.17323 340.22724 444.80044 317.60156 454.82031 C 294.97587 464.67864 266.45073 469.60742 232.02734 469.60742 C 171.58444 469.60742 129.72722 457.97136 106.45508 434.69922 C 83.182927 411.42708 70.012034 381.85249 66.941406 345.97461 L 171.42383 339.42969 C 173.6864 356.39897 178.29091 369.32615 185.24023 378.21484 C 196.55309 392.59829 212.71505 399.79102 233.72461 399.79102 C 249.40098 399.79102 261.44187 396.15534 269.8457 388.88281 C 278.41114 381.44867 282.69336 372.88227 282.69336 363.18555 C 282.69336 353.97363 278.65287 345.73151 270.57227 338.45898 C 262.49167 331.18642 243.74542 324.31791 214.33203 317.85352 C 166.17163 307.02541 131.82747 292.64208 111.30273 274.70312 C 90.616423 256.7642 80.273437 233.89689 80.273438 206.09961 C 80.273438 187.83745 85.526468 170.6241 96.03125 154.46289 C 106.69765 138.14008 122.61593 125.374 143.78711 116.16211 C 165.11991 106.78861 194.29162 102.10156 231.30078 102.10156 z M 557.35352 108.16211 L 557.35352 206.09961 L 611.6543 206.09961 L 611.6543 278.09766 L 557.35352 278.09766 L 557.35352 369.48828 C 557.35352 380.4779 558.40294 387.75116 560.50391 391.30664 C 563.73616 396.80143 569.39402 399.54883 577.47461 399.54883 C 584.74718 399.54883 594.92703 397.44802 608.01758 393.24609 L 615.29102 461.36523 C 590.88759 466.69845 568.10083 469.36523 546.92969 469.36523 C 522.36465 469.36523 504.26302 466.21297 492.62695 459.91016 C 480.99088 453.60723 472.34586 444.07208 466.68945 431.30469 C 461.19462 418.37575 458.44727 397.52865 458.44727 368.76172 L 458.44727 278.09766 L 422.08398 278.09766 L 422.08398 206.09961 L 458.44727 206.09961 L 458.44727 158.82812 L 557.35352 108.16211 z M 619.29102 381.36523 L 713.57617 381.36523 L 713.57617 461.36523 L 619.29102 461.36523 L 619.29102 381.36523 z M 0 517.2793 L 0 968.16016 C 0 978.9876 10.192604 987.70312 22.855469 987.70312 L 769.08984 987.70312 C 781.7527 987.70312 791.94727 978.9876 791.94727 968.16016 L 791.94727 517.2793 L 0 517.2793 z M 633.50781 539.13477 C 656.94629 539.13477 674.79525 543.41634 687.05664 551.97852 C 699.40145 560.45906 706.7426 573.99586 709.07812 592.58789 L 655.65234 595.64453 C 654.23434 587.57172 651.23212 581.70072 646.64453 578.03125 C 642.14035 574.36174 635.88441 572.52734 627.87695 572.52734 C 621.2875 572.52734 616.3247 573.91304 612.98828 576.68555 C 609.65183 579.3765 607.98242 582.67963 607.98242 586.59375 C 607.98242 589.44778 609.35877 592.01558 612.11133 594.29883 C 614.78047 596.6636 621.12157 598.8657 631.13086 600.9043 C 655.90393 606.12311 673.62809 611.42471 684.30469 616.80664 C 695.0647 622.10694 702.86334 628.71134 707.70117 636.62109 C 712.62242 644.53085 715.08203 653.37879 715.08203 663.16406 C 715.08203 674.66173 711.83026 685.26113 705.32422 694.96484 C 698.81814 704.66859 689.72636 712.04978 678.04883 717.10547 C 666.3713 722.07967 651.64935 724.56641 633.88281 724.56641 C 602.68712 724.56641 581.08345 718.69544 569.07227 706.95312 C 557.06112 695.21081 550.26253 680.28828 548.67773 662.18555 L 602.60352 658.88281 C 603.77128 667.44492 606.14768 673.96819 609.73438 678.45312 C 615.57314 685.71054 623.91439 689.33984 634.75781 689.33984 C 642.84869 689.33984 649.063 687.50349 653.40039 683.83398 C 657.82115 680.08299 660.03125 675.76178 660.03125 670.86914 C 660.03125 666.22115 657.94591 662.06205 653.77539 658.39258 C 649.60483 654.72311 639.92882 651.25786 624.74805 647.99609 C 599.89157 642.53267 582.1674 635.27601 571.57422 626.22461 C 560.89762 617.17325 555.56055 605.63494 555.56055 591.60938 C 555.56055 582.39492 558.26967 573.70906 563.69141 565.55469 C 569.19652 557.31872 577.413 550.87846 588.33984 546.23047 C 599.3501 541.50092 614.40672 539.13477 633.50781 539.13477 z M 76.865234 542.19336 L 133.66797 542.19336 L 133.66797 721.50781 L 76.865234 721.50781 L 76.865234 542.19336 z M 156.0625 542.19336 L 215.36719 542.19336 L 256.65625 671.23633 L 297.32031 542.19336 L 354.87305 542.19336 L 286.80859 721.50781 L 225.37695 721.50781 L 156.0625 542.19336 z M 373.26562 542.19336 L 525.15625 542.19336 L 525.15625 580.47852 L 430.06836 580.47852 L 430.06836 608.97852 L 518.27539 608.97852 L 518.27539 645.55078 L 430.06836 645.55078 L 430.06836 680.89844 L 527.9082 680.89844 L 527.9082 721.50781 L 373.26562 721.50781 L 373.26562 542.19336 z M 95.814453 734.16406 C 100.4579 734.16406 103.99469 737.44531 106.42383 744.00781 C 108.86949 750.50781 110.32246 760.88281 110.78516 775.13281 L 100.20117 777.47656 C 99.920251 771.28906 99.324876 766.78906 98.416016 763.97656 C 97.52368 761.16406 96.285593 759.75781 94.699219 759.75781 C 93.393765 759.75781 92.410989 760.82031 91.75 762.94531 C 91.089011 765.00781 90.757812 767.53906 90.757812 770.53906 C 90.757812 772.72656 91.030856 774.69531 91.576172 776.44531 C 92.104963 778.25781 93.360782 779.94531 95.34375 781.50781 C 100.25159 785.50781 103.76179 789.57031 105.87695 793.69531 C 108.00864 797.75781 109.55524 802.82031 110.51367 808.88281 C 111.48863 814.94531 111.97461 821.72656 111.97461 829.22656 C 111.97461 838.03906 111.3319 846.16406 110.04297 853.60156 C 108.75404 861.03906 106.95213 866.69531 104.63867 870.57031 C 102.32521 874.38281 99.408439 876.28906 95.888672 876.28906 C 89.708423 876.28906 85.428389 871.78906 83.048828 862.78906 C 80.669267 853.78906 79.321782 842.35156 79.007812 828.47656 L 89.691406 825.94531 C 89.922752 832.50781 90.394905 837.50781 91.105469 840.94531 C 92.2622 846.50781 93.914285 849.28906 96.0625 849.28906 C 97.665399 849.28906 98.896573 847.88281 99.755859 845.07031 C 100.63167 842.19531 101.06836 838.88281 101.06836 835.13281 C 101.06836 831.57031 100.65631 828.38281 99.830078 825.57031 C 99.003842 822.75781 97.087579 820.10156 94.080078 817.60156 C 89.155708 813.41406 85.643563 807.85156 83.544922 800.91406 C 81.429756 793.97656 80.371094 785.13281 80.371094 774.38281 C 80.371094 767.32031 80.908314 760.66406 81.982422 754.41406 C 83.073054 748.10156 84.700495 743.16406 86.865234 739.60156 C 89.046499 735.97656 92.03029 734.16406 95.814453 734.16406 z M 208.07422 734.16406 C 212.65157 734.16406 216.24651 737.66406 218.85742 744.66406 C 221.48485 751.66406 223.43463 762.41406 224.70703 776.91406 L 214.79297 785.25781 C 214.44595 781.07031 214.08124 778.00781 213.70117 776.07031 C 213.07323 772.82031 212.30534 770.32031 211.39648 768.57031 C 210.48762 766.82031 209.47134 765.94531 208.34766 765.94531 C 205.80285 765.94531 203.85307 769.82031 202.49805 777.57031 C 201.47351 783.32031 200.96094 792.35156 200.96094 804.66406 C 200.96094 819.91406 201.57209 830.38281 202.79492 836.07031 C 204.01775 841.69531 205.73686 844.50781 207.95117 844.50781 C 210.09939 844.50781 211.71796 842.22656 212.80859 837.66406 C 213.91575 833.10156 214.71715 826.47656 215.21289 817.78906 L 225.05469 829.03906 C 224.3937 839.47656 223.35277 848.19531 221.93164 855.19531 C 220.51051 862.19531 218.74212 867.47656 216.62695 871.03906 C 214.52831 874.60156 211.85108 876.38281 208.5957 876.38281 C 204.64629 876.38281 201.41606 874.22656 198.9043 869.91406 C 196.40906 865.53906 194.25131 857.88281 192.43359 846.94531 C 190.61587 836.00781 189.70703 822.00781 189.70703 804.94531 C 189.70703 782.19531 191.30291 764.72656 194.49219 752.53906 C 197.69799 740.28906 202.22446 734.16406 208.07422 734.16406 z M 358.16016 734.16406 C 362.80361 734.16406 366.3404 737.44531 368.76953 744.00781 C 371.21519 750.50781 372.67012 760.88281 373.13281 775.13281 L 362.54883 777.47656 C 362.26791 771.28906 361.67253 766.78906 360.76367 763.97656 C 359.87134 761.16406 358.6313 759.75781 357.04492 759.75781 C 355.73947 759.75781 354.75669 760.82031 354.0957 762.94531 C 353.43471 765.00781 353.10352 767.53906 353.10352 770.53906 C 353.10352 772.72656 353.37656 774.69531 353.92188 776.44531 C 354.45067 778.25781 355.70649 779.94531 357.68945 781.50781 C 362.5973 785.50781 366.10944 789.57031 368.22461 793.69531 C 370.3563 797.75781 371.90094 802.82031 372.85938 808.88281 C 373.83433 814.94531 374.32227 821.72656 374.32227 829.22656 C 374.32227 838.03906 373.6776 846.16406 372.38867 853.60156 C 371.09974 861.03906 369.29784 866.69531 366.98438 870.57031 C 364.67091 874.38281 361.75414 876.28906 358.23438 876.28906 C 352.05413 876.28906 347.77605 871.78906 345.39648 862.78906 C 343.01692 853.78906 341.66944 842.35156 341.35547 828.47656 L 352.03906 825.94531 C 352.27041 832.50781 352.74061 837.50781 353.45117 840.94531 C 354.6079 846.50781 356.25999 849.28906 358.4082 849.28906 C 360.0111 849.28906 361.24228 847.88281 362.10156 845.07031 C 362.97737 842.19531 363.41602 838.88281 363.41602 835.13281 C 363.41602 831.57031 363.00202 828.38281 362.17578 825.57031 C 361.34954 822.75781 359.43328 820.10156 356.42578 817.60156 C 351.50141 813.41406 347.98927 807.85156 345.89062 800.91406 C 343.77546 793.97656 342.71875 785.13281 342.71875 774.38281 C 342.71875 767.32031 343.25597 760.66406 344.33008 754.41406 C 345.42071 748.10156 347.04815 743.16406 349.21289 739.60156 C 351.39416 735.97656 354.37599 734.16406 358.16016 734.16406 z M 493.32422 734.16406 C 499.37227 734.16406 504.03279 740.32031 507.30469 752.63281 C 510.57658 764.88281 512.21289 782.07031 512.21289 804.19531 C 512.21289 820.25781 511.49429 833.44531 510.05664 843.75781 C 508.63551 854.00781 506.56943 862.00781 503.85938 867.75781 C 501.16584 873.44531 497.80352 876.28906 493.77148 876.28906 C 489.67335 876.28906 486.27752 873.82031 483.58398 868.88281 C 480.90698 863.94531 478.73345 856.13281 477.06445 845.44531 C 475.39546 834.75781 474.56055 821.38281 474.56055 805.32031 C 474.56055 782.88281 476.21263 765.41406 479.51758 752.91406 C 482.82252 740.41406 487.42489 734.16406 493.32422 734.16406 z M 533.1582 734.16406 C 537.80165 734.16406 541.33844 737.44531 543.76758 744.00781 C 546.21324 750.50781 547.66621 760.88281 548.12891 775.13281 L 537.54492 777.47656 C 537.264 771.28906 536.66863 766.78906 535.75977 763.97656 C 534.86743 761.16406 533.62934 759.75781 532.04297 759.75781 C 530.73752 759.75781 529.75279 760.82031 529.0918 762.94531 C 528.43081 765.00781 528.10156 767.53906 528.10156 770.53906 C 528.10156 772.72656 528.37461 774.69531 528.91992 776.44531 C 529.44871 778.25781 530.70453 779.94531 532.6875 781.50781 C 537.59534 785.50781 541.10554 789.57031 543.2207 793.69531 C 545.35239 797.75781 546.89899 802.82031 547.85742 808.88281 C 548.83238 814.94531 549.31836 821.72656 549.31836 829.22656 C 549.31836 838.03906 548.67369 846.16406 547.38477 853.60156 C 546.09584 861.03906 544.29588 866.69531 541.98242 870.57031 C 539.66896 874.38281 536.75219 876.28906 533.23242 876.28906 C 527.05217 876.28906 522.77214 871.78906 520.39258 862.78906 C 518.01302 853.78906 516.66553 842.35156 516.35156 828.47656 L 527.03516 825.94531 C 527.2665 832.50781 527.73866 837.50781 528.44922 840.94531 C 529.60595 846.50781 531.25804 849.28906 533.40625 849.28906 C 535.00915 849.28906 536.24032 847.88281 537.09961 845.07031 C 537.97542 842.19531 538.41211 838.88281 538.41211 835.13281 C 538.41211 831.57031 538.00006 828.38281 537.17383 825.57031 C 536.34759 822.75781 534.42938 820.10156 531.42188 817.60156 C 526.49751 813.41406 522.98731 807.85156 520.88867 800.91406 C 518.77351 793.97656 517.71484 785.13281 517.71484 774.38281 C 517.71484 767.32031 518.25206 760.66406 519.32617 754.41406 C 520.4168 748.10156 522.04424 743.16406 524.20898 739.60156 C 526.39025 735.97656 529.37404 734.16406 533.1582 734.16406 z M 117.60156 736.50781 L 136.26758 736.50781 C 140.33266 736.50781 143.37265 740.16406 145.38867 747.47656 C 147.42121 754.78906 148.4375 765.19531 148.4375 778.69531 C 148.4375 792.57031 147.32955 803.41406 145.11523 811.22656 C 142.91745 819.03906 139.55512 822.94531 135.02734 822.94531 L 128.88086 822.94531 L 128.88086 873.94531 L 117.60156 873.94531 L 117.60156 736.50781 z M 154.3125 736.50781 L 184.4043 736.50781 L 184.4043 765.85156 L 165.56445 765.85156 L 165.56445 787.69531 L 183.04102 787.69531 L 183.04102 815.72656 L 165.56445 815.72656 L 165.56445 842.82031 L 184.94922 842.82031 L 184.94922 873.94531 L 154.3125 873.94531 L 154.3125 736.50781 z M 230.92969 736.50781 L 242.18164 736.50781 L 242.18164 873.94531 L 230.92969 873.94531 L 230.92969 736.50781 z M 260.20312 736.50781 L 272.44727 736.50781 L 286.10547 873.94531 L 274.35547 873.94531 L 272.57031 851.25781 L 259.78125 851.25781 L 258.02148 873.94531 L 246.54492 873.94531 L 260.20312 736.50781 z M 289.67383 736.50781 L 300.90234 736.50781 L 300.90234 840.10156 L 318.42773 840.10156 L 318.42773 873.94531 L 289.67383 873.94531 L 289.67383 736.50781 z M 324.0293 736.50781 L 335.2832 736.50781 L 335.2832 873.94531 L 324.0293 873.94531 L 324.0293 736.50781 z M 377.44531 736.50781 L 411.57617 736.50781 L 411.57617 770.44531 L 400.125 770.44531 L 400.125 873.94531 L 388.89648 873.94531 L 388.89648 770.44531 L 377.44531 770.44531 L 377.44531 736.50781 z M 433.6875 736.50781 L 444.91602 736.50781 L 444.91602 784.60156 L 457.18555 784.60156 L 457.18555 736.50781 L 468.46289 736.50781 L 468.46289 873.94531 L 457.18555 873.94531 L 457.18555 818.35156 L 444.91602 818.35156 L 444.91602 873.94531 L 433.6875 873.94531 L 433.6875 736.50781 z M 554.94531 736.50781 L 573.60938 736.50781 C 577.67446 736.50781 580.7164 740.16406 582.73242 747.47656 C 584.76496 754.78906 585.78125 765.19531 585.78125 778.69531 C 585.78125 792.57031 584.6733 803.41406 582.45898 811.22656 C 580.2612 819.03906 576.89887 822.94531 572.37109 822.94531 L 566.22461 822.94531 L 566.22461 873.94531 L 554.94531 873.94531 L 554.94531 736.50781 z M 592.12695 736.50781 L 603.37891 736.50781 L 603.37891 873.94531 L 592.12695 873.94531 L 592.12695 736.50781 z M 608.85742 736.50781 L 642.99023 736.50781 L 642.99023 770.44531 L 631.53711 770.44531 L 631.53711 873.94531 L 620.30859 873.94531 L 620.30859 770.44531 L 608.85742 770.44531 L 608.85742 736.50781 z M 654.66406 736.50781 L 666.9082 736.50781 L 680.56641 873.94531 L 668.81836 873.94531 L 667.0332 851.25781 L 654.24219 851.25781 L 652.48242 873.94531 L 641.00586 873.94531 L 654.66406 736.50781 z M 684.18555 736.50781 L 695.41406 736.50781 L 695.41406 840.10156 L 712.93945 840.10156 L 712.93945 873.94531 L 684.18555 873.94531 L 684.18555 736.50781 z M 128.88086 764.44531 L 128.88086 795.10156 L 131.63086 795.10156 C 133.7956 795.10156 135.31755 793.69531 136.19336 790.88281 C 137.06917 788.00781 137.50586 784.35156 137.50586 779.91406 C 137.50586 775.60156 137.12537 771.94531 136.36523 768.94531 C 135.6051 765.94531 134.17677 764.44531 132.07812 764.44531 L 128.88086 764.44531 z M 566.22461 764.44531 L 566.22461 795.10156 L 568.97461 795.10156 C 571.13935 795.10156 572.65935 793.69531 573.53516 790.88281 C 574.41097 788.00781 574.84961 784.35156 574.84961 779.91406 C 574.84961 775.60156 574.46912 771.94531 573.70898 768.94531 C 572.94885 765.94531 571.52052 764.44531 569.42188 764.44531 L 566.22461 764.44531 z M 493.30078 766.32031 C 491.03689 766.32031 489.21921 769.35156 487.84766 775.41406 C 486.4761 781.47656 485.78906 791.50781 485.78906 805.50781 C 485.78906 819.38281 486.46724 829.35156 487.82227 835.41406 C 489.19382 841.47656 491.05193 844.50781 493.39844 844.50781 C 495.81105 844.50781 497.67997 841.53906 499.00195 835.60156 C 500.32393 829.66406 500.98438 819.00781 500.98438 803.63281 C 500.98438 790.69531 500.29042 781.25781 498.90234 775.32031 C 497.53079 769.32031 495.66382 766.32031 493.30078 766.32031 z M 266.20117 772.13281 L 262.21094 821.53906 L 270.2168 821.53906 L 266.20117 772.13281 z M 660.66211 772.13281 L 656.67188 821.53906 L 664.67773 821.53906 L 660.66211 772.13281 z "
       transform="matrix(0.26458332,0,0,0.26458332,-6.9494465,17.835087)"
       id="rect1442" />
  </g>
</svg>
