<?xml version="1.0" encoding="UTF-8" standalone="no"?>
<svg
   xmlns:dc="http://purl.org/dc/elements/1.1/"
   xmlns:cc="http://creativecommons.org/ns#"
   xmlns:rdf="http://www.w3.org/1999/02/22-rdf-syntax-ns#"
   xmlns:svg="http://www.w3.org/2000/svg"
   xmlns="http://www.w3.org/2000/svg"
   id="svg8"
   version="1.1"
   viewBox="0 0 57.152542 61.030052"
   height="61.030052mm"
   width="57.152542mm">
  <defs
     id="defs2" />
  <metadata
     id="metadata5">
    <rdf:RDF>
      <cc:Work
         rdf:about="">
        <dc:format>image/svg+xml</dc:format>
        <dc:type
           rdf:resource="http://purl.org/dc/dcmitype/StillImage" />
        <dc:title></dc:title>
      </cc:Work>
    </rdf:RDF>
  </metadata>
  <g
     transform="translate(-93.709918,-92.048806)"
     id="layer1">
    <path
       id="rect3716"
       transform="matrix(0.26458333,0,0,0.26458333,93.709918,92.048806)"
       d="M 0 0 L 0 107.79492 L 216 107.79492 L 216 113.59375 L 0 113.59375 L 0 230.66406 L 216.00977 230.66406 L 216.00977 0 L 0 0 z M 68.716797 28.498047 C 78.400929 28.498047 85.775718 30.106052 90.841797 33.326172 C 95.942383 36.51564 98.974464 41.60737 99.939453 48.599609 L 77.865234 49.748047 C 77.27937 46.711952 76.040002 44.505019 74.144531 43.125 C 72.28353 41.744906 69.69911 41.054725 66.390625 41.054688 C 63.668042 41.054688 61.616788 41.576482 60.238281 42.619141 C 58.859736 43.631185 58.169922 44.873653 58.169922 46.345703 C 58.169922 47.419051 58.739655 48.385432 59.876953 49.244141 C 60.979781 50.133463 63.598778 50.959885 67.734375 51.726562 C 77.96994 53.689309 85.293765 55.682943 89.705078 57.707031 C 94.150785 59.700392 97.372253 62.185403 99.371094 65.160156 C 101.4044 68.134947 102.41992 71.46249 102.41992 75.142578 C 102.41992 79.466736 101.07682 83.454042 98.388672 87.103516 C 95.700558 90.75299 91.945925 93.528283 87.121094 95.429688 C 82.296224 97.300402 76.213683 98.234375 68.873047 98.234375 C 55.9838 98.234375 47.056459 96.027442 42.09375 91.611328 C 37.131041 87.195177 34.322772 81.583605 33.667969 74.775391 L 55.947266 73.533203 C 56.42976 76.753285 57.412616 79.205813 58.894531 80.892578 C 61.306966 83.621964 64.754161 84.986328 69.234375 84.986328 C 72.577292 84.986328 75.143446 84.296035 76.935547 82.916016 C 78.762117 81.505307 79.675781 79.881079 79.675781 78.041016 C 79.675781 76.292984 78.814959 74.729666 77.091797 73.349609 C 75.368635 71.969553 71.369971 70.664183 65.097656 69.4375 C 54.827622 67.38276 47.503759 64.654107 43.126953 61.25 C 38.715678 57.845855 36.511719 53.505291 36.511719 48.230469 C 36.511719 44.76502 37.630968 41.50034 39.871094 38.433594 C 42.145651 35.33612 45.540004 32.914085 50.054688 31.166016 C 54.60384 29.387268 60.82469 28.498047 68.716797 28.498047 z M 138.19336 29.646484 L 138.19336 48.230469 L 149.77539 48.230469 L 149.77539 61.892578 L 138.19336 61.892578 L 138.19336 79.236328 C 138.19336 81.321758 138.41912 82.70227 138.86719 83.376953 C 139.55642 84.419649 140.76317 84.941406 142.48633 84.941406 C 144.03714 84.941406 146.20653 84.54147 148.99805 83.744141 L 150.55078 96.669922 C 145.34683 97.681928 140.48542 98.189453 135.9707 98.189453 C 130.73232 98.189453 126.87204 97.590525 124.39062 96.394531 C 121.90929 95.198462 120.06756 93.38955 118.86133 90.966797 C 117.68956 88.513392 117.10352 84.558457 117.10352 79.099609 L 117.10352 61.892578 L 109.34961 61.892578 L 109.34961 48.230469 L 117.10352 48.230469 L 117.10352 39.259766 L 138.19336 29.646484 z M 159.85547 78.316406 L 182.3418 78.316406 L 182.3418 97.085938 L 159.85547 97.085938 L 159.85547 78.316406 z M 163.68945 116.92578 C 169.18262 116.92578 173.36463 117.83753 176.23828 119.66406 C 179.13151 121.47317 180.85109 124.36189 181.39844 128.32812 L 168.87891 128.97852 C 168.54631 127.25634 167.84274 126.00551 166.76758 125.22266 C 165.71192 124.43984 164.24579 124.04883 162.36914 124.04883 C 160.82479 124.04883 159.66081 124.34416 158.87891 124.93555 C 158.09696 125.50962 157.70703 126.21585 157.70703 127.05078 C 157.70703 127.65966 158.02893 128.20625 158.67383 128.69336 C 159.29942 129.19781 160.78502 129.66665 163.13086 130.10156 C 168.93682 131.21486 173.09151 132.34603 175.59375 133.49414 C 178.11553 134.62486 179.9443 136.03529 181.07812 137.72266 C 182.23152 139.41006 182.80859 141.29726 182.80859 143.38477 C 182.80859 145.83757 182.04434 148.09785 180.51953 150.16797 C 178.99472 152.23805 176.86375 153.81206 174.12695 154.89062 C 171.39012 155.95173 167.94117 156.48242 163.77734 156.48242 C 156.46615 156.48242 151.40292 155.2296 148.58789 152.72461 C 145.77286 150.21961 144.18001 147.03567 143.80859 143.17383 L 156.44727 142.4707 C 156.7209 144.29724 157.27854 145.6897 158.11914 146.64648 C 159.48756 148.19473 161.43915 148.96875 163.98047 148.96875 C 165.8767 148.96875 167.33506 148.57578 168.35156 147.79297 C 169.38764 146.99277 169.9043 146.07106 169.9043 145.02734 C 169.9043 144.03578 169.41688 143.15 168.43945 142.36719 C 167.46207 141.58437 165.19454 140.84429 161.63672 140.14844 C 155.81122 138.98294 151.65652 137.43483 149.17383 135.50391 C 146.67163 133.57295 145.42188 131.1112 145.42188 128.11914 C 145.42188 126.15341 146.05553 124.30011 147.32617 122.56055 C 148.61643 120.8036 150.54266 119.43101 153.10352 118.43945 C 155.68395 117.43055 159.21283 116.92578 163.68945 116.92578 z M 33.201172 117.57812 L 46.515625 117.57812 L 46.515625 155.83008 L 33.201172 155.83008 L 33.201172 117.57812 z M 51.792969 117.57812 L 65.693359 117.57812 L 75.367188 145.10547 L 84.898438 117.57812 L 98.386719 117.57812 L 82.435547 155.83008 L 68.037109 155.83008 L 51.792969 117.57812 z M 102.72656 117.57812 L 138.32422 117.57812 L 138.32422 125.74414 L 116.03906 125.74414 L 116.03906 131.82422 L 136.71094 131.82422 L 136.71094 139.62695 L 116.03906 139.62695 L 116.03906 147.16797 L 138.9707 147.16797 L 138.9707 155.83008 L 102.72656 155.83008 L 102.72656 117.57812 z M 69.517578 161.34766 C 71.932335 161.34766 73.793266 163.0389 75.099609 166.41992 C 76.405953 169.78379 77.058594 174.50258 77.058594 180.57812 C 77.058594 184.98891 76.771265 188.60958 76.197266 191.44141 C 75.629864 194.25607 74.804678 196.45425 73.722656 198.0332 C 72.647232 199.595 71.30515 200.375 69.695312 200.375 C 68.059084 200.375 66.702378 199.69764 65.626953 198.3418 C 64.558126 196.98595 63.691758 194.84105 63.025391 191.90625 C 62.359023 188.97145 62.025391 185.2975 62.025391 180.88672 C 62.025391 174.72536 62.684367 169.92861 64.003906 166.49609 C 65.323445 163.06358 67.162201 161.34766 69.517578 161.34766 z M 86.400391 161.34766 C 88.815147 161.34766 90.676078 163.0389 91.982422 166.41992 C 93.288766 169.78379 93.941406 174.50258 93.941406 180.57812 C 93.941406 184.98891 93.654078 188.60958 93.080078 191.44141 C 92.512676 194.25607 91.689444 196.45425 90.607422 198.0332 C 89.531997 199.595 88.187963 200.375 86.578125 200.375 C 84.941896 200.375 83.587143 199.69764 82.511719 198.3418 C 81.442892 196.98595 80.57457 194.84105 79.908203 191.90625 C 79.241836 188.97145 78.908203 185.2975 78.908203 180.88672 C 78.908203 174.72536 79.569133 169.92861 80.888672 166.49609 C 82.208211 163.06358 84.045013 161.34766 86.400391 161.34766 z M 33.662109 161.99023 L 42.054688 161.99023 C 43.453399 161.99023 44.525945 162.89129 45.271484 164.69336 C 46.023622 166.49543 46.398438 168.72652 46.398438 171.38672 C 46.398438 173.61785 46.13207 175.53279 45.597656 177.12891 C 45.241381 178.19299 44.719363 179.03449 44.033203 179.65234 C 45.075639 180.30452 45.841849 181.42732 46.330078 183.02344 C 46.824905 184.60239 47.072266 186.59333 47.072266 188.99609 C 47.072266 190.95263 46.896553 192.71164 46.546875 194.27344 C 46.197197 195.83523 45.718316 197.07085 45.111328 197.98047 C 44.735259 198.54683 44.168891 198.95936 43.410156 199.2168 C 42.400709 199.56005 41.730275 199.73242 41.400391 199.73242 L 33.662109 199.73242 L 33.662109 161.99023 z M 49.417969 161.99023 L 53.900391 161.99023 L 53.900391 190.4375 L 60.896484 190.4375 L 60.896484 199.73242 L 49.417969 199.73242 L 49.417969 161.99023 z M 96.416016 161.99023 L 103.07617 161.99023 C 104.38911 161.99023 105.44899 162.45408 106.25391 163.38086 C 107.06542 164.30764 107.7339 165.63767 108.26172 167.37109 C 108.78953 169.10451 109.17264 171.12209 109.41016 173.42188 C 109.64767 175.72166 109.76563 178.15804 109.76562 180.73242 C 109.76562 184.76563 109.5887 187.89777 109.23242 190.12891 C 108.88274 192.34288 108.39436 194.20454 107.76758 195.71484 C 107.1408 197.20799 106.4672 198.20346 105.74805 198.70117 C 104.76499 199.38767 103.87449 199.73242 103.07617 199.73242 L 96.416016 199.73242 L 96.416016 161.99023 z M 118.89062 161.99023 L 127.2832 161.99023 C 128.68191 161.99023 129.75446 162.89129 130.5 164.69336 C 131.25214 166.49543 131.62695 168.72652 131.62695 171.38672 C 131.62695 173.61785 131.36059 175.53279 130.82617 177.12891 C 130.4699 178.19299 129.94788 179.03449 129.26172 179.65234 C 130.30415 180.30452 131.07036 181.42732 131.55859 183.02344 C 132.05342 184.60239 132.30078 186.59333 132.30078 188.99609 C 132.30078 190.95263 132.12507 192.71164 131.77539 194.27344 C 131.42571 195.83523 130.94878 197.07085 130.3418 197.98047 C 129.96573 198.54683 129.39741 198.95936 128.63867 199.2168 C 127.62922 199.56005 126.96074 199.73242 126.63086 199.73242 L 118.89062 199.73242 L 118.89062 161.99023 z M 138.28906 161.99023 L 143.17773 161.99023 L 148.63086 199.73242 L 143.93945 199.73242 L 143.22656 193.50195 L 138.11914 193.50195 L 137.41797 199.73242 L 132.83594 199.73242 L 138.28906 161.99023 z M 150.0957 161.99023 L 154.28125 161.99023 L 159.74414 182.86914 L 159.74414 161.99023 L 163.9707 161.99023 L 163.9707 199.73242 L 159.74414 199.73242 L 154.31055 179.00781 L 154.31055 199.73242 L 150.0957 199.73242 L 150.0957 161.99023 z M 166.96875 161.99023 L 171.45117 161.99023 L 171.45117 176.25391 L 176.15234 161.99023 L 182.10938 161.99023 L 176.82617 176.22656 L 182.34766 199.73242 L 176.82617 199.73242 L 173.76758 184.20898 L 171.45117 190.51562 L 171.45117 199.73242 L 166.96875 199.73242 L 166.96875 161.99023 z M 38.185547 169.63672 L 38.185547 176.79297 L 40.134766 176.79297 C 40.834121 176.79297 41.319338 176.48504 41.589844 175.86719 C 41.866947 175.23217 42.003906 174.32289 42.003906 173.13867 C 42.003906 172.04027 41.866947 171.18231 41.589844 170.56445 C 41.319338 169.9466 40.843625 169.63672 40.164062 169.63672 L 38.185547 169.63672 z M 123.41406 169.63672 L 123.41406 176.79297 L 125.36328 176.79297 C 126.06264 176.79297 126.54785 176.48504 126.81836 175.86719 C 127.09546 175.23217 127.23438 174.32289 127.23438 173.13867 C 127.23438 172.04027 127.09546 171.18231 126.81836 170.56445 C 126.54785 169.9466 126.07214 169.63672 125.39258 169.63672 L 123.41406 169.63672 z M 69.507812 170.17773 C 68.603928 170.17773 67.877687 171.01101 67.330078 172.67578 C 66.782469 174.34055 66.507812 177.09504 66.507812 180.93945 C 66.507812 184.74954 66.779301 187.48562 67.320312 189.15039 C 67.867921 190.81516 68.610002 191.64844 69.546875 191.64844 C 70.510139 191.64844 71.255387 190.83357 71.783203 189.20312 C 72.311019 187.57268 72.574219 184.64582 72.574219 180.42383 C 72.574219 176.87118 72.298347 174.27888 71.744141 172.64844 C 71.196532 171.00083 70.451283 170.17773 69.507812 170.17773 z M 86.390625 170.17773 C 85.486741 170.17773 84.760499 171.01101 84.212891 172.67578 C 83.665282 174.34055 83.392578 177.09504 83.392578 180.93945 C 83.392578 184.74954 83.662114 187.48562 84.203125 189.15039 C 84.750734 190.81516 85.492815 191.64844 86.429688 191.64844 C 87.392951 191.64844 88.1382 190.83357 88.666016 189.20312 C 89.193831 187.57268 89.458984 184.64582 89.458984 180.42383 C 89.458984 176.87118 89.18116 174.27888 88.626953 172.64844 C 88.079344 171.00083 87.334095 170.17773 86.390625 170.17773 z M 100.89844 170.53906 L 100.89844 191.1582 L 101.99805 191.1582 C 102.93492 191.1582 103.60023 190.89337 103.99609 190.36133 C 104.39196 189.81213 104.70341 188.86798 104.92773 187.5293 C 105.15206 186.17345 105.26367 183.98546 105.26367 180.96484 C 105.26367 176.96597 105.01314 174.22793 104.51172 172.75195 C 104.01029 171.27597 103.17877 170.53906 102.01758 170.53906 L 100.89844 170.53906 z M 140.68359 171.77344 L 139.08984 185.3418 L 142.28711 185.3418 L 140.68359 171.77344 z M 38.185547 183.97656 L 38.185547 191.62305 L 40.470703 191.62305 C 41.242634 191.62305 41.786826 191.27007 42.103516 190.56641 C 42.420205 189.84558 42.578125 188.88497 42.578125 187.68359 C 42.578125 186.56803 42.420205 185.6752 42.103516 185.00586 C 41.793424 184.31936 41.246063 183.97656 40.460938 183.97656 L 38.185547 183.97656 z M 123.41406 183.97656 L 123.41406 191.62305 L 125.69922 191.62305 C 126.47115 191.62305 127.01534 191.27007 127.33203 190.56641 C 127.64872 189.84558 127.80859 188.88497 127.80859 187.68359 C 127.80859 186.56803 127.64872 185.6752 127.33203 185.00586 C 127.02194 184.31936 126.47458 183.97656 125.68945 183.97656 L 123.41406 183.97656 z "
       style="fill:#ff0000;fill-opacity:1;stroke-width:1.51479793" />
  </g>
</svg>
