<?xml version="1.0" encoding="UTF-8" standalone="no"?>
<svg
   xmlns:dc="http://purl.org/dc/elements/1.1/"
   xmlns:cc="http://creativecommons.org/ns#"
   xmlns:rdf="http://www.w3.org/1999/02/22-rdf-syntax-ns#"
   xmlns:svg="http://www.w3.org/2000/svg"
   xmlns="http://www.w3.org/2000/svg"
   id="svg8"
   version="1.1"
   viewBox="0 0 53.08358 63.700504"
   height="63.700504mm"
   width="53.08358mm">
  <defs
     id="defs2" />
  <metadata
     id="metadata5">
    <rdf:RDF>
      <cc:Work
         rdf:about="">
        <dc:format>image/svg+xml</dc:format>
        <dc:type
           rdf:resource="http://purl.org/dc/dcmitype/StillImage" />
        <dc:title></dc:title>
      </cc:Work>
    </rdf:RDF>
  </metadata>
  <g
     transform="translate(-81.893206,-94.490196)"
     id="layer1">
    <path
       id="rect3716"
       transform="matrix(0.26458333,0,0,0.26458333,81.893206,94.490196)"
       d="m 0,0 v 112.51172 h 200.62109 v 6.05273 H 0 V 240.75781 H 200.63086 V 0 Z m 63.824219,29.744141 c 8.994705,0 15.845383,1.679995 20.550781,5.041015 4.737449,3.329008 7.552942,8.643214 8.449219,15.941406 l -20.501953,1.199219 c -0.544139,-3.168945 -1.69649,-5.473647 -3.457032,-6.914062 -1.728521,-1.440454 -4.128249,-2.160119 -7.201172,-2.160157 -2.528757,0 -4.43446,0.544498 -5.714843,1.632813 -1.280383,1.056302 -1.919922,2.352218 -1.919922,3.888672 0,1.120327 0.527667,2.129113 1.583984,3.025391 1.024305,0.928251 3.457676,1.791557 7.298828,2.591796 9.506865,2.048618 16.309016,4.129545 20.40625,6.242188 4.12921,2.08063 7.121974,4.674377 8.978516,7.779297 1.888554,3.104957 2.832031,6.576835 2.832031,10.417969 0,4.51336 -1.247384,8.675253 -3.74414,12.484374 -2.496756,3.80916 -5.985449,6.706815 -10.466797,8.691407 -4.481348,1.952581 -10.131182,2.927731 -16.949219,2.927731 -11.971586,0 -20.261714,-2.3047 -24.871094,-6.914059 C 34.488273,91.009742 31.879667,85.152992 31.271484,78.046875 L 51.964844,76.75 c 0.448131,3.360983 1.359918,5.921099 2.736328,7.681641 2.240674,2.848856 5.442267,4.273437 9.603516,4.273437 3.104927,0 5.489792,-0.71974 7.154296,-2.160156 1.696517,-1.472428 2.544922,-3.169277 2.544922,-5.089844 0,-1.824529 -0.799912,-3.456031 -2.40039,-4.896484 -1.600479,-1.440416 -5.314877,-2.801679 -11.140625,-4.082032 -9.538859,-2.144655 -16.341032,-4.993816 -20.40625,-8.546874 -4.097231,-3.553097 -6.144532,-8.082253 -6.144532,-13.587891 0,-3.617084 1.040468,-7.025605 3.121094,-10.226563 2.112631,-3.23297 5.263778,-5.761408 9.457031,-7.585937 4.225267,-1.85658 10.003788,-2.785156 17.333985,-2.785156 z m 64.531251,1.199218 v 19.398438 h 10.75586 v 14.259765 h -10.75586 v 18.101563 c 0,2.176668 0.20899,3.618064 0.625,4.322266 0.64018,1.088352 1.76085,1.632812 3.36133,1.632812 1.44041,0 3.45603,-0.417748 6.04882,-1.25 l 1.44141,13.492187 c -4.83345,1.0563 -9.34774,1.58594 -13.54101,1.58594 -4.86547,0 -8.45115,-0.62467 -10.75586,-1.87305 -2.30468,-1.248377 -4.01636,-3.137246 -5.13672,-5.666014 -1.08832,-2.560781 -1.63282,-6.689006 -1.63282,-12.386719 V 64.601562 h -7.20117 V 50.341797 h 7.20117 v -9.363281 z m 20.11914,50.800782 h 20.88477 v 19.589839 h -20.88477 z m 3.56055,40.296879 c 5.10209,0 8.98718,0.9529 11.65625,2.85937 2.68724,1.88829 4.28458,4.90318 4.79297,9.04297 l -11.62891,0.67969 c -0.30879,-1.79755 -0.96231,-3.10482 -1.96094,-3.92188 -0.98048,-0.81706 -2.34289,-1.22461 -4.08594,-1.22461 -1.4344,0 -2.51396,0.30844 -3.24023,0.92578 -0.72627,0.59917 -1.08984,1.33551 -1.08984,2.20704 0,0.63548 0.29934,1.20642 0.89843,1.71484 0.58103,0.52652 1.96181,1.01678 4.14063,1.4707 5.39259,1.16202 9.25011,2.34268 11.57422,3.54102 2.34221,1.18019 4.04066,2.65088 5.09375,4.41211 1.07127,1.76122 1.60742,3.73133 1.60742,5.91015 0,2.56014 -0.70877,4.9194 -2.125,7.08008 -1.41627,2.16068 -3.39554,3.80396 -5.9375,4.92969 -2.54196,1.10755 -5.74588,1.66211 -9.61328,1.66211 -6.79068,0 -11.49282,-1.30728 -14.10742,-3.92188 -2.61461,-2.6146 -4.0945,-5.93792 -4.43946,-9.96875 l 11.73828,-0.73437 c 0.25437,1.90647 0.772,3.35879 1.55274,4.35742 1.27102,1.61597 3.08492,2.42383 5.44531,2.42383 1.76122,0 3.11443,-0.40951 4.05859,-1.22656 0.96231,-0.83524 1.44336,-1.79731 1.44336,-2.88672 0,-1.03495 -0.45348,-1.96029 -1.36132,-2.77735 -0.90781,-0.81706 -3.01381,-1.58818 -6.31836,-2.31445 -5.41074,-1.21652 -9.27025,-2.83226 -11.57618,-4.84766 -2.32406,-2.01543 -3.48437,-4.58599 -3.48437,-7.70898 0,-2.05172 0.58934,-3.9851 1.76953,-5.80078 1.19838,-1.83387 2.9867,-3.26779 5.36523,-4.30274 2.39672,-1.05309 5.67414,-1.58007 9.83204,-1.58007 z m -121.197269,0.68164 h 12.365234 v 39.92578 H 30.837891 Z m 17.267578,0 h 12.910156 l 8.986328,28.73242 8.851563,-28.73242 H 91.382812 L 76.566406,162.64844 H 63.193359 Z m 47.30664,0 h 33.064451 v 8.52343 h -20.69922 v 6.34571 h 19.20118 v 8.14453 h -19.20118 v 7.87109 h 21.29883 v 9.04102 H 95.412109 Z M 55.6875,169.82031 c 2.799996,0 4.957904,1.61816 6.472656,4.85352 1.514752,3.21893 2.271485,7.73504 2.271485,13.54883 0,4.22074 -0.332474,7.68667 -0.998047,10.39648 -0.657923,2.69339 -1.614498,4.79376 -2.869141,6.30469 -1.246993,1.4945 -2.803258,2.24219 -4.669922,2.24219 -1.897265,0 -3.469804,-0.64789 -4.716797,-1.94532 -1.239342,-1.29742 -2.244901,-3.34985 -3.017578,-6.1582 C 47.38748,196.25415 47,192.73832 47,188.51758 c 0,-5.8959 0.764869,-10.48491 2.294922,-13.76953 1.530052,-3.28463 3.661434,-4.92774 6.392578,-4.92774 z m 19.578125,0 c 2.799996,0 4.955951,1.61816 6.470703,4.85352 1.514752,3.21893 2.273438,7.73504 2.273438,13.54883 0,4.22074 -0.334428,7.68667 -1,10.39648 -0.657923,2.69339 -1.612545,4.79376 -2.867188,6.30469 -1.246993,1.4945 -2.805211,2.24219 -4.671875,2.24219 -1.897265,0 -3.469804,-0.64789 -4.716797,-1.94532 -1.239342,-1.29742 -2.244901,-3.34985 -3.017578,-6.1582 -0.772676,-2.80835 -1.158203,-6.32418 -1.158203,-10.54492 0,-5.8959 0.764869,-10.48491 2.294922,-13.76953 1.530052,-3.28463 3.661434,-4.92774 6.392578,-4.92774 z m -61.154297,0.61524 h 9.732422 c 1.621856,0 2.864036,0.86346 3.728516,2.58789 0.87213,1.72442 1.308593,3.85871 1.308593,6.40429 0,2.13501 -0.310016,3.9668 -0.929687,5.49415 -0.413114,1.01823 -1.016873,1.82283 -1.8125,2.41406 1.208741,0.62408 2.09599,1.69921 2.662109,3.22656 0.57377,1.51093 0.861328,3.41561 0.861328,5.71484 0,1.87224 -0.203911,3.55628 -0.609375,5.05078 -0.405464,1.49451 -0.960238,2.67645 -1.664062,3.54688 -0.436065,0.54196 -1.092876,0.93725 -1.972656,1.18359 -1.170491,0.32847 -1.947565,0.49219 -2.330078,0.49219 h -8.97461 z m 18.269531,0 h 5.199219 v 27.22265 h 8.113281 v 8.89258 h -13.3125 z m 54.496094,0 h 7.724609 c 1.522403,0 2.750262,0.44323 3.683594,1.33007 0.940983,0.88685 1.716104,2.15963 2.328124,3.81836 0.61202,1.65874 1.05662,3.58837 1.33203,5.78907 0.27541,2.20069 0.41211,4.53458 0.41211,6.99804 0,3.85944 -0.20602,6.85523 -0.61914,8.99024 -0.40546,2.11858 -0.97244,3.90047 -1.69922,5.3457 -0.726772,1.42881 -1.505963,2.38115 -2.339841,2.85742 -1.139889,0.65693 -2.171975,0.98633 -3.097657,0.98633 h -7.724609 z m 26.060547,0 h 9.73242 c 1.62186,0 2.86404,0.86346 3.72852,2.58789 0.87213,1.72442 1.30859,3.85871 1.30859,6.40429 0,2.13501 -0.31001,3.9668 -0.92969,5.49415 -0.41311,1.01823 -1.01687,1.82283 -1.8125,2.41406 1.20875,0.62408 2.09599,1.69921 2.66211,3.22656 0.57377,1.51093 0.86133,3.41561 0.86133,5.71484 0,1.87224 -0.20391,3.55628 -0.60937,5.05078 -0.40547,1.49451 -0.96024,2.67645 -1.66407,3.54688 -0.43606,0.54196 -1.09287,0.93725 -1.97265,1.18359 -1.17049,0.32847 -1.94757,0.49219 -2.33008,0.49219 h -8.97461 z m 22.49219,0 h 5.66992 l 6.32227,36.11523 h -5.43946 l -0.82617,-5.96094 h -5.92187 l -0.81446,5.96094 h -5.3125 z m 13.6914,0 h 4.85352 l 6.33398,19.97851 v -19.97851 h 4.90039 v 36.11523 h -4.90039 l -6.29882,-19.83203 v 19.83203 h -4.88868 z m 19.56446,0 h 5.19922 v 13.64843 l 5.45117,-13.64843 h 6.9082 l -6.12891,13.62304 6.4043,22.49219 h -6.4043 l -3.54492,-14.85547 -2.68554,6.03516 v 8.82031 h -5.19922 z m -149.328128,7.3164 v 6.84961 h 2.259766 c 0.810927,0 1.373839,-0.29548 1.6875,-0.88672 0.321311,-0.60765 0.480468,-1.47813 0.480468,-2.61132 0,-1.05108 -0.159157,-1.87362 -0.480468,-2.46485 -0.313661,-0.59123 -0.864367,-0.88672 -1.652344,-0.88672 z m 98.826168,0 v 6.84961 h 2.25977 c 0.81093,0 1.37384,-0.29548 1.6875,-0.88672 0.32131,-0.60765 0.48047,-1.47813 0.48047,-2.61132 0,-1.05108 -0.15916,-1.87362 -0.48047,-2.46485 -0.31366,-0.59123 -0.86437,-0.88672 -1.65234,-0.88672 z m -62.507809,0.51758 c -1.048086,0 -1.888465,0.79758 -2.523437,2.39063 -0.634972,1.59304 -0.953125,4.22747 -0.953125,7.90625 0,3.64593 0.314084,6.26633 0.941406,7.85937 0.634972,1.59304 1.495694,2.38867 2.582031,2.38867 1.116939,0 1.981729,-0.77964 2.59375,-2.33984 0.612021,-1.5602 0.917969,-4.3603 0.917969,-8.40039 0,-3.39959 -0.322222,-5.87926 -0.964844,-7.43945 -0.634972,-1.57662 -1.499762,-2.36524 -2.59375,-2.36524 z m 19.578125,0 c -1.048086,0 -1.890419,0.79758 -2.52539,2.39063 -0.634972,1.59304 -0.953125,4.22747 -0.953125,7.90625 0,3.64593 0.314084,6.26633 0.941406,7.85937 0.634972,1.59304 1.495694,2.38867 2.582031,2.38867 1.116938,0 1.981729,-0.77964 2.59375,-2.33984 0.612021,-1.5602 0.917969,-4.3603 0.917969,-8.40039 0,-3.39959 -0.322222,-5.87926 -0.964844,-7.43945 -0.634972,-1.57662 -1.497809,-2.36524 -2.591797,-2.36524 z m 16.822266,0.3457 v 19.73243 h 1.273437 c 1.086338,0 1.859344,-0.25456 2.31836,-0.76368 0.459016,-0.52554 0.818016,-1.42993 1.078125,-2.71093 0.260109,-1.29743 0.390625,-3.39078 0.390625,-6.28125 0,-3.82659 -0.291627,-6.44504 -0.873047,-7.85742 -0.58142,-1.41239 -1.544179,-2.11915 -2.890625,-2.11915 z m 46.130858,1.18165 -1.84765,12.98242 h 3.70703 z M 19.357422,191.47461 v 7.31641 h 2.65039 c 0.895081,0 1.525366,-0.33642 1.892579,-1.00977 0.367212,-0.68977 0.550781,-1.61015 0.550781,-2.75977 0,-1.0675 -0.183569,-1.92199 -0.550781,-2.5625 -0.359563,-0.65692 -0.993916,-0.98437 -1.904297,-0.98437 z m 98.826168,0 v 7.31641 h 2.65039 c 0.89509,0 1.52537,-0.33642 1.89258,-1.00977 0.36722,-0.68977 0.55078,-1.61015 0.55078,-2.75977 0,-1.0675 -0.18356,-1.92199 -0.55078,-2.5625 -0.35956,-0.65692 -0.99391,-0.98437 -1.90429,-0.98437 z"
       style="fill:#ff0000;fill-opacity:1;stroke-width:1.49147677" />
  </g>
</svg>
