<?xml version="1.0" encoding="UTF-8" standalone="no"?>
<svg
   xmlns:dc="http://purl.org/dc/elements/1.1/"
   xmlns:cc="http://creativecommons.org/ns#"
   xmlns:rdf="http://www.w3.org/1999/02/22-rdf-syntax-ns#"
   xmlns:svg="http://www.w3.org/2000/svg"
   xmlns="http://www.w3.org/2000/svg"
   id="svg8"
   version="1.1"
   viewBox="0 0 57.152542 61.030052"
   height="61.030052mm"
   width="57.152542mm">
  <defs
     id="defs2" />
  <metadata
     id="metadata5">
    <rdf:RDF>
      <cc:Work
         rdf:about="">
        <dc:format>image/svg+xml</dc:format>
        <dc:type
           rdf:resource="http://purl.org/dc/dcmitype/StillImage" />
        <dc:title></dc:title>
      </cc:Work>
    </rdf:RDF>
  </metadata>
  <g
     transform="translate(-93.709918,-92.048806)"
     id="layer1">
    <path
       id="rect3716"
       transform="matrix(0.26458333,0,0,0.26458333,93.709918,92.048806)"
       d="M 0 0 L 0 107.79492 L 216 107.79492 L 216 113.59375 L 0 113.59375 L 0 230.66406 L 216.00977 230.66406 L 216.00977 0 L 0 0 z M 68.716797 28.498047 C 78.400929 28.498047 85.775718 30.106052 90.841797 33.326172 C 95.942383 36.51564 98.974464 41.60737 99.939453 48.599609 L 77.865234 49.748047 C 77.27937 46.711952 76.040002 44.505019 74.144531 43.125 C 72.28353 41.744906 69.69911 41.054725 66.390625 41.054688 C 63.668042 41.054688 61.616788 41.576482 60.238281 42.619141 C 58.859736 43.631185 58.169922 44.873653 58.169922 46.345703 C 58.169922 47.419051 58.739655 48.385432 59.876953 49.244141 C 60.979781 50.133463 63.598778 50.959885 67.734375 51.726562 C 77.96994 53.689309 85.293765 55.682943 89.705078 57.707031 C 94.150785 59.700392 97.372253 62.185403 99.371094 65.160156 C 101.4044 68.134947 102.41992 71.46249 102.41992 75.142578 C 102.41992 79.466736 101.07682 83.454042 98.388672 87.103516 C 95.700558 90.75299 91.945925 93.528283 87.121094 95.429688 C 82.296224 97.300402 76.213683 98.234375 68.873047 98.234375 C 55.9838 98.234375 47.056459 96.027442 42.09375 91.611328 C 37.131041 87.195177 34.322772 81.583605 33.667969 74.775391 L 55.947266 73.533203 C 56.42976 76.753285 57.412616 79.205813 58.894531 80.892578 C 61.306966 83.621964 64.754161 84.986328 69.234375 84.986328 C 72.577292 84.986328 75.143446 84.296035 76.935547 82.916016 C 78.762117 81.505307 79.675781 79.881079 79.675781 78.041016 C 79.675781 76.292984 78.814959 74.729666 77.091797 73.349609 C 75.368635 71.969553 71.369971 70.664183 65.097656 69.4375 C 54.827622 67.38276 47.503759 64.654107 43.126953 61.25 C 38.715678 57.845855 36.511719 53.505291 36.511719 48.230469 C 36.511719 44.76502 37.630968 41.50034 39.871094 38.433594 C 42.145651 35.33612 45.540004 32.914085 50.054688 31.166016 C 54.60384 29.387268 60.82469 28.498047 68.716797 28.498047 z M 138.19336 29.646484 L 138.19336 48.230469 L 149.77539 48.230469 L 149.77539 61.892578 L 138.19336 61.892578 L 138.19336 79.236328 C 138.19336 81.321758 138.41912 82.70227 138.86719 83.376953 C 139.55642 84.419649 140.76317 84.941406 142.48633 84.941406 C 144.03714 84.941406 146.20653 84.54147 148.99805 83.744141 L 150.55078 96.669922 C 145.34683 97.681928 140.48542 98.189453 135.9707 98.189453 C 130.73232 98.189453 126.87204 97.590525 124.39062 96.394531 C 121.90929 95.198462 120.06756 93.38955 118.86133 90.966797 C 117.68956 88.513392 117.10352 84.558457 117.10352 79.099609 L 117.10352 61.892578 L 109.34961 61.892578 L 109.34961 48.230469 L 117.10352 48.230469 L 117.10352 39.259766 L 138.19336 29.646484 z M 159.85547 78.316406 L 182.3418 78.316406 L 182.3418 97.085938 L 159.85547 97.085938 L 159.85547 78.316406 z M 163.68945 116.92578 C 169.18262 116.92578 173.36463 117.83753 176.23828 119.66406 C 179.13151 121.47317 180.85109 124.36189 181.39844 128.32812 L 168.87891 128.97852 C 168.54631 127.25634 167.84274 126.00551 166.76758 125.22266 C 165.71192 124.43984 164.24579 124.04883 162.36914 124.04883 C 160.82479 124.04883 159.66081 124.34416 158.87891 124.93555 C 158.09696 125.50962 157.70703 126.21585 157.70703 127.05078 C 157.70703 127.65966 158.02893 128.20625 158.67383 128.69336 C 159.29942 129.19781 160.78502 129.66665 163.13086 130.10156 C 168.93682 131.21486 173.09151 132.34603 175.59375 133.49414 C 178.11553 134.62486 179.9443 136.03529 181.07812 137.72266 C 182.23152 139.41006 182.80859 141.29726 182.80859 143.38477 C 182.80859 145.83757 182.04434 148.09785 180.51953 150.16797 C 178.99472 152.23805 176.86375 153.81206 174.12695 154.89062 C 171.39012 155.95173 167.94117 156.48242 163.77734 156.48242 C 156.46615 156.48242 151.40292 155.2296 148.58789 152.72461 C 145.77286 150.21961 144.18001 147.03567 143.80859 143.17383 L 156.44727 142.4707 C 156.7209 144.29724 157.27854 145.6897 158.11914 146.64648 C 159.48756 148.19473 161.43915 148.96875 163.98047 148.96875 C 165.8767 148.96875 167.33506 148.57578 168.35156 147.79297 C 169.38764 146.99277 169.9043 146.07106 169.9043 145.02734 C 169.9043 144.03578 169.41688 143.15 168.43945 142.36719 C 167.46207 141.58437 165.19454 140.84429 161.63672 140.14844 C 155.81122 138.98294 151.65652 137.43483 149.17383 135.50391 C 146.67163 133.57295 145.42188 131.1112 145.42188 128.11914 C 145.42188 126.15341 146.05553 124.30011 147.32617 122.56055 C 148.61643 120.8036 150.54266 119.43101 153.10352 118.43945 C 155.68395 117.43055 159.21283 116.92578 163.68945 116.92578 z M 33.201172 117.57812 L 46.515625 117.57812 L 46.515625 155.83008 L 33.201172 155.83008 L 33.201172 117.57812 z M 51.792969 117.57812 L 65.693359 117.57812 L 75.367188 145.10547 L 84.898438 117.57812 L 98.386719 117.57812 L 82.435547 155.83008 L 68.037109 155.83008 L 51.792969 117.57812 z M 102.72656 117.57812 L 138.32422 117.57812 L 138.32422 125.74414 L 116.03906 125.74414 L 116.03906 131.82422 L 136.71094 131.82422 L 136.71094 139.62695 L 116.03906 139.62695 L 116.03906 147.16797 L 138.9707 147.16797 L 138.9707 155.83008 L 102.72656 155.83008 L 102.72656 117.57812 z M 120.23242 159.14648 C 121.89156 159.14648 123.19426 160.01861 124.14062 161.76367 C 125.09298 163.50873 125.80052 166.18797 126.26172 169.80273 L 122.66797 171.88281 C 122.54219 170.83889 122.40925 170.07676 122.27148 169.59375 C 122.04388 168.78354 121.76693 168.15892 121.4375 167.72266 C 121.10807 167.28639 120.73933 167.06836 120.33203 167.06836 C 119.40962 167.06836 118.70209 168.03477 118.21094 169.9668 C 117.83958 171.40024 117.6543 173.65127 117.6543 176.7207 C 117.6543 180.52243 117.87513 183.13292 118.31836 184.55078 C 118.76159 185.95306 119.38489 186.6543 120.1875 186.6543 C 120.96615 186.6543 121.5539 186.08467 121.94922 184.94727 C 122.35053 183.80986 122.64062 182.15988 122.82031 179.99414 L 126.38672 182.79688 C 126.14713 185.39888 125.77097 187.5733 125.25586 189.31836 C 124.74075 191.06342 124.09871 192.37947 123.33203 193.26758 C 122.57135 194.15569 121.60184 194.59961 120.42188 194.59961 C 118.99035 194.59961 117.81863 194.06336 116.9082 192.98828 C 116.00377 191.89762 115.22136 189.98837 114.5625 187.26172 C 113.90364 184.53507 113.57422 181.04459 113.57422 176.79102 C 113.57422 171.11958 114.15259 166.76483 115.30859 163.72656 C 116.47059 160.67271 118.11209 159.14648 120.23242 159.14648 z M 176.4668 159.14648 C 178.12593 159.14648 179.42863 160.01861 180.375 161.76367 C 181.32735 163.50873 182.03294 166.18797 182.49414 169.80273 L 178.90039 171.88281 C 178.77461 170.83889 178.64362 170.07676 178.50586 169.59375 C 178.27825 168.78354 177.99935 168.15892 177.66992 167.72266 C 177.34049 167.28639 176.97175 167.06836 176.56445 167.06836 C 175.64205 167.06836 174.93646 168.03477 174.44531 169.9668 C 174.07395 171.40024 173.88867 173.65127 173.88867 176.7207 C 173.88867 180.52243 174.1095 183.13292 174.55273 184.55078 C 174.99597 185.95306 175.61926 186.6543 176.42188 186.6543 C 177.20053 186.6543 177.78632 186.08467 178.18164 184.94727 C 178.58295 183.80986 178.875 182.15988 179.05469 179.99414 L 182.62109 182.79688 C 182.38151 185.39888 182.00339 187.5733 181.48828 189.31836 C 180.97317 191.06342 180.33308 192.37947 179.56641 193.26758 C 178.80572 194.15569 177.83426 194.59961 176.6543 194.59961 C 175.22277 194.59961 174.05301 194.06336 173.14258 192.98828 C 172.23814 191.89762 171.45574 189.98837 170.79688 187.26172 C 170.13801 184.53507 169.80859 181.04459 169.80859 176.79102 C 169.80859 171.11958 170.38697 166.76483 171.54297 163.72656 C 172.70496 160.67271 174.34646 159.14648 176.4668 159.14648 z M 33.388672 159.73047 L 43.451172 159.73047 L 43.451172 167.0918 L 37.476562 167.0918 L 37.476562 173.07617 L 42.580078 173.07617 L 42.580078 179.99414 L 37.476562 179.99414 L 37.476562 193.99219 L 33.388672 193.99219 L 33.388672 159.73047 z M 47.53125 159.73047 L 51.96875 159.73047 L 56.919922 193.99219 L 52.660156 193.99219 L 52.013672 188.33594 L 47.376953 188.33594 L 46.740234 193.99219 L 42.580078 193.99219 L 47.53125 159.73047 z M 58.177734 159.73047 L 63.53125 159.73047 L 65.597656 180.57812 L 67.65625 159.73047 L 72.992188 159.73047 L 72.992188 193.99219 L 69.667969 193.99219 L 69.667969 167.86328 L 67.089844 193.99219 L 64.080078 193.99219 L 61.509766 167.86328 L 61.509766 193.99219 L 58.177734 193.99219 L 58.177734 159.73047 z M 75.75 159.73047 L 79.830078 159.73047 L 79.830078 193.99219 L 75.75 193.99219 L 75.75 159.73047 z M 82.75 159.73047 L 86.820312 159.73047 L 86.820312 185.55469 L 93.171875 185.55469 L 93.171875 193.99219 L 82.75 193.99219 L 82.75 159.73047 z M 92.273438 159.73047 L 96.792969 159.73047 L 99.451172 171.29883 L 102.11133 159.73047 L 106.60352 159.73047 L 101.48242 179.64258 L 101.48242 193.99219 L 97.402344 193.99219 L 97.402344 179.64258 L 92.273438 159.73047 z M 128.36328 159.73047 L 132.43359 159.73047 L 132.43359 185.55469 L 138.78516 185.55469 L 138.78516 193.99219 L 128.36328 193.99219 L 128.36328 159.73047 z M 140.79883 159.73047 L 144.87695 159.73047 L 144.87695 193.99219 L 140.79883 193.99219 L 140.79883 159.73047 z M 147.82422 159.73047 L 151.625 159.73047 L 156.58398 178.68359 L 156.58398 159.73047 L 160.41992 159.73047 L 160.41992 193.99219 L 156.58398 193.99219 L 151.65234 175.17773 L 151.65234 193.99219 L 147.82422 193.99219 L 147.82422 159.73047 z M 163.28711 159.73047 L 167.36523 159.73047 L 167.36523 193.99219 L 163.28711 193.99219 L 163.28711 159.73047 z M 49.705078 168.61133 L 48.257812 180.92773 L 51.160156 180.92773 L 49.705078 168.61133 z "
       style="fill:#ff0000;fill-opacity:1;stroke-width:1.51479793" />
  </g>
</svg>
