<?xml version="1.0" encoding="UTF-8" standalone="no"?>
<svg
   xmlns:dc="http://purl.org/dc/elements/1.1/"
   xmlns:cc="http://creativecommons.org/ns#"
   xmlns:rdf="http://www.w3.org/1999/02/22-rdf-syntax-ns#"
   xmlns:svg="http://www.w3.org/2000/svg"
   xmlns="http://www.w3.org/2000/svg"
   id="svg8"
   version="1.1"
   viewBox="0 0 57.152542 61.030052"
   height="61.030052mm"
   width="57.152542mm">
  <defs
     id="defs2" />
  <metadata
     id="metadata5">
    <rdf:RDF>
      <cc:Work
         rdf:about="">
        <dc:format>image/svg+xml</dc:format>
        <dc:type
           rdf:resource="http://purl.org/dc/dcmitype/StillImage" />
        <dc:title></dc:title>
      </cc:Work>
    </rdf:RDF>
  </metadata>
  <g
     transform="translate(-93.709918,-92.048806)"
     id="layer1">
    <path
       id="rect3716"
       transform="matrix(0.26458333,0,0,0.26458333,93.709918,92.048806)"
       d="M 0 0 L 0 107.79492 L 216 107.79492 L 216 113.59375 L 0 113.59375 L 0 230.66406 L 216.00977 230.66406 L 216.00977 0 L 0 0 z M 68.716797 28.498047 C 78.400929 28.498047 85.775718 30.106052 90.841797 33.326172 C 95.942383 36.51564 98.974464 41.60737 99.939453 48.599609 L 77.865234 49.748047 C 77.27937 46.711952 76.040002 44.505019 74.144531 43.125 C 72.28353 41.744906 69.69911 41.054725 66.390625 41.054688 C 63.668042 41.054688 61.616788 41.576482 60.238281 42.619141 C 58.859736 43.631185 58.169922 44.873653 58.169922 46.345703 C 58.169922 47.419051 58.739655 48.385432 59.876953 49.244141 C 60.979781 50.133463 63.598778 50.959885 67.734375 51.726562 C 77.96994 53.689309 85.293765 55.682943 89.705078 57.707031 C 94.150785 59.700392 97.372253 62.185403 99.371094 65.160156 C 101.4044 68.134947 102.41992 71.46249 102.41992 75.142578 C 102.41992 79.466736 101.07682 83.454042 98.388672 87.103516 C 95.700558 90.75299 91.945925 93.528283 87.121094 95.429688 C 82.296224 97.300402 76.213683 98.234375 68.873047 98.234375 C 55.9838 98.234375 47.056459 96.027442 42.09375 91.611328 C 37.131041 87.195177 34.322772 81.583605 33.667969 74.775391 L 55.947266 73.533203 C 56.42976 76.753285 57.412616 79.205813 58.894531 80.892578 C 61.306966 83.621964 64.754161 84.986328 69.234375 84.986328 C 72.577292 84.986328 75.143446 84.296035 76.935547 82.916016 C 78.762117 81.505307 79.675781 79.881079 79.675781 78.041016 C 79.675781 76.292984 78.814959 74.729666 77.091797 73.349609 C 75.368635 71.969553 71.369971 70.664183 65.097656 69.4375 C 54.827622 67.38276 47.503759 64.654107 43.126953 61.25 C 38.715678 57.845855 36.511719 53.505291 36.511719 48.230469 C 36.511719 44.76502 37.630968 41.50034 39.871094 38.433594 C 42.145651 35.33612 45.540004 32.914085 50.054688 31.166016 C 54.60384 29.387268 60.82469 28.498047 68.716797 28.498047 z M 138.19336 29.646484 L 138.19336 48.230469 L 149.77539 48.230469 L 149.77539 61.892578 L 138.19336 61.892578 L 138.19336 79.236328 C 138.19336 81.321758 138.41912 82.70227 138.86719 83.376953 C 139.55642 84.419649 140.76317 84.941406 142.48633 84.941406 C 144.03714 84.941406 146.20653 84.54147 148.99805 83.744141 L 150.55078 96.669922 C 145.34683 97.681928 140.48542 98.189453 135.9707 98.189453 C 130.73232 98.189453 126.87204 97.590525 124.39062 96.394531 C 121.90929 95.198462 120.06756 93.38955 118.86133 90.966797 C 117.68956 88.513392 117.10352 84.558457 117.10352 79.099609 L 117.10352 61.892578 L 109.34961 61.892578 L 109.34961 48.230469 L 117.10352 48.230469 L 117.10352 39.259766 L 138.19336 29.646484 z M 159.85547 78.316406 L 182.3418 78.316406 L 182.3418 97.085938 L 159.85547 97.085938 L 159.85547 78.316406 z M 163.68945 116.92578 C 169.18262 116.92578 173.36463 117.83753 176.23828 119.66406 C 179.13151 121.47317 180.85109 124.36189 181.39844 128.32812 L 168.87891 128.97852 C 168.54631 127.25634 167.84274 126.00551 166.76758 125.22266 C 165.71192 124.43984 164.24579 124.04883 162.36914 124.04883 C 160.82479 124.04883 159.66081 124.34416 158.87891 124.93555 C 158.09696 125.50962 157.70703 126.21585 157.70703 127.05078 C 157.70703 127.65966 158.02893 128.20625 158.67383 128.69336 C 159.29942 129.19781 160.78502 129.66665 163.13086 130.10156 C 168.93682 131.21486 173.09151 132.34603 175.59375 133.49414 C 178.11553 134.62486 179.9443 136.03529 181.07812 137.72266 C 182.23152 139.41006 182.80859 141.29726 182.80859 143.38477 C 182.80859 145.83757 182.04434 148.09785 180.51953 150.16797 C 178.99472 152.23805 176.86375 153.81206 174.12695 154.89062 C 171.39012 155.95173 167.94117 156.48242 163.77734 156.48242 C 156.46615 156.48242 151.40292 155.2296 148.58789 152.72461 C 145.77286 150.21961 144.18001 147.03567 143.80859 143.17383 L 156.44727 142.4707 C 156.7209 144.29724 157.27854 145.6897 158.11914 146.64648 C 159.48756 148.19473 161.43915 148.96875 163.98047 148.96875 C 165.8767 148.96875 167.33506 148.57578 168.35156 147.79297 C 169.38764 146.99277 169.9043 146.07106 169.9043 145.02734 C 169.9043 144.03578 169.41688 143.15 168.43945 142.36719 C 167.46207 141.58437 165.19454 140.84429 161.63672 140.14844 C 155.81122 138.98294 151.65652 137.43483 149.17383 135.50391 C 146.67163 133.57295 145.42188 131.1112 145.42188 128.11914 C 145.42188 126.15341 146.05553 124.30011 147.32617 122.56055 C 148.61643 120.8036 150.54266 119.43101 153.10352 118.43945 C 155.68395 117.43055 159.21283 116.92578 163.68945 116.92578 z M 33.201172 117.57812 L 46.515625 117.57812 L 46.515625 155.83008 L 33.201172 155.83008 L 33.201172 117.57812 z M 51.792969 117.57812 L 65.693359 117.57812 L 75.367188 145.10547 L 84.898438 117.57812 L 98.386719 117.57812 L 82.435547 155.83008 L 68.037109 155.83008 L 51.792969 117.57812 z M 102.72656 117.57812 L 138.32422 117.57812 L 138.32422 125.74414 L 116.03906 125.74414 L 116.03906 131.82422 L 136.71094 131.82422 L 136.71094 139.62695 L 116.03906 139.62695 L 116.03906 147.16797 L 138.9707 147.16797 L 138.9707 155.83008 L 102.72656 155.83008 L 102.72656 117.57812 z M 34.492188 161.36914 L 43.59375 161.36914 L 43.59375 168.02734 L 38.189453 168.02734 L 38.189453 173.43945 L 42.804688 173.43945 L 42.804688 179.69531 L 38.189453 179.69531 L 38.189453 192.35547 L 34.492188 192.35547 L 34.492188 161.36914 z M 45.566406 161.36914 L 55.431641 161.36914 L 55.431641 167.98633 L 49.255859 167.98633 L 49.255859 172.91016 L 54.984375 172.91016 L 54.984375 179.23047 L 49.255859 179.23047 L 49.255859 185.33789 L 55.609375 185.33789 L 55.609375 192.35547 L 45.566406 192.35547 L 45.566406 161.36914 z M 57.640625 161.36914 L 63.775391 161.36914 C 64.912909 161.36914 65.783506 161.6236 66.384766 162.13086 C 66.986025 162.63812 67.469552 163.58201 67.837891 164.96289 C 68.20623 166.32968 68.390625 167.99997 68.390625 169.97266 C 68.390625 171.69171 68.250421 173.17758 67.96875 174.43164 C 67.687079 175.67161 67.299565 176.6801 66.806641 177.45508 C 66.492469 177.94825 66.060764 178.3556 65.513672 178.67969 C 65.952429 179.06013 66.272236 179.44182 66.472656 179.82227 C 66.608075 180.0759 66.804006 180.61787 67.058594 181.44922 C 67.318598 182.28056 67.491457 182.92215 67.578125 183.37305 L 69.357422 192.35547 L 65.197266 192.35547 L 63.230469 182.88672 C 62.981298 181.66084 62.759456 180.8644 62.564453 180.49805 C 62.299032 180.01897 61.999901 179.7793 61.664062 179.7793 L 61.337891 179.7793 L 61.337891 192.35547 L 57.640625 192.35547 L 57.640625 161.36914 z M 69.552734 161.36914 L 80.740234 161.36914 L 80.740234 169.02148 L 76.986328 169.02148 L 76.986328 192.35547 L 73.306641 192.35547 L 73.306641 169.02148 L 69.552734 169.02148 L 69.552734 161.36914 z M 82.552734 161.36914 L 86.242188 161.36914 L 86.242188 192.35547 L 82.552734 192.35547 L 82.552734 161.36914 z M 88.882812 161.36914 L 92.5625 161.36914 L 92.5625 184.72461 L 98.306641 184.72461 L 98.306641 192.35547 L 88.882812 192.35547 L 88.882812 161.36914 z M 100.12695 161.36914 L 103.81641 161.36914 L 103.81641 192.35547 L 100.12695 192.35547 L 100.12695 161.36914 z M 105.61914 161.36914 L 116.80859 161.36914 L 116.80859 169.02148 L 113.05469 169.02148 L 113.05469 192.35547 L 109.37305 192.35547 L 109.37305 169.02148 L 105.61914 169.02148 L 105.61914 161.36914 z M 117.27148 161.36914 L 121.35938 161.36914 L 123.76367 171.83203 L 126.16797 161.36914 L 130.23047 161.36914 L 125.59961 179.37695 L 125.59961 192.35547 L 121.91016 192.35547 L 121.91016 179.37695 L 117.27148 161.36914 z M 136.97461 161.36914 L 140.64844 161.36914 L 140.64844 180.28711 C 140.64844 181.97798 140.82609 183.30161 141.18359 184.25977 C 141.54652 185.20383 142.04832 185.67578 142.6875 185.67578 C 143.32126 185.67578 143.81632 185.21123 144.17383 184.28125 C 144.53675 183.33718 144.71875 182.00616 144.71875 180.28711 L 144.71875 161.36914 L 148.39062 161.36914 L 148.39062 179.8418 C 148.39062 181.67357 148.28068 183.40846 148.05859 185.04297 C 147.84192 186.66339 147.49665 188.08662 147.02539 189.3125 C 146.55955 190.52429 146.06928 191.37597 145.55469 191.86914 C 144.83968 192.55958 143.98061 192.9043 142.97852 192.9043 C 142.39892 192.9043 141.76605 192.79925 141.07812 192.58789 C 140.39561 192.37653 139.82371 191.95983 139.36328 191.33984 C 138.90286 190.70577 138.48029 189.81168 138.0957 188.65625 C 137.71653 187.50082 137.45724 186.30987 137.31641 185.08398 C 137.0889 183.1113 136.97461 181.36358 136.97461 179.8418 L 136.97461 161.36914 z M 150.85352 161.36914 L 154.28906 161.36914 L 158.77539 178.51172 L 158.77539 161.36914 L 162.24414 161.36914 L 162.24414 192.35547 L 158.77539 192.35547 L 154.31445 175.33984 L 154.31445 192.35547 L 150.85352 192.35547 L 150.85352 161.36914 z M 164.83594 161.36914 L 168.52539 161.36914 L 168.52539 192.35547 L 164.83594 192.35547 L 164.83594 161.36914 z M 170.32812 161.36914 L 181.51758 161.36914 L 181.51758 169.02148 L 177.76367 169.02148 L 177.76367 192.35547 L 174.08203 192.35547 L 174.08203 169.02148 L 170.32812 169.02148 L 170.32812 161.36914 z M 61.337891 167.62695 L 61.337891 173.92383 L 62.890625 173.92383 C 63.058544 173.92383 63.383143 173.78376 63.865234 173.50195 C 64.108988 173.37514 64.307315 173.05065 64.458984 172.5293 C 64.61607 172.00795 64.693359 171.40877 64.693359 170.73242 C 64.693359 169.73199 64.571879 168.96513 64.328125 168.42969 C 64.084371 167.89425 63.626755 167.62695 62.955078 167.62695 L 61.337891 167.62695 z "
       style="fill:#ff0000;fill-opacity:1;stroke-width:1.51479793" />
  </g>
</svg>
