<?xml version="1.0" encoding="UTF-8" standalone="no"?>
<svg
   xmlns:dc="http://purl.org/dc/elements/1.1/"
   xmlns:cc="http://creativecommons.org/ns#"
   xmlns:rdf="http://www.w3.org/1999/02/22-rdf-syntax-ns#"
   xmlns:svg="http://www.w3.org/2000/svg"
   xmlns="http://www.w3.org/2000/svg"
   id="svg8"
   version="1.1"
   viewBox="0 0 53.221581 63.700439"
   height="63.700439mm"
   width="53.221581mm">
  <defs
     id="defs2" />
  <metadata
     id="metadata5">
    <rdf:RDF>
      <cc:Work
         rdf:about="">
        <dc:format>image/svg+xml</dc:format>
        <dc:type
           rdf:resource="http://purl.org/dc/dcmitype/StillImage" />
        <dc:title></dc:title>
      </cc:Work>
    </rdf:RDF>
  </metadata>
  <g
     transform="translate(-75.560303,-94.490196)"
     id="layer1">
    <path
       id="rect3716"
       transform="matrix(0.26458333,0,0,0.26458333,75.560303,94.490196)"
       d="M 0.52148438 0 L 0.52148438 112.51172 L 201.14258 112.51172 L 201.14258 118.56445 L 0.52148438 118.56445 L 0.52148438 240.75781 L 201.15234 240.75781 L 201.15234 0 L 0.52148438 0 z M 64.345703 29.744141 C 73.340399 29.744141 80.191074 31.424149 84.896484 34.785156 C 89.633904 38.114154 92.449435 43.428378 93.345703 50.726562 L 72.84375 51.925781 C 72.299587 48.756832 71.147246 46.45215 69.386719 45.011719 C 67.658201 43.571287 65.258468 42.851563 62.185547 42.851562 C 59.656789 42.851562 57.751087 43.396049 56.470703 44.484375 C 55.190319 45.540692 54.550781 46.836586 54.550781 48.373047 C 54.550781 49.493383 55.078449 50.502169 56.134766 51.398438 C 57.159073 52.326713 59.592443 53.189995 63.433594 53.990234 C 72.940443 56.038848 79.742616 58.119789 83.839844 60.232422 C 87.969081 62.313045 90.961803 64.906788 92.818359 68.011719 C 94.706925 71.116649 95.650391 74.588536 95.650391 78.429688 C 95.650391 82.943037 94.402998 87.104924 91.90625 90.914062 C 89.409502 94.723204 85.920796 97.620874 81.439453 99.605469 C 76.95811 101.55805 71.308278 102.5332 64.490234 102.5332 C 52.51865 102.5332 44.228522 100.22852 39.619141 95.619141 C 35.009759 91.009759 32.401151 85.153005 31.792969 78.046875 L 52.486328 76.75 C 52.934462 80.111007 53.846244 82.671113 55.222656 84.431641 C 57.463328 87.280494 60.664925 88.705078 64.826172 88.705078 C 67.931102 88.705078 70.31597 87.985354 71.980469 86.544922 C 73.676977 85.072481 74.525391 83.375654 74.525391 81.455078 C 74.525391 79.630531 73.72548 77.999025 72.125 76.558594 C 70.52452 75.118162 66.810121 73.756946 60.984375 72.476562 C 51.445516 70.331923 44.643343 67.482749 40.578125 63.929688 C 36.480897 60.376623 34.433594 55.847447 34.433594 50.341797 C 34.433594 46.724713 35.474064 43.316194 37.554688 40.115234 C 39.667318 36.882266 42.818462 34.353844 47.011719 32.529297 C 51.236985 30.67274 57.015506 29.744141 64.345703 29.744141 z M 128.87695 30.943359 L 128.87695 50.341797 L 139.63281 50.341797 L 139.63281 64.601562 L 128.87695 64.601562 L 128.87695 82.703125 C 128.87695 84.879777 129.08583 86.32118 129.50195 87.025391 C 130.14214 88.113717 131.2628 88.658203 132.86328 88.658203 C 134.30371 88.658203 136.31933 88.240453 138.91211 87.408203 L 140.35352 100.90039 C 135.52007 101.95671 131.00576 102.48633 126.8125 102.48633 C 121.94704 102.48633 118.36133 101.86166 116.05664 100.61328 C 113.75195 99.36491 112.04026 97.476023 110.91992 94.947266 C 109.8316 92.386498 109.28711 88.258254 109.28711 82.560547 L 109.28711 64.601562 L 102.08594 64.601562 L 102.08594 50.341797 L 109.28711 50.341797 L 109.28711 40.978516 L 128.87695 30.943359 z M 148.99609 81.744141 L 169.88086 81.744141 L 169.88086 101.33398 L 148.99609 101.33398 L 148.99609 81.744141 z M 152.55664 122.04102 C 157.65872 122.04102 161.54383 122.99392 164.21289 124.90039 C 166.90011 126.7887 168.49747 129.80359 169.00586 133.94336 L 157.37695 134.62305 C 157.06829 132.82552 156.41464 131.51823 155.41602 130.70117 C 154.43554 129.88411 153.07314 129.47656 151.33008 129.47656 C 149.89569 129.47656 148.81612 129.78501 148.08984 130.40234 C 147.36357 131.00152 147 131.73785 147 132.60938 C 147 133.24486 147.29926 133.81583 147.89844 134.32422 C 148.47946 134.85077 149.86024 135.341 152.03906 135.79492 C 157.43165 136.95696 161.2892 138.13758 163.61328 139.33594 C 165.95552 140.51613 167.65393 141.98683 168.70703 143.74805 C 169.77829 145.50926 170.31445 147.47938 170.31445 149.6582 C 170.31445 152.21832 169.60569 154.57761 168.18945 156.73828 C 166.77322 158.89895 164.79391 160.54224 162.25195 161.66797 C 159.70999 162.77554 156.50608 163.33008 152.63867 163.33008 C 145.848 163.33008 141.14584 162.02279 138.53125 159.4082 C 135.91666 156.79361 134.43678 153.47028 134.0918 149.43945 L 145.83008 148.70508 C 146.08427 150.61155 146.60207 152.06387 147.38281 153.0625 C 148.65379 154.67846 150.46774 155.48633 152.82812 155.48633 C 154.58934 155.48633 155.94256 155.07682 156.88672 154.25977 C 157.84903 153.42455 158.33008 152.46246 158.33008 151.37305 C 158.33008 150.33811 157.87659 149.41276 156.96875 148.5957 C 156.06091 147.77864 153.95494 147.00752 150.65039 146.28125 C 145.23964 145.06474 141.38014 143.44901 139.07422 141.43359 C 136.75014 139.41818 135.58984 136.84759 135.58984 133.72461 C 135.58984 131.67288 136.17918 129.73951 137.35938 127.92383 C 138.55772 126.08998 140.34606 124.65604 142.72461 123.62109 C 145.12132 122.568 148.39872 122.04102 152.55664 122.04102 z M 31.359375 122.72266 L 43.724609 122.72266 L 43.724609 162.64844 L 31.359375 162.64844 L 31.359375 122.72266 z M 48.626953 122.72266 L 61.537109 122.72266 L 70.523438 151.45508 L 79.375 122.72266 L 91.904297 122.72266 L 77.087891 162.64844 L 63.714844 162.64844 L 48.626953 122.72266 z M 95.933594 122.72266 L 128.99805 122.72266 L 128.99805 131.24609 L 108.29883 131.24609 L 108.29883 137.5918 L 127.5 137.5918 L 127.5 145.73633 L 108.29883 145.73633 L 108.29883 153.60742 L 129.59766 153.60742 L 129.59766 162.64844 L 95.933594 162.64844 L 95.933594 122.72266 z M 127.14453 169.82031 C 129.26365 169.82031 130.92798 170.74069 132.13672 172.58008 C 133.35311 174.41947 134.25468 177.24452 134.84375 181.05469 L 130.25391 183.24609 C 130.09325 182.14575 129.92596 181.34115 129.75 180.83203 C 129.45929 179.97803 129.10241 179.32118 128.68164 178.86133 C 128.26088 178.40148 127.78975 178.17187 127.26953 178.17188 C 126.09139 178.17187 125.18982 179.1901 124.5625 181.22656 C 124.08818 182.73749 123.85156 185.11035 123.85156 188.3457 C 123.85156 192.35294 124.1331 195.10315 124.69922 196.59766 C 125.26534 198.07574 126.0608 198.81445 127.08594 198.81445 C 128.08047 198.81445 128.83102 198.21647 129.33594 197.01758 C 129.84851 195.81869 130.21971 194.07773 130.44922 191.79492 L 135.00391 194.75 C 134.6979 197.49266 134.21652 199.78366 133.55859 201.62305 C 132.90067 203.46244 132.08275 204.85099 131.10352 205.78711 C 130.13193 206.72323 128.89187 207.19141 127.38477 207.19141 C 125.55635 207.19141 124.06128 206.62538 122.89844 205.49219 C 121.74325 204.34257 120.74387 202.32912 119.90234 199.45508 C 119.06081 196.58103 118.64063 192.90343 118.64062 188.41992 C 118.64062 182.44191 119.37897 177.85094 120.85547 174.64844 C 122.33962 171.42951 124.43634 169.82031 127.14453 169.82031 z M 13.412109 170.43555 L 18.609375 170.43555 L 18.609375 183.07422 L 24.291016 183.07422 L 24.291016 170.43555 L 29.511719 170.43555 L 29.511719 206.55078 L 24.291016 206.55078 L 24.291016 191.94141 L 18.609375 191.94141 L 18.609375 206.55078 L 13.412109 206.55078 L 13.412109 170.43555 z M 32.953125 170.43555 L 46.884766 170.43555 L 46.884766 178.14648 L 38.164062 178.14648 L 38.164062 183.88672 L 46.253906 183.88672 L 46.253906 191.25195 L 38.164062 191.25195 L 38.164062 198.37109 L 47.136719 198.37109 L 47.136719 206.55078 L 32.953125 206.55078 L 32.953125 170.43555 z M 54.5625 170.43555 L 60.230469 170.43555 L 66.554688 206.55078 L 61.115234 206.55078 L 60.289062 200.58984 L 54.367188 200.58984 L 53.552734 206.55078 L 48.240234 206.55078 L 54.5625 170.43555 z M 68.21875 170.43555 L 73.416016 170.43555 L 73.416016 197.6582 L 81.529297 197.6582 L 81.529297 206.55078 L 68.21875 206.55078 L 68.21875 170.43555 z M 81.517578 170.43555 L 97.320312 170.43555 L 97.320312 179.35352 L 92.017578 179.35352 L 92.017578 206.55078 L 86.820312 206.55078 L 86.820312 179.35352 L 81.517578 179.35352 L 81.517578 170.43555 z M 99.695312 170.43555 L 104.89258 170.43555 L 104.89258 183.07422 L 110.57422 183.07422 L 110.57422 170.43555 L 115.79492 170.43555 L 115.79492 206.55078 L 110.57422 206.55078 L 110.57422 191.94141 L 104.89258 191.94141 L 104.89258 206.55078 L 99.695312 206.55078 L 99.695312 170.43555 z M 142.1543 170.43555 L 147.82227 170.43555 L 154.14648 206.55078 L 148.70703 206.55078 L 147.88086 200.58984 L 141.95898 200.58984 L 141.14453 206.55078 L 135.83008 206.55078 L 142.1543 170.43555 z M 155.87891 170.43555 L 164.54297 170.43555 C 166.14952 170.43555 167.37738 170.73103 168.22656 171.32227 C 169.07574 171.9135 169.75908 173.01553 170.2793 174.625 C 170.79951 176.21804 171.06055 178.16365 171.06055 180.46289 C 171.06055 182.46651 170.8607 184.1985 170.46289 185.66016 C 170.06508 187.10539 169.51844 188.28032 168.82227 189.18359 C 168.37855 189.7584 167.77072 190.2336 166.99805 190.61133 C 167.61772 191.05475 168.0685 191.49798 168.35156 191.94141 C 168.54282 192.23702 168.81817 192.87088 169.17773 193.83984 C 169.54495 194.80881 169.78971 195.55454 169.91211 196.08008 L 172.42578 206.55078 L 166.55078 206.55078 L 163.77344 195.51367 C 163.42153 194.08486 163.10744 193.15747 162.83203 192.73047 C 162.45717 192.17208 162.03291 191.89258 161.55859 191.89258 L 161.09961 191.89258 L 161.09961 206.55078 L 155.87891 206.55078 L 155.87891 170.43555 z M 174.07812 170.43555 L 188.00977 170.43555 L 188.00977 178.14648 L 179.28906 178.14648 L 179.28906 183.88672 L 187.37891 183.88672 L 187.37891 191.25195 L 179.28906 191.25195 L 179.28906 198.37109 L 188.26172 198.37109 L 188.26172 206.55078 L 174.07812 206.55078 L 174.07812 170.43555 z M 161.09961 177.72852 L 161.09961 185.06836 L 163.29102 185.06836 C 163.52817 185.06836 163.9871 184.90463 164.66797 184.57617 C 165.01223 184.42836 165.29165 184.05101 165.50586 183.44336 C 165.72772 182.8357 165.83984 182.13792 165.83984 181.34961 C 165.83984 180.18357 165.66653 179.28814 165.32227 178.66406 C 164.978 178.03998 164.33145 177.72852 163.38281 177.72852 L 161.09961 177.72852 z M 57.339844 179.79688 L 55.492188 192.7793 L 59.199219 192.7793 L 57.339844 179.79688 z M 144.93164 179.79688 L 143.08398 192.7793 L 146.78906 192.7793 L 144.93164 179.79688 z "
       style="fill:#ff0000;fill-opacity:1;stroke-width:1.49147689" />
  </g>
</svg>
