<?xml version="1.0" encoding="UTF-8" standalone="no"?>
<svg
   xmlns:dc="http://purl.org/dc/elements/1.1/"
   xmlns:cc="http://creativecommons.org/ns#"
   xmlns:rdf="http://www.w3.org/1999/02/22-rdf-syntax-ns#"
   xmlns:svg="http://www.w3.org/2000/svg"
   xmlns="http://www.w3.org/2000/svg"
   id="svg8"
   version="1.1"
   viewBox="0 0 57.152542 61.030052"
   height="61.030052mm"
   width="57.152542mm">
  <defs
     id="defs2" />
  <metadata
     id="metadata5">
    <rdf:RDF>
      <cc:Work
         rdf:about="">
        <dc:format>image/svg+xml</dc:format>
        <dc:type
           rdf:resource="http://purl.org/dc/dcmitype/StillImage" />
        <dc:title></dc:title>
      </cc:Work>
    </rdf:RDF>
  </metadata>
  <g
     transform="translate(-93.709918,-92.048806)"
     id="layer1">
    <path
       id="rect3716"
       transform="matrix(0.26458333,0,0,0.26458333,93.709918,92.048806)"
       d="M 0 0 L 0 107.79492 L 216 107.79492 L 216 113.59375 L 0 113.59375 L 0 230.66406 L 216.00977 230.66406 L 216.00977 0 L 0 0 z M 68.716797 28.498047 C 78.400929 28.498047 85.775718 30.106052 90.841797 33.326172 C 95.942383 36.51564 98.974464 41.60737 99.939453 48.599609 L 77.865234 49.748047 C 77.27937 46.711952 76.040002 44.505019 74.144531 43.125 C 72.28353 41.744906 69.69911 41.054725 66.390625 41.054688 C 63.668042 41.054688 61.616788 41.576482 60.238281 42.619141 C 58.859736 43.631185 58.169922 44.873653 58.169922 46.345703 C 58.169922 47.419051 58.739655 48.385432 59.876953 49.244141 C 60.979781 50.133463 63.598778 50.959885 67.734375 51.726562 C 77.96994 53.689309 85.293765 55.682943 89.705078 57.707031 C 94.150785 59.700392 97.372253 62.185403 99.371094 65.160156 C 101.4044 68.134947 102.41992 71.46249 102.41992 75.142578 C 102.41992 79.466736 101.07682 83.454042 98.388672 87.103516 C 95.700558 90.75299 91.945925 93.528283 87.121094 95.429688 C 82.296224 97.300402 76.213683 98.234375 68.873047 98.234375 C 55.9838 98.234375 47.056459 96.027442 42.09375 91.611328 C 37.131041 87.195177 34.322772 81.583605 33.667969 74.775391 L 55.947266 73.533203 C 56.42976 76.753285 57.412616 79.205813 58.894531 80.892578 C 61.306966 83.621964 64.754161 84.986328 69.234375 84.986328 C 72.577292 84.986328 75.143446 84.296035 76.935547 82.916016 C 78.762117 81.505307 79.675781 79.881079 79.675781 78.041016 C 79.675781 76.292984 78.814959 74.729666 77.091797 73.349609 C 75.368635 71.969553 71.369971 70.664183 65.097656 69.4375 C 54.827622 67.38276 47.503759 64.654107 43.126953 61.25 C 38.715678 57.845855 36.511719 53.505291 36.511719 48.230469 C 36.511719 44.76502 37.630968 41.50034 39.871094 38.433594 C 42.145651 35.33612 45.540004 32.914085 50.054688 31.166016 C 54.60384 29.387268 60.82469 28.498047 68.716797 28.498047 z M 138.19336 29.646484 L 138.19336 48.230469 L 149.77539 48.230469 L 149.77539 61.892578 L 138.19336 61.892578 L 138.19336 79.236328 C 138.19336 81.321758 138.41912 82.70227 138.86719 83.376953 C 139.55642 84.419649 140.76317 84.941406 142.48633 84.941406 C 144.03714 84.941406 146.20653 84.54147 148.99805 83.744141 L 150.55078 96.669922 C 145.34683 97.681928 140.48542 98.189453 135.9707 98.189453 C 130.73232 98.189453 126.87204 97.590525 124.39062 96.394531 C 121.90929 95.198462 120.06756 93.38955 118.86133 90.966797 C 117.68956 88.513392 117.10352 84.558457 117.10352 79.099609 L 117.10352 61.892578 L 109.34961 61.892578 L 109.34961 48.230469 L 117.10352 48.230469 L 117.10352 39.259766 L 138.19336 29.646484 z M 159.85547 78.316406 L 182.3418 78.316406 L 182.3418 97.085938 L 159.85547 97.085938 L 159.85547 78.316406 z M 163.68945 116.92578 C 169.18262 116.92578 173.36463 117.83753 176.23828 119.66406 C 179.13151 121.47317 180.85109 124.36189 181.39844 128.32812 L 168.87891 128.97852 C 168.54631 127.25634 167.84274 126.00551 166.76758 125.22266 C 165.71192 124.43984 164.24579 124.04883 162.36914 124.04883 C 160.82479 124.04883 159.66081 124.34416 158.87891 124.93555 C 158.09696 125.50962 157.70703 126.21585 157.70703 127.05078 C 157.70703 127.65966 158.02893 128.20625 158.67383 128.69336 C 159.29942 129.19781 160.78502 129.66665 163.13086 130.10156 C 168.93682 131.21486 173.09151 132.34603 175.59375 133.49414 C 178.11553 134.62486 179.9443 136.03529 181.07812 137.72266 C 182.23152 139.41006 182.80859 141.29726 182.80859 143.38477 C 182.80859 145.83757 182.04434 148.09785 180.51953 150.16797 C 178.99472 152.23805 176.86375 153.81206 174.12695 154.89062 C 171.39012 155.95173 167.94117 156.48242 163.77734 156.48242 C 156.46615 156.48242 151.40292 155.2296 148.58789 152.72461 C 145.77286 150.21961 144.18001 147.03567 143.80859 143.17383 L 156.44727 142.4707 C 156.7209 144.29724 157.27854 145.6897 158.11914 146.64648 C 159.48756 148.19473 161.43915 148.96875 163.98047 148.96875 C 165.8767 148.96875 167.33506 148.57578 168.35156 147.79297 C 169.38764 146.99277 169.9043 146.07106 169.9043 145.02734 C 169.9043 144.03578 169.41688 143.15 168.43945 142.36719 C 167.46207 141.58437 165.19454 140.84429 161.63672 140.14844 C 155.81122 138.98294 151.65652 137.43483 149.17383 135.50391 C 146.67163 133.57295 145.42188 131.1112 145.42188 128.11914 C 145.42188 126.15341 146.05553 124.30011 147.32617 122.56055 C 148.61643 120.8036 150.54266 119.43101 153.10352 118.43945 C 155.68395 117.43055 159.21283 116.92578 163.68945 116.92578 z M 33.201172 117.57812 L 46.515625 117.57812 L 46.515625 155.83008 L 33.201172 155.83008 L 33.201172 117.57812 z M 51.792969 117.57812 L 65.693359 117.57812 L 75.367188 145.10547 L 84.898438 117.57812 L 98.386719 117.57812 L 82.435547 155.83008 L 68.037109 155.83008 L 51.792969 117.57812 z M 102.72656 117.57812 L 138.32422 117.57812 L 138.32422 125.74414 L 116.03906 125.74414 L 116.03906 131.82422 L 136.71094 131.82422 L 136.71094 139.62695 L 116.03906 139.62695 L 116.03906 147.16797 L 138.9707 147.16797 L 138.9707 155.83008 L 102.72656 155.83008 L 102.72656 117.57812 z M 9.6621094 160.8418 C 11.184217 160.8418 12.344362 161.58104 13.140625 163.06055 C 13.942304 164.52597 14.418643 166.86547 14.570312 170.07812 L 11.099609 170.60547 C 11.007525 169.2105 10.813546 168.19658 10.515625 167.5625 C 10.22312 166.92842 9.8168832 166.61133 9.296875 166.61133 C 8.8689516 166.61133 8.5467482 166.851 8.3300781 167.33008 C 8.1134081 167.79507 8.0039062 168.36662 8.0039062 169.04297 C 8.0039062 169.53614 8.0946847 169.97851 8.2734375 170.37305 C 8.4467736 170.78167 8.8578023 171.16336 9.5078125 171.51562 C 11.116588 172.41742 12.267593 173.33369 12.960938 174.26367 C 13.659698 175.17956 14.166297 176.32071 14.480469 177.6875 C 14.800057 179.05429 14.958984 180.58257 14.958984 182.27344 C 14.958984 184.26021 14.748679 186.09275 14.326172 187.76953 C 13.903665 189.44631 13.313033 190.72013 12.554688 191.59375 C 11.796342 192.45328 10.841268 192.88281 9.6875 192.88281 C 7.6616348 192.88281 6.2585279 191.86889 5.4785156 189.83984 C 4.6985034 187.8108 4.2572152 185.23162 4.1542969 182.10352 L 7.65625 181.5332 C 7.7320845 183.01271 7.8862203 184.14103 8.1191406 184.91602 C 8.4983133 186.17008 9.0399629 186.79688 9.7441406 186.79688 C 10.269566 186.79688 10.673407 186.47978 10.955078 185.8457 C 11.242166 185.19754 11.384766 184.4509 11.384766 183.60547 C 11.384766 182.80231 11.249353 182.08329 10.978516 181.44922 C 10.707678 180.81514 10.079599 180.21597 9.09375 179.65234 C 7.479558 178.70827 6.3285525 177.45468 5.640625 175.89062 C 4.9472808 174.32657 4.5996094 172.33178 4.5996094 169.9082 C 4.5996094 168.31597 4.7768174 166.81531 5.1289062 165.40625 C 5.4864119 163.9831 6.0189211 162.87152 6.7285156 162.06836 C 7.4435269 161.25111 8.4216732 160.8418 9.6621094 160.8418 z M 46.4375 160.8418 C 47.93794 160.8418 49.114856 161.63084 49.970703 163.20898 C 50.831967 164.78713 51.471582 167.21145 51.888672 170.48047 L 48.638672 172.36133 C 48.52492 171.41726 48.405835 170.72587 48.28125 170.28906 C 48.075413 169.55635 47.823312 168.99219 47.525391 168.59766 C 47.227469 168.20312 46.89373 168.00586 46.525391 168.00586 C 45.691211 168.00586 45.053549 168.87972 44.609375 170.62695 C 44.273536 171.92329 44.105469 173.96048 44.105469 176.73633 C 44.105469 180.17443 44.304238 182.53416 44.705078 183.81641 C 45.105918 185.08456 45.67064 185.71875 46.396484 185.71875 C 47.100662 185.71875 47.630776 185.20439 47.988281 184.17578 C 48.351204 183.14717 48.614841 181.6539 48.777344 179.69531 L 52.001953 182.23047 C 51.785283 184.5836 51.444356 186.55076 50.978516 188.12891 C 50.512675 189.70705 49.933579 190.89606 49.240234 191.69922 C 48.552307 192.50238 47.674522 192.9043 46.607422 192.9043 C 45.312818 192.9043 44.253034 192.41952 43.429688 191.44727 C 42.611758 190.46092 41.90639 188.73343 41.310547 186.26758 C 40.714704 183.80173 40.416016 180.64556 40.416016 176.79883 C 40.416016 171.66986 40.938942 167.73204 41.984375 164.98438 C 43.035225 162.22262 44.51997 160.8418 46.4375 160.8418 z M 95.650391 160.8418 C 97.172498 160.8418 98.332644 161.58104 99.128906 163.06055 C 99.930586 164.52597 100.40692 166.86547 100.55859 170.07812 L 97.087891 170.60547 C 96.995806 169.2105 96.801828 168.19658 96.503906 167.5625 C 96.211402 166.92842 95.805164 166.61133 95.285156 166.61133 C 94.857233 166.61133 94.535029 166.851 94.318359 167.33008 C 94.101689 167.79507 93.992187 168.36662 93.992188 169.04297 C 93.992188 169.53614 94.082966 169.97851 94.261719 170.37305 C 94.435055 170.78167 94.846084 171.16336 95.496094 171.51562 C 97.104869 172.41742 98.255875 173.33369 98.949219 174.26367 C 99.64798 175.17956 100.15458 176.32071 100.46875 177.6875 C 100.78834 179.05429 100.94727 180.58257 100.94727 182.27344 C 100.94727 184.26021 100.73696 186.09275 100.31445 187.76953 C 99.891946 189.44631 99.301314 190.72013 98.542969 191.59375 C 97.784623 192.45328 96.829549 192.88281 95.675781 192.88281 C 93.649916 192.88281 92.246809 191.86889 91.466797 189.83984 C 90.686785 187.8108 90.245496 185.23162 90.142578 182.10352 L 93.644531 181.5332 C 93.720366 183.01271 93.874502 184.14103 94.107422 184.91602 C 94.486595 186.17008 95.028244 186.79688 95.732422 186.79688 C 96.257847 186.79688 96.661688 186.47978 96.943359 185.8457 C 97.230447 185.19754 97.373047 184.4509 97.373047 183.60547 C 97.373047 182.80231 97.237634 182.08329 96.966797 181.44922 C 96.695959 180.81514 96.06788 180.21597 95.082031 179.65234 C 93.467839 178.70827 92.316834 177.45468 91.628906 175.89062 C 90.935562 174.32657 90.587891 172.33178 90.587891 169.9082 C 90.587891 168.31597 90.765099 166.81531 91.117188 165.40625 C 91.474693 163.9831 92.007202 162.87152 92.716797 162.06836 C 93.431808 161.25111 94.409954 160.8418 95.650391 160.8418 z M 139.91602 160.8418 C 141.89855 160.8418 143.42553 162.23001 144.49805 165.00586 C 145.57056 167.76761 146.10742 171.64279 146.10742 176.63086 C 146.10742 180.25214 145.87165 183.22388 145.40039 185.54883 C 144.93455 187.85968 144.25749 189.6646 143.36914 190.96094 C 142.48621 192.24318 141.38419 192.88281 140.0625 192.88281 C 138.71915 192.88281 137.60559 192.32605 136.72266 191.21289 C 135.84514 190.09973 135.13303 188.33918 134.58594 185.92969 C 134.03885 183.5202 133.76562 180.50409 133.76562 176.88281 C 133.76562 171.82429 134.30727 167.88648 135.39062 165.06836 C 136.47398 162.25024 137.98224 160.8418 139.91602 160.8418 z M 152.95703 160.8418 C 154.47914 160.8418 155.63928 161.58104 156.43555 163.06055 C 157.23723 164.52597 157.71357 166.86547 157.86523 170.07812 L 154.39453 170.60547 C 154.30245 169.2105 154.10847 168.19658 153.81055 167.5625 C 153.51804 166.92842 153.11181 166.61133 152.5918 166.61133 C 152.16387 166.61133 151.84167 166.851 151.625 167.33008 C 151.40833 167.79507 151.29883 168.36662 151.29883 169.04297 C 151.29883 169.53614 151.38961 169.97851 151.56836 170.37305 C 151.7417 170.78167 152.15272 171.16336 152.80273 171.51562 C 154.41151 172.41742 155.56252 173.33369 156.25586 174.26367 C 156.95462 175.17956 157.46122 176.32071 157.77539 177.6875 C 158.09498 179.05429 158.25391 180.58257 158.25391 182.27344 C 158.25391 184.26021 158.0436 186.09275 157.62109 187.76953 C 157.19859 189.44631 156.60795 190.72013 155.84961 191.59375 C 155.09126 192.45328 154.13619 192.88281 152.98242 192.88281 C 150.95656 192.88281 149.55345 191.86889 148.77344 189.83984 C 147.99343 187.8108 147.55018 185.23162 147.44727 182.10352 L 150.94922 181.5332 C 151.02505 183.01271 151.18114 184.14103 151.41406 184.91602 C 151.79324 186.17008 152.33488 186.79688 153.03906 186.79688 C 153.56449 186.79688 153.96638 186.47978 154.24805 185.8457 C 154.53513 185.19754 154.67969 184.4509 154.67969 183.60547 C 154.67969 182.80231 154.54428 182.08329 154.27344 181.44922 C 154.0026 180.81514 153.37452 180.21597 152.38867 179.65234 C 150.77448 178.70827 149.62347 177.45468 148.93555 175.89062 C 148.2422 174.32657 147.89453 172.33178 147.89453 169.9082 C 147.89453 168.31597 148.07174 166.81531 148.42383 165.40625 C 148.78133 163.9831 149.31384 162.87152 150.02344 162.06836 C 150.73845 161.25111 151.7166 160.8418 152.95703 160.8418 z M 16.796875 161.36914 L 22.914062 161.36914 C 24.246583 161.36914 25.243453 162.19515 25.904297 163.84375 C 26.570557 165.49235 26.904297 167.83729 26.904297 170.88086 C 26.904297 174.00897 26.540298 176.45352 25.814453 178.21484 C 25.094025 179.97617 23.992002 180.85742 22.507812 180.85742 L 20.492188 180.85742 L 20.492188 192.35547 L 16.796875 192.35547 L 16.796875 161.36914 z M 28.822266 161.36914 L 38.685547 161.36914 L 38.685547 167.98633 L 32.509766 167.98633 L 32.509766 172.91016 L 38.238281 172.91016 L 38.238281 179.23047 L 32.509766 179.23047 L 32.509766 185.33789 L 38.863281 185.33789 L 38.863281 192.35547 L 28.822266 192.35547 L 28.822266 161.36914 z M 53.935547 161.36914 L 57.625 161.36914 L 57.625 192.35547 L 53.935547 192.35547 L 53.935547 161.36914 z M 63.541016 161.36914 L 67.554688 161.36914 L 72.03125 192.35547 L 68.179688 192.35547 L 67.59375 187.24023 L 63.402344 187.24023 L 62.824219 192.35547 L 59.0625 192.35547 L 63.541016 161.36914 z M 73.208984 161.36914 L 76.888672 161.36914 L 76.888672 184.72461 L 82.634766 184.72461 L 82.634766 192.35547 L 73.208984 192.35547 L 73.208984 161.36914 z M 84.455078 161.36914 L 88.142578 161.36914 L 88.142578 192.35547 L 84.455078 192.35547 L 84.455078 161.36914 z M 101.96289 161.36914 L 113.15234 161.36914 L 113.15234 169.02148 L 109.39844 169.02148 L 109.39844 192.35547 L 105.7168 192.35547 L 105.7168 169.02148 L 101.96289 169.02148 L 101.96289 161.36914 z M 120.38281 161.36914 L 124.06445 161.36914 L 124.06445 172.21289 L 128.08594 172.21289 L 128.08594 161.36914 L 131.7832 161.36914 L 131.7832 192.35547 L 128.08594 192.35547 L 128.08594 179.82227 L 124.06445 179.82227 L 124.06445 192.35547 L 120.38281 192.35547 L 120.38281 161.36914 z M 160.0918 161.36914 L 166.20898 161.36914 C 167.54151 161.36914 168.53838 162.19515 169.19922 163.84375 C 169.86548 165.49235 170.19922 167.83729 170.19922 170.88086 C 170.19922 174.00897 169.83522 176.45352 169.10938 178.21484 C 168.38895 179.97617 167.28692 180.85742 165.80273 180.85742 L 163.78711 180.85742 L 163.78711 192.35547 L 160.0918 192.35547 L 160.0918 161.36914 z M 172.26953 161.36914 L 175.95898 161.36914 L 175.95898 192.35547 L 172.26953 192.35547 L 172.26953 161.36914 z M 177.76367 161.36914 L 188.95117 161.36914 L 188.95117 169.02148 L 185.19727 169.02148 L 185.19727 192.35547 L 181.51758 192.35547 L 181.51758 169.02148 L 177.76367 169.02148 L 177.76367 161.36914 z M 192.76172 161.36914 L 196.77539 161.36914 L 201.25195 192.35547 L 197.40234 192.35547 L 196.81641 187.24023 L 192.62305 187.24023 L 192.04688 192.35547 L 188.28516 192.35547 L 192.76172 161.36914 z M 202.43164 161.36914 L 206.11133 161.36914 L 206.11133 184.72461 L 211.85547 184.72461 L 211.85547 192.35547 L 202.43164 192.35547 L 202.43164 161.36914 z M 20.492188 167.66797 L 20.492188 174.58008 L 21.394531 174.58008 C 22.104126 174.58008 22.603537 174.26298 22.890625 173.62891 C 23.177713 172.98074 23.320312 172.15668 23.320312 171.15625 C 23.320312 170.184 23.196436 169.35994 22.947266 168.68359 C 22.698095 168.00725 22.228943 167.66797 21.541016 167.66797 L 20.492188 167.66797 z M 163.78711 167.66797 L 163.78711 174.58008 L 164.68945 174.58008 C 165.39905 174.58008 165.89846 174.26298 166.18555 173.62891 C 166.47263 172.98074 166.61523 172.15668 166.61523 171.15625 C 166.61523 170.184 166.49136 169.35994 166.24219 168.68359 C 165.99302 168.00725 165.52386 167.66797 164.83594 167.66797 L 163.78711 167.66797 z M 139.9082 168.0918 C 139.16611 168.0918 138.57068 168.77384 138.12109 170.14062 C 137.6715 171.50741 137.44531 173.76949 137.44531 176.92578 C 137.44531 180.05389 137.66911 182.30118 138.11328 183.66797 C 138.56287 185.03476 139.17223 185.71875 139.94141 185.71875 C 140.73225 185.71875 141.344 185.04954 141.77734 183.71094 C 142.21068 182.37233 142.42773 179.97019 142.42773 176.50391 C 142.42773 173.58716 142.19915 171.4597 141.74414 170.12109 C 141.29455 168.7684 140.6828 168.0918 139.9082 168.0918 z M 65.505859 169.40234 L 64.197266 180.54102 L 66.822266 180.54102 L 65.505859 169.40234 z M 194.72852 169.40234 L 193.41992 180.54102 L 196.04492 180.54102 L 194.72852 169.40234 z "
       style="fill:#ff0000;fill-opacity:1;stroke-width:1.51479793" />
  </g>
</svg>
